<?xml version="1.0" standalone="no"?>
<!DOCTYPE svg PUBLIC "-//W3C//DTD SVG 1.1//EN" "http://www.w3.org/Graphics/SVG/1.1/DTD/svg11.dtd" >
<svg xmlns="http://www.w3.org/2000/svg">
<metadata></metadata>
<defs>
<font id="webfontregular" horiz-adv-x="401" >
<font-face units-per-em="2048" ascent="1546" descent="-502" />
<missing-glyph horiz-adv-x="696" />
<glyph horiz-adv-x="0" />
<glyph horiz-adv-x="682" />
<glyph unicode=" "  horiz-adv-x="696" />
<glyph unicode="&#x09;" horiz-adv-x="696" />
<glyph unicode="&#xa0;" horiz-adv-x="696" />
<glyph unicode="!" horiz-adv-x="446" d="M197 0v137h53v-137h-53zM203 293v1100h41v-1100h-41z" />
<glyph unicode="&#x22;" horiz-adv-x="667" d="M164 983v467h45v-467h-45zM459 983v467h45v-467h-45z" />
<glyph unicode="#" horiz-adv-x="1548" d="M143 467v41h312l102 475h-330v41h340l80 369h43l-80 -369h482l79 369h43l-79 -369h319v-41h-330l-102 -475h348v-41h-358l-101 -467h-43l101 467h-482l-100 -467h-43l100 467h-301zM498 508h481l102 475h-481z" />
<glyph unicode="$" horiz-adv-x="1689" d="M123 389v29h45v-29q0 -123 19.5 -195.5t87 -110.5t200.5 -48t361 -10v669q-227 0 -359.5 15.5t-200 52.5t-85 100.5t-17.5 159.5v33q0 111 28.5 180.5t103.5 108t203 52t327 13.5v127h45v-127q193 0 317.5 -14.5t197 -56.5t100.5 -120.5t28 -209.5v-29h-45v29 q0 119 -23.5 189.5t-90.5 108t-183.5 50t-300.5 12.5v-633q233 0 370.5 -16.5t208 -56t91 -107.5t20.5 -174v-29q0 -119 -32 -191.5t-109.5 -111.5t-211 -52t-337.5 -13v-150h-45v150q-236 0 -377.5 12t-216 54t-97 122t-22.5 217zM219 1024q0 -84 13.5 -138.5t74 -88 t184 -48t345.5 -14.5v633q-195 0 -316 -12.5t-187.5 -47t-90 -96t-23.5 -157.5v-31zM881 25q199 0 323.5 11t196.5 46t98.5 99.5t26.5 170.5v29q0 63 -7.5 111.5t-30 82t-65.5 57t-114.5 37t-177 19.5t-250.5 6v-669z" />
<glyph unicode="%" horiz-adv-x="1695" d="M143 1094v16q0 92 11.5 148.5t42 87t86 40t143.5 9.5h16q88 0 143.5 -9.5t86 -40t42 -87t11.5 -148.5v-16q0 -92 -11.5 -148.5t-42 -87.5t-86 -40t-143.5 -9h-16q-88 0 -143.5 9t-86 40t-42 87t-11.5 149zM184 1094q0 -82 8.5 -131.5t33 -75t72.5 -33.5t128 -8h16 q80 0 128 8t73 33.5t33 75t8 131.5v16q0 82 -8 131t-33 74.5t-73 34t-128 8.5h-16q-80 0 -128 -8.5t-72.5 -34t-33 -74.5t-8.5 -131v-16zM451 0l714 1393h47l-714 -1393h-47zM971 283v16q0 92 11 148.5t42 87t86 40t143 9.5h17q88 0 143 -9.5t86 -40t42 -87t11 -148.5v-16 q0 -92 -11 -148.5t-42 -87.5t-86 -40t-143 -9h-17q-88 0 -143 9t-86 40t-42 87t-11 149zM1012 283q0 -82 8 -131.5t32.5 -75t73 -33.5t127.5 -8h17q80 0 128 8t72.5 33.5t32.5 75t8 131.5v16q0 82 -8 131t-32.5 74.5t-72.5 34t-128 8.5h-17q-80 0 -128 -8.5t-72.5 -34 t-32.5 -74.5t-8 -131v-16z" />
<glyph unicode="&#x26;" horiz-adv-x="1949" d="M133 408v26q0 82 9.5 146.5t40 110.5t89 74t156.5 36q-37 20 -64.5 42.5t-46 51.5t-27.5 67.5t-9 92.5v26q0 113 22.5 178.5t89 98.5t185 42t309.5 9h37q182 0 291.5 -11.5t168 -47t76 -99t17.5 -168.5v-14h-45v14q0 92 -13.5 148.5t-64.5 87.5t-152.5 40t-277.5 9h-37 q-188 0 -299 -7t-169.5 -37t-75.5 -87t-17 -156v-26q0 -51 8 -88t33.5 -70t72.5 -64.5t123 -72.5l1010 -553q18 51 21 134t3 189v136h45v-138q0 -123 -5 -209t-25 -133l289 -151l-25 -37l-283 152q-35 -55 -84 -89t-127.5 -50.5t-193.5 -21.5t-283 -5h-37q-170 0 -289.5 5 t-201.5 19.5t-130 43t-74 75.5t-33 115.5t-7 165.5zM178 408q0 -88 6 -150.5t29 -104.5t67 -68t120.5 -39t190.5 -17t277 -4h37q176 0 289 6t184.5 22.5t110.5 45t67 71.5l-1095 602q-102 -8 -158.5 -33.5t-84.5 -67.5t-34 -101.5t-6 -135.5v-26z" />
<glyph unicode="'" horiz-adv-x="372" d="M164 983v467h45v-467h-45z" />
<glyph unicode="(" horiz-adv-x="655" d="M135 676v41q0 162 5 276.5t20.5 191.5t42 122t69.5 67.5t102.5 28.5t141.5 6h29v-39h-29q-74 0 -127 -5t-91 -26.5t-61.5 -62.5t-37 -115t-17.5 -184.5t-4 -267.5v-25q0 -158 4 -268.5t17.5 -184t37 -114.5t61.5 -62.5t91 -26.5t127 -5h29v-39h-29q-82 0 -141.5 6 t-102.5 28.5t-69.5 67.5t-42 122t-20.5 191.5t-5 276.5z" />
<glyph unicode=")" horiz-adv-x="655" d="M111 -16v39h28q74 0 127 5t91 26.5t61.5 62.5t37 114.5t17.5 184t4 268.5v25q0 158 -4 268t-17.5 184t-37 115t-61.5 62.5t-91 26.5t-127 5h-28v39h28q82 0 141.5 -6t102.5 -28.5t69.5 -67.5t42 -122t20.5 -191.5t5 -276.5v-41q0 -162 -5 -276.5t-20.5 -191.5t-42 -122 t-69.5 -67.5t-102.5 -28.5t-141.5 -6h-28z" />
<glyph unicode="*" horiz-adv-x="966" d="M152 883l241 133l15 -23l-236 -145zM152 1219l20 34l236 -145l-15 -23zM463 709l6 260h29l6 -260h-41zM463 1393h41l-6 -260h-29zM559 993l14 23l242 -133l-20 -35zM559 1108l236 145l20 -34l-242 -134z" />
<glyph unicode="+" horiz-adv-x="1325" d="M172 606v41h469v457h45v-457h467v-41h-467v-465h-45v465h-469z" />
<glyph unicode="," horiz-adv-x="405" d="M143 -176q31 0 43.5 19.5t12.5 76.5v80h-25v135h57v-223q0 -72 -23.5 -95.5t-64.5 -23.5v31z" />
<glyph unicode="-" horiz-adv-x="929" d="M143 498v41h643v-41h-643z" />
<glyph unicode="." d="M174 0v135h53v-135h-53z" />
<glyph unicode="/" horiz-adv-x="1048" d="M147 -16l707 1425h47l-706 -1425h-48z" />
<glyph unicode="0" horiz-adv-x="1728" d="M135 676v41q0 162 10.5 276.5t38 191.5t76.5 122t128 67.5t189.5 28.5t262.5 6h49q152 0 262.5 -6t189 -28.5t128 -67.5t77 -122t37.5 -191.5t10 -276.5v-41q0 -162 -10 -276.5t-37.5 -191.5t-77 -122t-128 -67.5t-189.5 -28.5t-262 -6h-49q-152 0 -262.5 6t-189.5 28.5 t-128 67.5t-76.5 122t-38 191.5t-10.5 276.5zM180 684q0 -156 8.5 -266.5t33 -183t69.5 -114.5t118.5 -62.5t179 -26.5t251.5 -6h49q145 0 250.5 6t179.5 26.5t119 62.5t69.5 114.5t32.5 182t8 267.5v25q0 156 -8 266t-32.5 183t-69.5 115t-119 63.5t-179.5 26.5t-250.5 5 h-49q-145 0 -251 -5t-179.5 -26.5t-118.5 -63.5t-69.5 -115t-33 -183.5t-8.5 -265.5v-25z" />
<glyph unicode="1" horiz-adv-x="921" d="M20 909l533 484h68v-1393h-46v1352h-10l-516 -473z" />
<glyph unicode="2" horiz-adv-x="1654" d="M113 79v75q0 164 28.5 255t111.5 137t234.5 59t397.5 22q184 6 301 19t184.5 51t93 110t25.5 194v35q0 104 -25.5 170t-94.5 101.5t-188.5 48t-306.5 12.5h-36q-193 0 -311.5 -10t-185.5 -47t-89.5 -109t-22.5 -194v-29h-45v29q0 133 28 211.5t100.5 120.5t199.5 55.5 t326 13.5h36q195 0 322 -14.5t203 -55.5t105.5 -113.5t29.5 -189.5v-37q0 -143 -36 -223t-113.5 -120t-201.5 -52t-300 -18q-168 -6 -288 -13.5t-201 -25t-128 -45t-70.5 -74.5t-30.5 -114.5t-7 -163.5v-109h1394v-41h-1437q-2 33 -2 79z" />
<glyph unicode="3" horiz-adv-x="1695" d="M133 389v29h45v-29q0 -123 19.5 -195.5t84 -110.5t186.5 -48t329 -10h63q209 0 340 9t206 44t102.5 105.5t27.5 193.5v29q0 98 -22.5 156.5t-72.5 88t-131 38.5t-198 9h-491v41h491q111 0 185.5 14.5t119.5 45t64.5 81t19.5 121.5v35q0 104 -22.5 170t-90 101.5 t-190.5 48t-321 12.5h-37q-193 0 -311.5 -10t-185.5 -47t-89.5 -109t-22.5 -194v-29h-45v29q0 133 28 211.5t100.5 120.5t199.5 55.5t326 13.5h37q211 0 343 -14.5t203.5 -55.5t97 -113.5t25.5 -189.5v-37q0 -115 -51 -184.5t-188 -89.5v-4q61 -6 111 -19.5t87 -46t56.5 -92 t19.5 -157.5v-29q0 -139 -34 -217t-115.5 -118t-221 -49t-350.5 -9h-63q-213 0 -344 12t-202 55t-94.5 123t-23.5 215z" />
<glyph unicode="4" horiz-adv-x="1730" d="M123 350v56l1153 987h84v-1002h260v-41h-260v-350h-45v350h-1192zM176 391h1139v969h-15l-1124 -961v-8z" />
<glyph unicode="5" horiz-adv-x="1730" d="M143 389v29h45v-29q0 -123 20.5 -195.5t85 -110.5t186.5 -48t327 -10h63q215 0 351.5 10t213 48t104.5 113.5t28 206.5v56q0 121 -15.5 196.5t-76 118.5t-180 58.5t-328.5 15.5h-68q-154 0 -270.5 -4t-199.5 -19.5t-136 -47.5t-80 -87h-45v703h1405v-41h-1362v-607h2 q23 43 73 71t133 44.5t201.5 22.5t278.5 6h68q223 0 351 -18.5t193.5 -67.5t83 -132t17.5 -212v-56q0 -139 -31 -221t-114 -127t-226 -58t-371 -13h-63q-213 0 -344 12t-202 55t-94.5 123t-23.5 215z" />
<glyph unicode="6" horiz-adv-x="1724" d="M143 573v144q0 233 26 371.5t103.5 209t221 91t376.5 20.5h37q197 0 323 -13.5t198.5 -55.5t100 -120.5t27.5 -211.5v-29h-45v29q0 119 -23.5 190.5t-90 109.5t-184 49t-306.5 11h-37q-150 0 -259 -7t-185 -29.5t-122 -66.5t-71.5 -118t-35 -181.5t-9.5 -256.5v-76h2 q20 41 55.5 72.5t107 53t189 33t302.5 11.5h45q221 0 357 -12.5t213 -52.5t103.5 -116.5t26.5 -205.5v-41q0 -127 -27.5 -204t-104.5 -118t-214 -55t-354 -14h-45q-160 0 -274.5 6t-192.5 27.5t-124 60.5t-70.5 104.5t-32 161.5t-7.5 229zM188 498q0 -162 21.5 -256.5 t90.5 -142.5t199 -61t345 -13h45q213 0 342 13t198.5 51t92 106.5t22.5 179.5v41q0 117 -24.5 186.5t-95 104t-199.5 45t-336 10.5h-45q-182 0 -307 -12.5t-202 -41t-112 -75.5t-35 -119v-16z" />
<glyph unicode="7" horiz-adv-x="1681" d="M86 1352v41h1509v-54l-1136 -1339h-60l1151 1348v4h-1464z" />
<glyph unicode="8" horiz-adv-x="1699" d="M127 354v21q0 104 20.5 167.5t61.5 100.5t100.5 53.5t136.5 24.5v4q-76 10 -129 26.5t-85.5 50.5t-48 92t-15.5 157v20q0 106 23.5 172t94 102.5t199.5 50t342 13.5h45q213 0 342 -13.5t200 -50t94.5 -102t23.5 -172.5v-20q0 -98 -15.5 -156.5t-48 -92.5t-86 -50.5 t-129.5 -26.5v-4q78 -8 137.5 -24.5t100.5 -53.5t61.5 -100.5t20.5 -167.5v-21q0 -129 -30 -202.5t-107.5 -110.5t-214 -47t-349.5 -10h-45q-213 0 -349 10t-214 47t-107.5 110.5t-29.5 202.5zM172 354q0 -117 27.5 -183.5t100.5 -99t200 -39.5t327 -7h45q199 0 327 7 t201 39.5t100.5 99.5t27.5 183v21q0 117 -27.5 182.5t-100.5 97t-201 38.5t-327 7h-45q-201 0 -327.5 -7t-199.5 -38.5t-100.5 -97t-27.5 -182.5v-21zM213 1051q0 -102 17.5 -164t80 -94.5t185 -42t331.5 -9.5h45q211 0 333 9.5t184.5 41t80 93t17.5 166.5v20 q0 94 -21.5 152.5t-86 90.5t-186.5 43t-321 11h-45q-201 0 -321.5 -11t-185 -43t-86 -90.5t-21.5 -152.5v-20z" />
<glyph unicode="9" horiz-adv-x="1724" d="M135 977v41q0 125 27.5 202.5t104.5 118.5t213 55.5t356 14.5h45q160 0 274.5 -6t192 -27.5t124 -60.5t71 -104.5t31.5 -162t7 -229.5v-143q0 -233 -24.5 -371.5t-102.5 -209t-223.5 -91t-384.5 -20.5h-37q-201 0 -328 13t-200.5 55t-101 121t-27.5 212v29h45v-29 q0 -121 23.5 -191.5t91 -108.5t187 -49t310.5 -11h37q154 0 265.5 7t188 29.5t122.5 66.5t72 117.5t34 180t8 258.5v76h-2q-20 -39 -53 -71t-103.5 -53.5t-188.5 -33.5t-308 -12h-45q-221 0 -357.5 12t-213.5 52t-103.5 117t-26.5 206zM180 977q0 -117 24.5 -186.5 t95.5 -104.5t200 -45t336 -10h45q180 0 306 12t202.5 41t111.5 76t35 119v16q0 162 -21.5 256t-90 142t-198.5 61.5t-345 13.5h-45q-213 0 -342 -13.5t-199 -51t-92.5 -106.5t-22.5 -179v-41z" />
<glyph unicode=":" horiz-adv-x="425" d="M188 0v135h50v-135h-50zM188 848v135h50v-135h-50z" />
<glyph unicode=";" horiz-adv-x="434" d="M158 -176q31 0 43 19.5t12 76.5v80h-25v135h58v-223q0 -72 -23.5 -95.5t-64.5 -23.5v31zM197 848v135h49v-135h-49z" />
<glyph unicode="&#x3c;" horiz-adv-x="1325" d="M172 596v49l981 459v-45l-942 -438v-3l942 -436v-45z" />
<glyph unicode="=" horiz-adv-x="1325" d="M172 428v41h981v-41h-981zM172 776v41h981v-41h-981z" />
<glyph unicode="&#x3e;" horiz-adv-x="1325" d="M172 137v45l942 436v3l-942 438v45l981 -459v-49z" />
<glyph unicode="?" horiz-adv-x="1529" d="M135 979v29q0 133 27.5 211.5t100.5 120.5t200 55.5t325 13.5h37q195 0 312.5 -14.5t181 -55.5t84 -113.5t20.5 -189.5v-37q0 -121 -21.5 -193.5t-76.5 -115.5t-151.5 -62.5t-245.5 -33.5q-82 -8 -131 -17.5t-76 -28t-36 -48t-9 -78.5v-29h-43v17q0 57 9 96t40 64.5 t88 39t154 23.5q147 14 236 32.5t138.5 56.5t64.5 104.5t15 174.5v35q0 104 -16 170t-73.5 101.5t-167 48t-296.5 12.5h-37q-193 0 -311.5 -10t-185 -47t-89 -109t-22.5 -194v-29h-45zM629 0v137h53v-137h-53z" />
<glyph unicode="@" horiz-adv-x="2086" d="M147 471v123q0 162 10.5 276.5t42 192.5t91 123t157 68.5t237.5 29.5t335 6h55q195 0 335 -6t236.5 -27.5t154 -64.5t89 -118t40.5 -187.5t9 -272.5v-102q0 -115 -8 -186.5t-33.5 -110.5t-72.5 -52t-125 -13q-66 0 -106 6t-63.5 23.5t-33.5 46t-16 71.5h-4 q-18 -47 -47 -79t-75 -51.5t-116 -28.5t-174 -9h-37q-141 0 -229 12.5t-138.5 55.5t-68 126t-17.5 222v26q0 133 17.5 215t68 126t138.5 58.5t229 14.5h37q100 0 169 -5t116 -22.5t75.5 -50.5t51.5 -90h4v152h45v-615q0 -53 5 -85.5t23.5 -50t53 -23t92.5 -5.5q61 0 100 9.5 t59.5 43t27.5 99.5t7 178v86q0 154 -8 261.5t-35.5 179t-81 112.5t-143.5 61.5t-225 25.5t-324 5h-57q-188 0 -323.5 -6t-227.5 -27.5t-146.5 -64.5t-83 -116.5t-37.5 -184.5t-9 -266v-107q0 -156 9 -266.5t37.5 -184t83 -115.5t146.5 -63.5t227 -26.5t324 -5h57 q180 0 308 3t215.5 10t139.5 20.5t79.5 34t36 49t8.5 67.5v21h45v-21q0 -74 -30 -118t-119 -67.5t-251.5 -30.5t-429.5 -7h-59q-195 0 -335 6t-237.5 28.5t-157 67.5t-91 122t-42 191.5t-10.5 276.5zM621 545q0 -119 12 -192.5t54 -113.5t123 -54.5t218 -14.5h37 q135 0 217 16.5t126 58.5t58.5 114.5t14.5 185.5v26q0 119 -17.5 193t-64.5 114t-128 53t-206 13h-37q-137 0 -218 -14.5t-123 -54t-54 -112.5t-12 -192v-26z" />
<glyph unicode="A" horiz-adv-x="1710" d="M4 0l836 1393h75l791 -1393h-49l-195 344h-1206l-205 -344h-47zM281 385h1157l-549 971h-25z" />
<glyph unicode="B" horiz-adv-x="1767" d="M186 0v1393h928q129 0 218 -13.5t143.5 -51.5t79 -104.5t24.5 -172.5q0 -90 -18.5 -149.5t-52 -96.5t-80 -54.5t-99.5 -21.5v-2q160 -6 233.5 -87t73.5 -265q0 -115 -24.5 -187.5t-84 -113.5t-156.5 -57.5t-245 -16.5h-940zM231 41h899q143 0 233.5 14.5t140.5 52 t68.5 102t18.5 165.5q0 104 -25.5 168.5t-72.5 101.5t-114.5 49.5t-151.5 12.5h-996v-666zM231 748h979q80 0 141.5 12t101.5 46t60.5 93t20.5 152q0 96 -20.5 155.5t-70.5 91t-132 43t-205 11.5h-875v-604z" />
<glyph unicode="C" horiz-adv-x="1925" d="M147 676v41q0 162 11.5 276.5t43 191.5t88 122t144.5 67.5t212 28.5t294 6h57q248 0 397.5 -10t230.5 -49t106.5 -117t25.5 -213v-21h-45v21q0 119 -20.5 187.5t-94 104.5t-216 46t-384.5 10h-57q-164 0 -282.5 -5t-201.5 -26.5t-134.5 -63.5t-80 -115t-38.5 -183.5 t-10 -265.5v-25q0 -156 10 -265.5t38.5 -183t80 -115.5t134.5 -63.5t201.5 -26.5t282.5 -5h57q246 0 392.5 9t222.5 45t98.5 104.5t22.5 187.5v20h45v-20q0 -135 -29 -213t-113 -116t-236.5 -48t-400.5 -10h-59q-170 0 -294 6t-212 28.5t-144.5 67.5t-88 122t-43 191.5 t-11.5 276.5z" />
<glyph unicode="D" horiz-adv-x="1961" d="M186 0v1393h811q174 0 302 -5.5t219.5 -26t147.5 -63.5t89 -117.5t44 -188t11 -275.5v-41q0 -158 -10 -269.5t-42 -186.5t-87 -119t-146 -66.5t-220 -28.5t-308 -6h-811zM231 41h766q174 0 300 6t211 26.5t136.5 62.5t78 112.5t34.5 177t8 258.5v25q0 158 -10 266 t-38.5 179t-82 111t-138.5 59t-208 23.5t-291 4.5h-766v-1311z" />
<glyph unicode="E" horiz-adv-x="1552" d="M186 0v1393h1276v-41h-1231v-604h1182v-41h-1182v-666h1229v-41h-1274z" />
<glyph unicode="F" horiz-adv-x="1515" d="M186 0v1393h1276v-41h-1231v-625h1182v-41h-1182v-686h-45z" />
<glyph unicode="G" horiz-adv-x="1933" d="M147 676v41q0 162 11.5 276.5t43 191.5t88 122t144.5 67.5t212 28.5t294 6h57q248 0 397.5 -10t230.5 -49t106.5 -117t25.5 -213v-21h-45v21q0 119 -20.5 187.5t-94 104.5t-216 46t-384.5 10h-57q-164 0 -282.5 -5t-201.5 -26.5t-134.5 -63.5t-80 -115t-38.5 -183.5 t-10 -265.5v-25q0 -156 10 -266.5t38.5 -183t80 -114.5t134.5 -63.5t201.5 -26.5t282.5 -5h57q168 0 288 4t202 17t130 40t73.5 70t34 105.5t8.5 150.5v190h-867v41h912v-231q0 -150 -29 -236t-113 -129t-236.5 -53t-400.5 -10h-59q-170 0 -294 6t-212 28.5t-144.5 67.5 t-88 122t-43 191.5t-11.5 276.5z" />
<glyph unicode="H" horiz-adv-x="1929" d="M186 0v1393h45v-641h1467v641h45v-1393h-45v711h-1467v-711h-45z" />
<glyph unicode="I" horiz-adv-x="417" d="M186 0v1393h45v-1393h-45z" />
<glyph unicode="J" horiz-adv-x="1464" d="M68 375v20h45v-20q0 -117 11 -186.5t58 -106.5t141.5 -47t258.5 -10h57q207 0 326.5 13t181 65.5t79 159t17.5 292.5v838h45v-838q0 -197 -20.5 -311.5t-88 -172t-196.5 -72.5t-344 -15h-57q-170 0 -272.5 11t-156 51t-69.5 118t-16 211z" />
<glyph unicode="K" horiz-adv-x="1726" d="M186 0v1393h45v-664h267l1091 664h76l-1122 -682l1175 -711h-84l-1136 688h-267v-688h-45z" />
<glyph unicode="L" horiz-adv-x="1404" d="M186 0v1393h45v-1352h1162v-41h-1207z" />
<glyph unicode="M" horiz-adv-x="2420" d="M186 0v1393h72l961 -1354h6l940 1354h69v-1393h-45v1352h-4l-940 -1352h-51l-958 1352h-5v-1352h-45z" />
<glyph unicode="N" horiz-adv-x="1974" d="M186 0v1393h80l1467 -1354h10v1354h45v-1393h-78l-1468 1354h-11v-1354h-45z" />
<glyph unicode="O" horiz-adv-x="1978" d="M147 676v41q0 162 11.5 276.5t44.5 191.5t89 122t147 67.5t219 28.5t303 6h57q174 0 302 -6t219 -28.5t147.5 -67.5t89 -122t44 -191.5t11.5 -276.5v-41q0 -162 -11.5 -276.5t-44 -191.5t-89 -122t-147.5 -67.5t-219 -28.5t-302 -6h-57q-174 0 -302.5 6t-219.5 28.5 t-147 67.5t-89 122t-44.5 191.5t-11.5 276.5zM193 684q0 -156 10 -266.5t38.5 -183t82 -114.5t138.5 -63.5t208 -26.5t291 -5h57q168 0 291 5t208 26.5t138 63.5t81.5 114.5t39 182t10.5 267.5v25q0 156 -10.5 266t-39 183t-81.5 115t-138 63.5t-208 26.5t-291 5h-57 q-168 0 -291 -5t-208 -26.5t-138.5 -63.5t-82 -115t-38.5 -183.5t-10 -265.5v-25z" />
<glyph unicode="P" horiz-adv-x="1773" d="M186 0v1393h867q209 0 331.5 -11.5t187 -49.5t84 -112.5t19.5 -201.5v-27q0 -129 -20.5 -202.5t-85 -112.5t-188.5 -49.5t-328 -10.5h-822v-616h-45zM231 657h807q209 0 327 10.5t177.5 44t73.5 99.5t14 176v35q0 113 -15.5 178.5t-74.5 99t-177 43t-325 9.5h-807v-695z " />
<glyph unicode="Q" horiz-adv-x="1978" d="M147 676v41q0 162 11.5 276.5t44.5 191.5t89 122t147 67.5t219 28.5t303 6h57q174 0 302 -6t219 -28.5t147.5 -67.5t89 -122t44 -191.5t11.5 -276.5v-41q0 -174 -13.5 -291t-50.5 -195l166 -104l-24 -35l-162 103q-37 -57 -96.5 -91t-147.5 -51.5t-207.5 -22.5t-277.5 -5 h-57q-174 0 -302.5 6t-219.5 28.5t-147 67.5t-89 122t-44.5 191.5t-11.5 276.5zM193 684q0 -156 10 -266.5t38.5 -183t82 -114.5t138.5 -63.5t208 -26.5t291 -5h57q154 0 268.5 4t197.5 19t137 46t89 84l-620 397l24 35l617 -395q35 74 45 187.5t10 281.5v25 q0 156 -10.5 266t-39 183t-81.5 115t-138 63.5t-208 26.5t-291 5h-57q-168 0 -291 -5t-208 -26.5t-138.5 -63.5t-82 -115t-38.5 -183.5t-10 -265.5v-25z" />
<glyph unicode="R" horiz-adv-x="1818" d="M186 0v1393h959q154 0 253 -13.5t156.5 -53.5t79 -115.5t21.5 -200.5v-54q0 -82 -20.5 -137t-56.5 -90t-85 -54.5t-104 -27.5v-2q74 -12 124 -33.5t80.5 -63.5t43 -109.5t12.5 -172.5v-266h-45v184q0 135 -11.5 221.5t-55.5 135.5t-131 66.5t-237 17.5h-938v-625h-45z M231 666h979q219 0 309.5 70.5t90.5 221.5v50q0 113 -17.5 180t-67.5 104t-139.5 48.5t-230.5 11.5h-924v-686z" />
<glyph unicode="S" horiz-adv-x="1746" d="M152 389v29h45v-29q0 -123 20.5 -194.5t85 -109.5t186 -49t326.5 -11h64q209 0 340 10t205.5 45t102 99.5t27.5 172.5v29q0 96 -18 157.5t-87 96.5t-201 47t-359 12q-238 0 -374 14.5t-205.5 51.5t-88 100.5t-18.5 161.5v33q0 111 28.5 180.5t102.5 108t201 52t323 13.5 h37q199 0 326 -13.5t200.5 -55.5t102 -120.5t28.5 -211.5v-29h-45v29q0 119 -24.5 190.5t-92 109.5t-186.5 49t-309 11h-37q-193 0 -312.5 -12.5t-185 -47t-89 -96t-23.5 -157.5v-31q0 -55 5 -98t24.5 -76t60.5 -54.5t111.5 -34.5t178 -19.5t261.5 -6.5q242 0 383 -15 t214 -54t93 -109t20 -176v-29q0 -121 -32.5 -193.5t-113.5 -111.5t-220 -51t-354 -12h-64q-213 0 -344 12t-201.5 55t-94 123t-23.5 215z" />
<glyph unicode="T" horiz-adv-x="1576" d="M25 1352v41h1527v-41h-741v-1352h-45v1352h-741z" />
<glyph unicode="U" horiz-adv-x="1916" d="M176 453v940h45v-940q0 -147 27.5 -233.5t104.5 -129.5t211 -54t349 -11h74q215 0 352.5 11t216 54t109.5 129t31 234v940h45v-940q0 -160 -33 -254.5t-119 -141.5t-235.5 -60t-382.5 -13h-41q-233 0 -381 12t-230.5 59t-112.5 140.5t-30 257.5z" />
<glyph unicode="V" horiz-adv-x="1687" d="M4 1393h51l793 -1352h10l774 1352h51l-802 -1393h-60z" />
<glyph unicode="W" horiz-adv-x="2615" d="M25 1393h47l600 -1352h6l604 1352h57l598 -1352h7l600 1352h47l-623 -1393h-55l-602 1358h-2l-607 -1358h-55z" />
<glyph unicode="X" horiz-adv-x="1746" d="M37 0l803 733l-719 660h59l694 -637l697 637h57l-721 -660l803 -733h-59l-777 713l-778 -713h-59z" />
<glyph unicode="Y" horiz-adv-x="1712" d="M4 1393h62l786 -799h4l791 799h61l-834 -840v-553h-45v553z" />
<glyph unicode="Z" horiz-adv-x="1720" d="M92 0v43l1479 1307v2h-1421v41h1470v-56l-1464 -1294v-2h1472v-41h-1536z" />
<glyph unicode="[" horiz-adv-x="655" d="M164 -16v1425h348v-41h-303v-1343h303v-41h-348z" />
<glyph unicode="\" horiz-adv-x="1052" d="M147 1409h48l706 -1425h-47z" />
<glyph unicode="]" horiz-adv-x="655" d="M143 -16v41h303v1343h-303v41h349v-1425h-349z" />
<glyph unicode="^" horiz-adv-x="1325" d="M70 618l563 775h57l563 -775h-49l-540 746h-2l-543 -746h-49z" />
<glyph unicode="_" horiz-adv-x="1290" d="M0 -193h1290v-40h-1290v40z" />
<glyph unicode="`" horiz-adv-x="1024" d="M307 1395l33 28l274 -264l-24 -22z" />
<glyph unicode="a" horiz-adv-x="1378" d="M127 279v12q0 88 23.5 145.5t81 89t149.5 44t231 12.5h39q125 0 211 -5.5t145.5 -18.5t96.5 -35.5t61 -59.5h6v69q0 147 -13 232.5t-63.5 128.5t-148.5 54t-270 11h-33q-129 0 -212 -11t-130 -38.5t-65.5 -75t-18.5 -116.5v-21h-45v23q0 90 26.5 145.5t84 85t146.5 39.5 t214 10h33q180 0 286.5 -11t163 -58t74 -140.5t17.5 -254.5v-535h-46v117h-4q-29 -39 -66.5 -64.5t-95 -41t-138.5 -21.5t-191 -6h-37q-156 0 -255 12t-156.5 45t-79 90t-21.5 148zM172 281q0 -80 18.5 -129.5t68.5 -78t141.5 -38.5t238.5 -10h37q139 0 234.5 10t153.5 38.5 t82.5 79t24.5 128.5v10q0 84 -26.5 133t-88 75.5t-160.5 34t-245 7.5h-39q-131 0 -216 -9.5t-135 -37t-69.5 -76.5t-19.5 -129v-8z" />
<glyph unicode="b" horiz-adv-x="1484" d="M178 0v1393h45v-582h4q20 57 58.5 93t99.5 57.5t153.5 29.5t223.5 8h37q172 0 280.5 -15t169 -66.5t83 -148.5t22.5 -261v-27q0 -164 -22.5 -261t-83 -150.5t-169 -69.5t-280.5 -16h-37q-139 0 -232.5 10t-155 33.5t-95 61.5t-52.5 91h-4v-180h-45zM223 481 q0 -147 19.5 -237t77 -138.5t163 -64.5t279.5 -16h37q168 0 268 15t153.5 63.5t71 138.5t17.5 239v27q0 150 -17.5 239t-71 136t-153.5 61t-268 14h-37q-172 0 -277.5 -13t-164 -60t-78 -136.5t-19.5 -240.5v-27z" />
<glyph unicode="c" horiz-adv-x="1445" d="M131 481v27q0 164 22.5 261t88 148.5t181.5 66.5t304 15h37q162 0 267.5 -11t167 -47t85 -99.5t23.5 -167.5v-15h-45v15q0 92 -19.5 148.5t-73 87t-151.5 39.5t-254 9h-37q-184 0 -292.5 -14t-166 -61t-75 -136.5t-17.5 -238.5v-27q0 -150 18.5 -239.5t77 -138t167 -63.5 t288.5 -15h37q156 0 255 12t155.5 44t77 89t20.5 147v21h45v-21q0 -102 -26.5 -166.5t-90 -101.5t-170 -51t-266.5 -14h-37q-186 0 -303 16t-181.5 69.5t-88 150.5t-23.5 261z" />
<glyph unicode="d" horiz-adv-x="1484" d="M131 481v27q0 164 22.5 261t83 148.5t169 66.5t280.5 15h37q131 0 223 -8t153.5 -29.5t98.5 -57.5t59 -93h5v582h45v-1393h-45v180h-5q-18 -53 -52 -91t-95 -61.5t-154.5 -33.5t-232.5 -10h-37q-172 0 -280.5 16t-169 69.5t-83 150.5t-22.5 261zM176 481 q0 -150 17.5 -239.5t70.5 -138t154.5 -63.5t267.5 -15h37q174 0 279.5 15t163 64.5t77 139.5t19.5 237v27q0 150 -19.5 240t-78 136t-164 60t-277.5 14h-37q-168 0 -268.5 -14t-154.5 -61t-70.5 -136.5t-16.5 -238.5v-27z" />
<glyph unicode="e" horiz-adv-x="1441" d="M131 481v27q0 162 24.5 258t90 148.5t181.5 68.5t298 16h37q168 0 273.5 -14t166 -57t82 -122t21.5 -208v-86h-1127v-31q0 -150 18.5 -239.5t76 -138t165 -63.5t287.5 -15h37q156 0 255 12t154.5 44t76 89t20.5 147v21h45v-21q0 -102 -26.5 -166.5t-89 -101.5t-169 -51 t-266.5 -14h-37q-188 0 -304 16t-180.5 69.5t-87 150.5t-22.5 261zM178 553h1082v45q0 113 -16.5 183.5t-69 110.5t-150.5 53t-262 13h-37q-178 0 -284.5 -16t-163 -60t-76 -124t-23.5 -205z" />
<glyph unicode="f" horiz-adv-x="598" d="M27 942v41h217v113q0 92 14 152.5t48 96t91.5 49t143.5 13.5q33 0 65.5 -2t67.5 -8v-39q-29 4 -64 7t-65 3q-80 0 -130 -10t-78 -40t-38 -83t-10 -139v-113h315v-41h-315v-942h-45v942h-217z" />
<glyph unicode="g" horiz-adv-x="1482" d="M133 522v27q0 150 22.5 239t83 136t169 61t280.5 14h37q131 0 223 -9t153.5 -31.5t98.5 -59.5t60 -94h4v178h45v-864q0 -164 -23.5 -259.5t-89.5 -145.5t-183.5 -64.5t-303.5 -14.5h-54q-147 0 -245.5 12.5t-157.5 45.5t-84 91t-25 153v22h45v-20q0 -74 16.5 -124.5 t65.5 -81t141.5 -44t243.5 -13.5h54q178 0 286.5 12.5t169 57.5t80 134t19.5 243v139h-4q-18 -53 -52 -91t-95.5 -61.5t-155 -33.5t-232.5 -10h-37q-172 0 -280.5 16t-169 64.5t-83 138.5t-22.5 237zM178 522q0 -135 16.5 -216t70.5 -126t154.5 -59.5t268.5 -14.5h37 q174 0 279.5 16.5t163 62.5t77 127t19.5 210v27q0 125 -19.5 205t-78 126t-164 62t-277.5 16h-37q-168 0 -268.5 -14t-154.5 -57t-70.5 -124t-16.5 -214v-27z" />
<glyph unicode="h" horiz-adv-x="1472" d="M178 0v1393h45v-625h2q23 55 55.5 99t92 73t151.5 44t232 15h37q154 0 253 -16t157.5 -59t81 -120t22.5 -200v-604h-45v565q0 123 -16.5 200t-68 120t-143.5 58t-241 15h-37q-133 0 -232.5 -15t-166 -58t-100.5 -119t-34 -197v-569h-45z" />
<glyph unicode="i" d="M176 1260v133h49v-133h-49zM178 0v983h45v-983h-45z" />
<glyph unicode="j" horiz-adv-x="397" d="M-29 -307q29 -4 45.5 -4h32.5q37 0 61.5 10t39 36.5t20.5 73t6 117.5v1057h45v-1057q0 -147 -33.5 -210.5t-134.5 -63.5h-36.5t-45.5 4v37zM174 1260v133h49v-133h-49z" />
<glyph unicode="k" horiz-adv-x="1206" d="M178 0v1393h45v-844h84l717 434h76l-752 -455l854 -528h-78l-827 510h-74v-510h-45z" />
<glyph unicode="l" d="M178 0v1393h45v-1393h-45z" />
<glyph unicode="m" horiz-adv-x="2310" d="M178 0v983h45v-215h2q20 55 55 98t90.5 73t135.5 45t188 15h33q135 0 217 -16t130 -49t68.5 -83t31.5 -118h2q14 49 43.5 97.5t84 86t139.5 60t208 22.5h37q141 0 231 -17t140 -60t68.5 -118t18.5 -190v-614h-45v565q0 125 -14 203t-57 120t-125 56t-217 14h-37 q-111 0 -197 -19t-146.5 -66.5t-91 -126t-30.5 -199.5v-547h-45v567q0 129 -17.5 207t-63.5 119t-127 53t-206 12h-33q-109 0 -195.5 -17t-148 -61t-94.5 -120t-33 -191v-569h-45z" />
<glyph unicode="n" horiz-adv-x="1472" d="M178 0v983h45v-215h2q23 55 55.5 99t92 73t151.5 44t232 15h37q154 0 253 -16t157.5 -59t81 -120t22.5 -200v-604h-45v565q0 123 -16.5 200t-68 120t-143.5 58t-241 15h-37q-133 0 -232.5 -15t-166 -58t-100.5 -119t-34 -197v-569h-45z" />
<glyph unicode="o" horiz-adv-x="1490" d="M131 481v27q0 164 22.5 261t88 148.5t181.5 66.5t304 15h37q186 0 303 -15t182.5 -66.5t88 -148.5t22.5 -261v-27q0 -164 -22.5 -261t-88 -150.5t-182.5 -69.5t-303 -16h-37q-188 0 -304 16t-181.5 69.5t-88 150.5t-22.5 261zM176 481q0 -150 17.5 -239.5t76 -138 t167 -63.5t290.5 -15h37q182 0 291.5 15t167 63.5t75 138.5t17.5 239v27q0 150 -17.5 239t-75 136t-167 61t-291.5 14h-37q-184 0 -292.5 -14t-166 -61t-75 -136.5t-17.5 -238.5v-27z" />
<glyph unicode="p" horiz-adv-x="1484" d="M178 -348v1331h45v-174h4q18 53 52 90t95.5 59.5t155 31.5t232.5 9h37q172 0 280.5 -16t169 -67.5t83 -148.5t22.5 -259v-27q0 -164 -22.5 -262t-83 -150.5t-169 -68.5t-280.5 -16h-37q-131 0 -223.5 9t-153.5 31.5t-99 59.5t-59 94h-4v-526h-45zM223 481 q0 -147 19.5 -237t78 -139.5t164 -64.5t277.5 -15h37q168 0 268 15t153.5 63.5t71 138.5t17.5 239v27q0 150 -17.5 239t-71 136t-154.5 61t-267 14h-37q-174 0 -279.5 -13t-163 -60t-77 -136.5t-19.5 -240.5v-27z" />
<glyph unicode="q" horiz-adv-x="1484" d="M131 481v27q0 162 22.5 259t83 149.5t169 67.5t280.5 15h37q139 0 232.5 -9t154.5 -31.5t95 -59.5t52 -90h5v174h45v-1331h-45v526h-5q-23 -57 -59.5 -94t-98 -59.5t-153.5 -31.5t-223 -9h-37q-172 0 -280.5 16t-169 68.5t-83 150.5t-22.5 262zM176 481 q0 -150 16.5 -239.5t70.5 -138t154.5 -63.5t268.5 -15h37q172 0 277.5 15t164 63.5t78 138.5t19.5 239v27q0 150 -19.5 239t-77 136t-163 61t-279.5 14h-37q-168 0 -268.5 -14t-154.5 -61t-70.5 -136.5t-16.5 -238.5v-27z" />
<glyph unicode="r" horiz-adv-x="1232" d="M178 0v983h45v-215h2q25 61 61 104t91 72t133 42t188 13h25q152 0 243 -12t139 -46t63.5 -92t15.5 -151v-39h-45v31q0 86 -14.5 139.5t-58.5 82t-126 37.5t-217 9h-25q-111 0 -198.5 -17t-149 -62t-94.5 -120t-33 -190v-569h-45z" />
<glyph unicode="s" horiz-adv-x="1404" d="M123 276v19h45v-19q0 -80 15.5 -129t70.5 -76.5t161.5 -36.5t289.5 -9h75q145 0 233.5 12t136.5 39.5t63.5 70.5t15.5 103v20q0 68 -16.5 110t-69.5 65.5t-157.5 32.5t-278.5 9q-182 0 -290 12.5t-164 40t-73.5 75t-17.5 116.5v27q0 68 19.5 114t74.5 74.5t152.5 40.5 t253.5 12h55q164 0 265 -12t157.5 -45t76 -88t19.5 -143v-21h-43v21q0 74 -16.5 122t-66.5 75.5t-143.5 38.5t-248.5 11h-55q-147 0 -236.5 -10t-138.5 -33.5t-64.5 -61.5t-15.5 -95v-29q0 -59 15.5 -97t66.5 -61.5t150.5 -33t269.5 -9.5q184 0 295.5 -10t171 -38.5t79 -79 t19.5 -130.5v-20q0 -74 -20.5 -125t-76 -82t-151.5 -45t-246 -14h-75q-188 0 -303 10t-176.5 41t-82 88t-20.5 153z" />
<glyph unicode="t" horiz-adv-x="1089" d="M25 942v41h202v256h45v-256h744v-41h-744v-520q0 -137 11.5 -217t43 -120t91 -50t157.5 -10h48q113 0 179 16t101 53t45 97.5t10 148.5v111h46v-113q0 -109 -17.5 -177.5t-60.5 -107.5t-117 -54t-186 -15h-48q-109 0 -176 12t-106 57t-52.5 133t-13.5 240v516h-202z" />
<glyph unicode="u" horiz-adv-x="1462" d="M156 379v604h45v-565q0 -123 14 -200t62.5 -120t141.5 -58t251 -15h37q131 0 231 15t166.5 58t100.5 119t34 197v569h45v-983h-45v215h-2q-23 -55 -55.5 -99t-92 -73t-151.5 -44t-231 -15h-37q-160 0 -259.5 14t-156.5 57t-77.5 121t-20.5 203z" />
<glyph unicode="v" horiz-adv-x="1265" d="M12 983h51l558 -940h6l575 940h51l-608 -983h-47z" />
<glyph unicode="w" horiz-adv-x="1941" d="M18 983h48l434 -932h6l438 932h53l439 -932h6l434 932h47l-461 -983h-47l-442 948h-4l-443 -948h-47z" />
<glyph unicode="x" horiz-adv-x="1286" d="M25 0l587 508l-544 475h61l514 -448l514 448h62l-545 -475l588 -508h-64l-555 481l-555 -481h-63z" />
<glyph unicode="y" horiz-adv-x="1243" d="M12 983h51l592 -946h2l525 946h49l-469 -842q-90 -162 -154.5 -258t-124 -147t-123 -67.5t-151.5 -16.5q-31 0 -65.5 1t-57.5 3v41q23 -2 57.5 -3t63.5 -1q74 0 127 10t100 43t95.5 95.5t109.5 166.5h-18z" />
<glyph unicode="z" horiz-adv-x="1140" d="M61 0v53l981 887v2h-948v41h998v-51l-983 -889v-2h981v-41h-1029z" />
<glyph unicode="{" horiz-adv-x="655" d="M82 686v33q82 0 106.5 56t24.5 161v229q0 70 10 117t37 75.5t72 40t114 11.5h48v-41h-70q-51 0 -84 -10t-51.5 -32.5t-25.5 -62.5t-7 -98v-223q0 -113 -25.5 -169t-103.5 -68v-5q78 -12 103.5 -68.5t25.5 -168.5v-236q0 -59 7 -98t25.5 -61.5t51.5 -32.5t84 -10h70v-41 h-48q-70 0 -114.5 11t-71.5 39.5t-37 75t-10 117.5v242q0 104 -24.5 160.5t-106.5 56.5z" />
<glyph unicode="|" horiz-adv-x="618" d="M287 -143v1679h45v-1679h-45z" />
<glyph unicode="}" horiz-adv-x="655" d="M162 -16v41h69q51 0 84 10t51.5 32.5t25.5 61.5t7 98v236q0 113 26 169t103 68v5q-78 12 -103.5 68t-25.5 169v223q0 57 -7 97.5t-25.5 63t-51 32.5t-84.5 10h-69v41h47q70 0 115 -11.5t71.5 -40t36.5 -75.5t10 -117v-229q0 -104 25 -160.5t106 -56.5v-33 q-82 0 -106.5 -56.5t-24.5 -160.5v-242q0 -72 -10 -118t-36.5 -74.5t-71.5 -39.5t-115 -11h-47z" />
<glyph unicode="~" horiz-adv-x="1325" d="M168 532q57 111 124.5 155t145.5 44t133.5 -28.5t106.5 -63.5q47 -31 96 -56.5t115 -25.5q84 0 136 50t95 126l35 -18q-53 -100 -117.5 -149.5t-150.5 -49.5q-78 0 -133.5 27.5t-104.5 62.5q-47 33 -98 58.5t-117 25.5q-78 0 -132 -47t-99 -129z" />
<glyph unicode="&#xa1;" horiz-adv-x="446" d="M197 846v137h53v-137h-53zM203 -410v1100h41v-1100h-41z" />
<glyph unicode="&#xa2;" horiz-adv-x="1464" d="M139 662v26q0 162 22.5 258t85 148.5t174 69t292.5 16.5v213h45v-213q170 0 278.5 -11.5t170 -47.5t85 -99.5t23.5 -167.5v-14h-45v14q0 92 -18.5 148.5t-73 87t-154.5 40t-266 9.5v-934q164 0 266 12t158.5 44t77 89.5t20.5 147.5v20h45v-20q0 -102 -25.5 -167 t-90 -101.5t-174 -51t-277.5 -14.5v-250h-45v250q-180 0 -292 18.5t-174.5 70.5t-85 150.5t-22.5 258.5zM184 662q0 -147 18.5 -236.5t74 -138.5t160 -65.5t276.5 -16.5v934q-176 0 -280.5 -16.5t-160 -63.5t-72 -135t-16.5 -236v-26z" />
<glyph unicode="&#xa3;" horiz-adv-x="1740" d="M115 641v41h235q0 168 7.5 288t29 200.5t62 128t108.5 72t166 31.5t235 7h37q168 0 276.5 -13.5t171 -55.5t86 -120.5t23.5 -211.5v-29h-45v29q0 119 -19.5 190.5t-75.5 109.5t-156.5 49t-260.5 11h-37q-129 0 -222 -6t-155.5 -28.5t-99.5 -67.5t-56 -121t-24.5 -189.5 t-5.5 -273.5h744v-41h-744q0 -166 -7 -271.5t-26.5 -170t-52.5 -97t-82 -55.5v-6h1422v-41h-1493v49q66 20 104.5 58t58 106t25.5 171t6 257h-235z" />
<glyph unicode="&#xa4;" horiz-adv-x="1536" d="M205 94l196 197q-59 66 -90.5 152.5t-31.5 191.5q0 100 30.5 184t83.5 150l-188 186l33 33l186 -187q66 61 153 96.5t193 35.5q104 0 191.5 -34t152.5 -95l184 184l33 -33l-184 -184q55 -66 86 -150t31 -186q0 -104 -33 -193.5t-92 -154.5l192 -193l-31 -33l-194 193 q-66 -57 -150 -89t-186 -32t-186 33t-150 92l-198 -197q-8 8 -15.5 16.5t-15.5 16.5zM324 635q0 -96 30.5 -180t89 -146.5t140.5 -99.5t186 -37t187 37t141.5 99.5t89.5 146.5t31 180q0 94 -31 178t-89.5 146.5t-141.5 98.5t-187 36t-186 -36t-140.5 -98.5t-89 -146.5 t-30.5 -178z" />
<glyph unicode="&#xa5;" horiz-adv-x="1712" d="M70 1393h61l725 -789h4l721 789h61l-530 -576h442v-41h-479l-196 -213v-47h675v-41h-675v-475h-45v475h-676v41h676v47l-197 213h-479v41h440z" />
<glyph unicode="&#xa6;" horiz-adv-x="618" d="M287 -143v673h45v-673h-45zM287 874v662h45v-662h-45z" />
<glyph unicode="&#xa7;" horiz-adv-x="1675" d="M135 -29h45v-28q0 -82 20.5 -136.5t85 -87t186.5 -46t327 -13.5h63q205 0 326 12.5t185.5 40t84 74.5t19.5 119v28q0 82 -16.5 135.5t-77 82t-175 40t-311.5 11.5h-131q-188 0 -302 15t-175.5 51t-82 96.5t-20.5 150.5v37q0 74 16.5 122t54.5 77.5t99.5 46t151.5 26.5v2 q-104 4 -166.5 19.5t-97.5 47.5t-46.5 81t-11.5 121v20q0 92 26 149.5t96.5 89t194.5 43t322 11.5h37q207 0 338 -10t206 -45t102.5 -104.5t27.5 -186.5v-29h-45v29q0 102 -24.5 162.5t-93 92.5t-191.5 41t-320 9h-37q-190 0 -307 -9t-180.5 -37t-85 -77t-21.5 -129v-18 q0 -76 16.5 -123t72 -75t161 -38t285.5 -10h131q199 0 321.5 -11.5t190.5 -45t90.5 -95t22.5 -161.5v-29q0 -70 -11.5 -121t-43 -85t-90 -52.5t-152.5 -24.5v-2q98 -8 156.5 -27.5t89 -53t41 -85t10.5 -125.5v-28q0 -86 -26 -141.5t-97.5 -88t-200.5 -45t-336 -12.5h-63 q-213 0 -344 14.5t-202 51t-94.5 99t-23.5 159.5v28zM231 518q0 -76 16.5 -128t72 -85t161 -47t285.5 -14h96q209 0 331 10t184.5 39t81 81t18.5 136v29q0 82 -16.5 135t-77 83.5t-175 42t-311.5 11.5h-51q-203 0 -324 -14.5t-185.5 -45t-85 -79.5t-20.5 -119v-35z" />
<glyph unicode="&#xa8;" horiz-adv-x="1024" d="M326 1260v133h49v-133h-49zM649 1260v133h49v-133h-49z" />
<glyph unicode="&#xa9;" horiz-adv-x="2007" d="M164 676v41q0 162 11 276.5t43 191.5t89.5 122t147.5 67.5t218 28.5t302 6h57q174 0 302 -6t218 -28.5t147.5 -67.5t89.5 -122t43 -191.5t11 -276.5v-41q0 -162 -11 -276.5t-43 -191.5t-89.5 -122t-147.5 -67.5t-218 -28.5t-302 -6h-57q-174 0 -302 6t-218 28.5 t-147.5 67.5t-89.5 122t-43 191.5t-11 276.5zM209 684q0 -156 10 -266.5t39 -183t81 -114.5t137 -63.5t208 -26.5t291 -5h57q168 0 291 5t208 26.5t137 63.5t81 114.5t39 182t10 267.5v25q0 156 -10 266t-39 183t-81 115t-137 63.5t-208 26.5t-291 5h-57q-168 0 -291 -5 t-208 -26.5t-137 -63.5t-81 -115t-39 -183.5t-10 -265.5v-25zM514 694v21q0 135 18.5 214t71.5 121t147.5 54t247.5 12h29q131 0 217 -9t136.5 -38t69.5 -81t19 -138v-16h-45v16q0 74 -15 118t-58 67.5t-121 31.5t-203 8h-29q-147 0 -234 -11t-133 -49t-59.5 -109.5 t-13.5 -190.5v-21q0 -119 13.5 -190.5t59.5 -110.5t133 -51t234 -12h29q125 0 204 9t124 35.5t61.5 70.5t16.5 116v23h45v-23q0 -84 -21.5 -136t-74 -83t-138.5 -42t-217 -11h-29q-154 0 -248 13t-147 56t-71.5 123t-18.5 213z" />
<glyph unicode="&#xaa;" horiz-adv-x="907" d="M111 952v11q0 53 15 86.5t51 53t92.5 27t138.5 7.5h24q86 0 139.5 -4.5t85 -13.5t48 -24.5t30.5 -35.5h2v47q0 88 -7 138t-34.5 74.5t-80 31t-144.5 6.5h-20q-84 0 -137.5 -6.5t-84 -21.5t-42 -41.5t-11.5 -69.5v-19h-39v21q0 53 16.5 86.5t54.5 53t97.5 27t145.5 7.5h20 q98 0 157.5 -7.5t92.5 -36t44 -85t11 -156.5v-332h-39v76h-2q-16 -23 -35.5 -39t-51.5 -26.5t-80 -14.5t-122 -4h-22q-98 0 -159.5 8t-95.5 28.5t-46 56.5t-12 91zM150 948q0 -41 10 -68.5t39.5 -44t84 -23.5t140.5 -7h22q86 0 142.5 7t89.5 23.5t46 45t13 69.5v11 q0 45 -14 71.5t-49 42t-94.5 20.5t-147.5 5h-24q-80 0 -131.5 -6.5t-79 -22.5t-37.5 -44t-10 -71v-8z" />
<glyph unicode="&#xab;" horiz-adv-x="811" d="M115 555l231 412l35 -21l-221 -391l221 -389l-35 -21zM422 555l231 412l35 -21l-221 -391l221 -389l-35 -21z" />
<glyph unicode="&#xac;" horiz-adv-x="1325" d="M172 776v41h981v-543h-45v502h-936z" />
<glyph unicode="&#xad;" horiz-adv-x="929" d="M143 498v41h643v-41h-643z" />
<glyph unicode="&#xae;" horiz-adv-x="1429" d="M164 963v20q0 137 20.5 219t79 125t162.5 55.5t272 12.5h33q168 0 272.5 -12.5t163 -55.5t79 -125t20.5 -219v-20q0 -137 -20.5 -220.5t-79 -127.5t-163 -57t-272.5 -13h-33q-168 0 -272 13t-162.5 57t-79 127t-20.5 221zM207 963q0 -127 15.5 -201t66.5 -114t148.5 -52 t260.5 -12h33q164 0 261.5 12t148.5 51t66.5 114t15.5 202v20q0 125 -15.5 198.5t-66.5 112.5t-148.5 50.5t-261.5 11.5h-33q-164 0 -261 -11.5t-148 -50.5t-66.5 -112.5t-15.5 -198.5v-20zM451 717v506h360q55 0 92 -4.5t58.5 -19.5t29.5 -43t8 -73v-18q0 -59 -29.5 -83 t-70.5 -30v-2q53 -10 75.5 -35.5t22.5 -101.5v-96h-41v65q0 53 -5 83t-26.5 45.5t-63.5 18.5t-116 3h-253v-215h-41zM492 965h311q90 0 121.5 22.5t31.5 73.5v16q0 37 -6 59.5t-22.5 35t-48 15.5t-80.5 3h-307v-225z" />
<glyph unicode="&#xaf;" horiz-adv-x="1024" d="M276 1300v41h472v-41h-472z" />
<glyph unicode="&#xb0;" horiz-adv-x="827" d="M115 1169q0 63 22.5 117.5t62.5 94.5t95 62.5t119 22.5q63 0 118.5 -22.5t95.5 -62.5t62.5 -94t22.5 -118q0 -63 -22.5 -117.5t-62.5 -94t-95.5 -62.5t-118.5 -23t-118.5 23t-95.5 62.5t-62.5 94t-22.5 117.5zM160 1169q0 -55 18.5 -102t52 -81t81 -53.5t102.5 -19.5 t101 19.5t80 53.5t53.5 81t19.5 102t-19.5 102.5t-53.5 81t-80 53t-101 19.5t-102.5 -19.5t-81 -53t-52 -80.5t-18.5 -103z" />
<glyph unicode="&#xb1;" horiz-adv-x="1325" d="M172 0v41h981v-41h-981zM172 639v41h463v401h45v-401h473v-41h-473v-393h-45v393h-463z" />
<glyph unicode="&#xb2;" horiz-adv-x="1040" d="M90 928v82q0 88 17.5 138t67.5 77.5t142.5 37t241.5 13.5q106 2 176 9t109 26.5t54 56.5t15 100v21q0 53 -12 87t-50 52.5t-108.5 25.5t-189.5 7h-23q-115 0 -185.5 -5t-108 -24.5t-50 -57.5t-12.5 -101v-21h-41v21q0 76 16.5 119.5t60.5 67t122 31t198 7.5h23 q127 0 206 -9.5t122 -32t58 -63.5t15 -104v-21q0 -78 -21.5 -123t-68.5 -68.5t-122.5 -30.5t-184.5 -9q-150 -4 -234.5 -12t-127.5 -32t-53.5 -67t-10.5 -118v-43h836v-37h-877z" />
<glyph unicode="&#xb3;" horiz-adv-x="1050" d="M86 1145v22h41v-22q0 -63 11.5 -101t51 -57.5t117.5 -25t211 -5.5h39q125 0 197.5 7.5t111.5 28t50.5 53t11.5 85.5v19q0 45 -9.5 75.5t-36 48t-74.5 25t-126 7.5h-303v36h303q72 0 115 8.5t66.5 26t30.5 46t7 69.5v22q0 43 -13.5 71t-50 45.5t-104 24.5t-176.5 7h-22 q-121 0 -194 -5t-113 -24.5t-53 -57.5t-13 -101v-23h-41v23q0 74 16.5 118.5t61.5 68t126 31t210 7.5h22q117 0 191.5 -9.5t117.5 -31t59.5 -57t16.5 -87.5v-22q0 -72 -23.5 -111t-97.5 -53v-2q37 -4 64.5 -14.5t46 -29.5t28 -51t9.5 -81v-19q0 -66 -16.5 -106.5t-60.5 -63 t-125 -31.5t-210 -9h-39q-141 0 -226 7t-131 29.5t-60.5 67.5t-14.5 121z" />
<glyph unicode="&#xb4;" horiz-adv-x="1024" d="M410 1159l274 264l33 -28l-283 -258z" />
<glyph unicode="&#xb5;" horiz-adv-x="1495" d="M178 -467v1450h45v-547q0 -123 31 -201.5t93.5 -126t157.5 -65.5t226 -18h37q129 0 223 18t156.5 63.5t93.5 120t31 187.5v569h45v-983h-45v215h-2q-20 -53 -53 -96t-89.5 -73t-143.5 -46t-216 -16h-37q-121 0 -207 13t-144 41t-95 72t-60 103h-2v-680h-45z" />
<glyph unicode="&#xb6;" horiz-adv-x="1314" d="M133 993v25q0 119 20.5 192.5t81 114.5t170 54.5t287.5 13.5h445v-1729h-45v1688h-177v-1688h-45v952h-178q-190 0 -300.5 16.5t-168 58.5t-74 115t-16.5 187z" />
<glyph unicode="&#xb7;" d="M174 477v135h53v-135h-53z" />
<glyph unicode="&#xb8;" horiz-adv-x="665" d="M98 -283l275 265l33 -29l-283 -258z" />
<glyph unicode="&#xb9;" horiz-adv-x="598" d="M102 1423l322 267h51v-762h-41v717h-6l-301 -252z" />
<glyph unicode="&#xba;" horiz-adv-x="962" d="M106 1073v19q0 100 13.5 159.5t53.5 91t111.5 41t186.5 9.5h21q115 0 186.5 -9.5t111 -41t53 -91t13.5 -159.5v-19q0 -100 -13.5 -160.5t-53 -92.5t-111.5 -42t-186 -10h-21q-115 0 -186.5 10t-111.5 42t-53.5 92.5t-13.5 160.5zM145 1073q0 -88 10.5 -140t44 -81t98 -38 t173.5 -9h21q106 0 170.5 9t99.5 38t45 81t10 140v19q0 86 -10 138t-45 79.5t-99.5 37t-170.5 9.5h-21q-109 0 -173.5 -9.5t-98 -37t-44 -79.5t-10.5 -138v-19z" />
<glyph unicode="&#xbb;" horiz-adv-x="811" d="M123 166l221 389l-221 391l35 21l231 -412l-231 -410zM430 166l221 389l-221 391l35 21l231 -412l-231 -410z" />
<glyph unicode="&#xbc;" horiz-adv-x="1900" d="M133 1126l322 267h51v-762h-41v717h-6l-301 -252zM485 0l715 1393h47l-715 -1393h-47zM918 182v51l704 529h64v-543h122v-37h-122v-182h-41v182h-727zM969 219h676v508h-7l-669 -502v-6z" />
<glyph unicode="&#xbd;" horiz-adv-x="2072" d="M133 1126l322 267h51v-762h-41v717h-6l-301 -252zM485 0l715 1393h47l-715 -1393h-47zM1063 0v82q0 88 17.5 138t67.5 78t142 37t242 13q106 2 176 9.5t108.5 26.5t54 56t15.5 101v20q0 53 -12 87t-50 52.5t-108.5 25.5t-189.5 7h-23q-115 0 -185.5 -5t-108.5 -24.5 t-50 -57.5t-12 -101v-21h-41v21q0 76 16.5 120t60.5 67.5t121.5 30.5t198.5 7h23q127 0 205.5 -9t121.5 -31.5t58.5 -63.5t15.5 -105v-20q0 -78 -21.5 -123t-68.5 -68.5t-123 -31t-184 -9.5q-150 -4 -235 -12t-128 -31.5t-53 -66.5t-10 -119v-43h835v-37h-876z" />
<glyph unicode="&#xbe;" horiz-adv-x="2355" d="M162 848v22h41v-22q0 -63 11 -101t51 -57.5t118 -25t211 -5.5h39q125 0 197.5 7.5t111.5 28t50.5 53t11.5 86.5v18q0 45 -9.5 75.5t-36 48t-74.5 25t-126 7.5h-303v36h303q72 0 114.5 8.5t66.5 26t31 46t7 69.5v23q0 43 -13.5 70.5t-50 45t-104.5 24.5t-176 7h-23 q-121 0 -193.5 -5t-112.5 -24.5t-53 -57.5t-13 -101v-23h-41v23q0 74 16 118.5t61 68t126 31t210 7.5h23q117 0 191.5 -9.5t117.5 -31t59.5 -57t16.5 -86.5v-23q0 -72 -23.5 -111t-97.5 -53v-2q37 -4 64.5 -14t46 -29.5t27.5 -51.5t9 -81v-18q0 -66 -16 -107t-60 -63.5 t-125 -31.5t-210 -9h-39q-141 0 -226 7t-131.5 29.5t-60.5 67.5t-14 121zM936 0l715 1393h47l-715 -1393h-47zM1370 182v51l705 529h63v-543h123v-37h-123v-182h-41v182h-727zM1421 219h676v508h-6l-670 -502v-6z" />
<glyph unicode="&#xbf;" horiz-adv-x="1517" d="M106 -16q0 121 20.5 193.5t76 115.5t152 62.5t247.5 33.5q82 8 131 17.5t76 28t36 48t9 78.5v29h43v-17q0 -59 -9 -97t-40 -63.5t-88.5 -40t-153.5 -22.5q-147 -14 -236 -32.5t-138.5 -56.5t-64.5 -104.5t-15 -174.5v-35q0 -104 16 -170t73.5 -101.5t167 -48t296.5 -12.5 h36q193 0 311.5 10t184.5 47t89.5 109t23.5 194v29h45v-29q0 -133 -28 -211.5t-100.5 -120.5t-199.5 -55.5t-326 -13.5h-36q-195 0 -313 14.5t-181.5 55.5t-84 113.5t-20.5 189.5v37zM848 846v137h53v-137h-53z" />
<glyph unicode="&#xc0;" horiz-adv-x="1710" d="M4 0l836 1393h75l791 -1393h-49l-195 344h-1206l-205 -344h-47zM281 385h1157l-549 971h-25zM523 1677l24 33l336 -166l-16 -22z" />
<glyph unicode="&#xc1;" horiz-adv-x="1710" d="M4 0l836 1393h75l791 -1393h-49l-195 344h-1206l-205 -344h-47zM281 385h1157l-549 971h-25zM852 1542l336 166l24 -33l-344 -155z" />
<glyph unicode="&#xc2;" horiz-adv-x="1710" d="M4 0l836 1393h75l791 -1393h-49l-195 344h-1206l-205 -344h-47zM281 385h1157l-549 971h-25zM607 1556l270 170l270 -170l-20 -26l-250 151l-250 -151z" />
<glyph unicode="&#xc3;" horiz-adv-x="1710" d="M4 0l836 1393h75l791 -1393h-49l-195 344h-1206l-205 -344h-47zM281 385h1157l-549 971h-25zM592 1561q8 45 24.5 72.5t37 44t43 22.5t43.5 6q33 0 64.5 -11.5t76.5 -39.5q53 -35 83 -47.5t52 -12.5q45 0 72 26t41 87l33 -8q-16 -86 -60.5 -115t-85.5 -29 q-33 0 -66.5 14.5t-78.5 43.5q-53 35 -81 44t-50 9q-35 0 -67 -21.5t-48 -93.5z" />
<glyph unicode="&#xc4;" horiz-adv-x="1710" d="M4 0l836 1393h75l791 -1393h-49l-195 344h-1206l-205 -344h-47zM281 385h1157l-549 971h-25zM691 1546v133h49v-133h-49zM1014 1546v133h49v-133h-49z" />
<glyph unicode="&#xc5;" horiz-adv-x="1710" d="M4 0l836 1393h75l791 -1393h-49l-195 344h-1206l-205 -344h-47zM281 385h1157l-549 971h-25zM637 1614v12q0 37 11.5 63.5t38 42t71.5 22.5t113 7h12q68 0 113 -7t71.5 -22.5t38 -42t11.5 -63.5v-12q0 -37 -11.5 -63.5t-38 -43t-71.5 -23.5t-113 -7h-12q-68 0 -113 7 t-71.5 23.5t-38 43t-11.5 63.5zM678 1614q0 -61 40 -82t153 -21h12q113 0 153 20.5t40 82.5v12q0 61 -40 80.5t-153 19.5h-12q-113 0 -153 -19t-40 -81v-12z" />
<glyph unicode="&#xc6;" horiz-adv-x="2727" d="M6 0l1163 1393h1469v-41h-1231v-604h1182v-41h-1182v-666h1229v-41h-1274v344h-1014l-289 -344h-53zM383 385h979v967h-166z" />
<glyph unicode="&#xc7;" horiz-adv-x="1925" d="M147 676v41q0 162 11.5 276.5t43 191.5t88 122t144.5 67.5t212 28.5t294 6h57q248 0 397.5 -10t230.5 -49t106.5 -117t25.5 -213v-21h-45v21q0 119 -20.5 187.5t-94 104.5t-216 46t-384.5 10h-57q-164 0 -282.5 -5t-201.5 -26.5t-134.5 -63.5t-80 -115t-38.5 -183.5 t-10 -265.5v-25q0 -156 10 -265.5t38.5 -183t80 -115.5t134.5 -63.5t201.5 -26.5t282.5 -5h57q246 0 392.5 9t222.5 45t98.5 104.5t22.5 187.5v20h45v-20q0 -135 -29 -213t-113 -116t-236.5 -48t-400.5 -10h-59q-170 0 -294 6t-212 28.5t-144.5 67.5t-88 122t-43 191.5 t-11.5 276.5zM760 -283l274 265l33 -29l-283 -258z" />
<glyph unicode="&#xc8;" horiz-adv-x="1552" d="M186 0v1393h1276v-41h-1231v-604h1182v-41h-1182v-666h1229v-41h-1274zM631 1677l24 33l336 -166l-16 -22z" />
<glyph unicode="&#xc9;" horiz-adv-x="1552" d="M186 0v1393h1276v-41h-1231v-604h1182v-41h-1182v-666h1229v-41h-1274zM666 1542l336 166l24 -33l-344 -155z" />
<glyph unicode="&#xca;" horiz-adv-x="1552" d="M186 0v1393h1276v-41h-1231v-604h1182v-41h-1182v-666h1229v-41h-1274zM555 1556l270 170l270 -170l-20 -26l-250 151l-250 -151z" />
<glyph unicode="&#xcb;" horiz-adv-x="1552" d="M186 0v1393h1276v-41h-1231v-604h1182v-41h-1182v-666h1229v-41h-1274zM631 1546v133h49v-133h-49zM954 1546v133h49v-133h-49z" />
<glyph unicode="&#xcc;" horiz-adv-x="417" d="M-126 1677l24 33l336 -166l-16 -22zM186 0v1393h45v-1393h-45z" />
<glyph unicode="&#xcd;" horiz-adv-x="417" d="M186 0v1393h45v-1393h-45zM195 1542l336 166l24 -33l-344 -155z" />
<glyph unicode="&#xce;" horiz-adv-x="417" d="M-59 1556l270 170l270 -170l-20 -26l-250 151l-250 -151zM186 0v1393h45v-1393h-45z" />
<glyph unicode="&#xcf;" horiz-adv-x="417" d="M25 1546v133h49v-133h-49zM186 0v1393h45v-1393h-45zM348 1546v133h49v-133h-49z" />
<glyph unicode="&#xd0;" horiz-adv-x="1961" d="M53 707v41h133v645h811q174 0 302 -5.5t219.5 -26t147.5 -63.5t89 -117.5t44 -188t11 -275.5v-41q0 -158 -10 -269.5t-42 -186.5t-87 -119t-146 -66.5t-220 -28.5t-308 -6h-811v707h-133zM231 41h766q174 0 300 6t211 26.5t136.5 62.5t78 112.5t34.5 177t8 258.5v25 q0 158 -10 266t-38.5 179t-82 111t-138.5 59t-208 23.5t-291 4.5h-766v-604h635v-41h-635v-666z" />
<glyph unicode="&#xd1;" horiz-adv-x="1974" d="M186 0v1393h80l1467 -1354h10v1354h45v-1393h-78l-1468 1354h-11v-1354h-45zM704 1561q8 45 24.5 72.5t37 44t43 22.5t43.5 6q33 0 64.5 -11.5t76.5 -39.5q53 -35 83 -47.5t52 -12.5q45 0 72 26t41 87l33 -8q-16 -86 -60.5 -115t-85.5 -29q-33 0 -66.5 14.5t-78.5 43.5 q-53 35 -81 44t-50 9q-35 0 -67 -21.5t-48 -93.5z" />
<glyph unicode="&#xd2;" horiz-adv-x="1978" d="M147 676v41q0 162 11.5 276.5t44.5 191.5t89 122t147 67.5t219 28.5t303 6h57q174 0 302 -6t219 -28.5t147.5 -67.5t89 -122t44 -191.5t11.5 -276.5v-41q0 -162 -11.5 -276.5t-44 -191.5t-89 -122t-147.5 -67.5t-219 -28.5t-302 -6h-57q-174 0 -302.5 6t-219.5 28.5 t-147 67.5t-89 122t-44.5 191.5t-11.5 276.5zM193 684q0 -156 10 -266.5t38.5 -183t82 -114.5t138.5 -63.5t208 -26.5t291 -5h57q168 0 291 5t208 26.5t138 63.5t81.5 114.5t39 182t10.5 267.5v25q0 156 -10.5 266t-39 183t-81.5 115t-138 63.5t-208 26.5t-291 5h-57 q-168 0 -291 -5t-208 -26.5t-138.5 -63.5t-82 -115t-38.5 -183.5t-10 -265.5v-25zM799 1677l24 33l336 -166l-16 -22z" />
<glyph unicode="&#xd3;" horiz-adv-x="1978" d="M147 676v41q0 162 11.5 276.5t44.5 191.5t89 122t147 67.5t219 28.5t303 6h57q174 0 302 -6t219 -28.5t147.5 -67.5t89 -122t44 -191.5t11.5 -276.5v-41q0 -162 -11.5 -276.5t-44 -191.5t-89 -122t-147.5 -67.5t-219 -28.5t-302 -6h-57q-174 0 -302.5 6t-219.5 28.5 t-147 67.5t-89 122t-44.5 191.5t-11.5 276.5zM193 684q0 -156 10 -266.5t38.5 -183t82 -114.5t138.5 -63.5t208 -26.5t291 -5h57q168 0 291 5t208 26.5t138 63.5t81.5 114.5t39 182t10.5 267.5v25q0 156 -10.5 266t-39 183t-81.5 115t-138 63.5t-208 26.5t-291 5h-57 q-168 0 -291 -5t-208 -26.5t-138.5 -63.5t-82 -115t-38.5 -183.5t-10 -265.5v-25zM820 1542l336 166l24 -33l-344 -155z" />
<glyph unicode="&#xd4;" horiz-adv-x="1978" d="M147 676v41q0 162 11.5 276.5t44.5 191.5t89 122t147 67.5t219 28.5t303 6h57q174 0 302 -6t219 -28.5t147.5 -67.5t89 -122t44 -191.5t11.5 -276.5v-41q0 -162 -11.5 -276.5t-44 -191.5t-89 -122t-147.5 -67.5t-219 -28.5t-302 -6h-57q-174 0 -302.5 6t-219.5 28.5 t-147 67.5t-89 122t-44.5 191.5t-11.5 276.5zM193 684q0 -156 10 -266.5t38.5 -183t82 -114.5t138.5 -63.5t208 -26.5t291 -5h57q168 0 291 5t208 26.5t138 63.5t81.5 114.5t39 182t10.5 267.5v25q0 156 -10.5 266t-39 183t-81.5 115t-138 63.5t-208 26.5t-291 5h-57 q-168 0 -291 -5t-208 -26.5t-138.5 -63.5t-82 -115t-38.5 -183.5t-10 -265.5v-25zM719 1556l270 170l270 -170l-20 -26l-250 151l-250 -151z" />
<glyph unicode="&#xd5;" horiz-adv-x="1978" d="M147 676v41q0 162 11.5 276.5t44.5 191.5t89 122t147 67.5t219 28.5t303 6h57q174 0 302 -6t219 -28.5t147.5 -67.5t89 -122t44 -191.5t11.5 -276.5v-41q0 -162 -11.5 -276.5t-44 -191.5t-89 -122t-147.5 -67.5t-219 -28.5t-302 -6h-57q-174 0 -302.5 6t-219.5 28.5 t-147 67.5t-89 122t-44.5 191.5t-11.5 276.5zM193 684q0 -156 10 -266.5t38.5 -183t82 -114.5t138.5 -63.5t208 -26.5t291 -5h57q168 0 291 5t208 26.5t138 63.5t81.5 114.5t39 182t10.5 267.5v25q0 156 -10.5 266t-39 183t-81.5 115t-138 63.5t-208 26.5t-291 5h-57 q-168 0 -291 -5t-208 -26.5t-138.5 -63.5t-82 -115t-38.5 -183.5t-10 -265.5v-25zM704 1561q8 45 24.5 72.5t37 44t43 22.5t43.5 6q33 0 64.5 -11.5t76.5 -39.5q53 -35 83 -47.5t52 -12.5q45 0 72 26t41 87l33 -8q-16 -86 -60.5 -115t-85.5 -29q-33 0 -66.5 14.5t-78.5 43.5 q-53 35 -81 44t-50 9q-35 0 -67 -21.5t-48 -93.5z" />
<glyph unicode="&#xd6;" horiz-adv-x="1978" d="M147 676v41q0 162 11.5 276.5t44.5 191.5t89 122t147 67.5t219 28.5t303 6h57q174 0 302 -6t219 -28.5t147.5 -67.5t89 -122t44 -191.5t11.5 -276.5v-41q0 -162 -11.5 -276.5t-44 -191.5t-89 -122t-147.5 -67.5t-219 -28.5t-302 -6h-57q-174 0 -302.5 6t-219.5 28.5 t-147 67.5t-89 122t-44.5 191.5t-11.5 276.5zM193 684q0 -156 10 -266.5t38.5 -183t82 -114.5t138.5 -63.5t208 -26.5t291 -5h57q168 0 291 5t208 26.5t138 63.5t81.5 114.5t39 182t10.5 267.5v25q0 156 -10.5 266t-39 183t-81.5 115t-138 63.5t-208 26.5t-291 5h-57 q-168 0 -291 -5t-208 -26.5t-138.5 -63.5t-82 -115t-38.5 -183.5t-10 -265.5v-25zM803 1546v133h49v-133h-49zM1126 1546v133h49v-133h-49z" />
<glyph unicode="&#xd7;" horiz-adv-x="1325" d="M266 262l369 369l-369 368l27 27l369 -369l368 369l27 -27l-369 -368l369 -369l-29 -26l-366 366l-367 -366z" />
<glyph unicode="&#xd8;" horiz-adv-x="1978" d="M125 14l131 105q-66 74 -87.5 207t-21.5 350v41q0 162 11.5 276.5t44.5 191.5t89 122t147 67.5t219 28.5t303 6h57q141 0 252.5 -4t195.5 -17.5t145.5 -39t102.5 -68.5l146 115l24 -33l-143 -115q53 -78 71.5 -205t18.5 -325v-41q0 -162 -11.5 -276.5t-44 -191.5 t-89 -122t-147.5 -67.5t-219 -28.5t-302 -6h-57q-133 0 -240 3t-188.5 14t-142 32.5t-103.5 56.5l-137 -108zM193 684q0 -211 19 -338t81 -199l1384 1104q-39 39 -95 62.5t-136 36t-186.5 15.5t-241.5 3h-57q-168 0 -291 -5t-208 -26.5t-138.5 -63.5t-82 -115t-38.5 -183.5 t-10 -265.5v-25zM324 119q39 -33 96 -51.5t135 -27.5t178.5 -12t227.5 -3h57q168 0 291 5t208 26.5t138 63.5t81.5 114.5t39 182t10.5 267.5v25q0 193 -16.5 315.5t-65.5 194.5z" />
<glyph unicode="&#xd9;" horiz-adv-x="1916" d="M176 453v940h45v-940q0 -147 27.5 -233.5t104.5 -129.5t211 -54t349 -11h74q215 0 352.5 11t216 54t109.5 129t31 234v940h45v-940q0 -160 -33 -254.5t-119 -141.5t-235.5 -60t-382.5 -13h-41q-233 0 -381 12t-230.5 59t-112.5 140.5t-30 257.5zM748 1677l24 33l336 -166 l-16 -22z" />
<glyph unicode="&#xda;" horiz-adv-x="1916" d="M176 453v940h45v-940q0 -147 27.5 -233.5t104.5 -129.5t211 -54t349 -11h74q215 0 352.5 11t216 54t109.5 129t31 234v940h45v-940q0 -160 -33 -254.5t-119 -141.5t-235.5 -60t-382.5 -13h-41q-233 0 -381 12t-230.5 59t-112.5 140.5t-30 257.5zM805 1542l336 166l24 -33 l-344 -155z" />
<glyph unicode="&#xdb;" horiz-adv-x="1916" d="M176 453v940h45v-940q0 -147 27.5 -233.5t104.5 -129.5t211 -54t349 -11h74q215 0 352.5 11t216 54t109.5 129t31 234v940h45v-940q0 -160 -33 -254.5t-119 -141.5t-235.5 -60t-382.5 -13h-41q-233 0 -381 12t-230.5 59t-112.5 140.5t-30 257.5zM688 1556l270 170 l270 -170l-20 -26l-250 151l-250 -151z" />
<glyph unicode="&#xdc;" horiz-adv-x="1916" d="M176 453v940h45v-940q0 -147 27.5 -233.5t104.5 -129.5t211 -54t349 -11h74q215 0 352.5 11t216 54t109.5 129t31 234v940h45v-940q0 -160 -33 -254.5t-119 -141.5t-235.5 -60t-382.5 -13h-41q-233 0 -381 12t-230.5 59t-112.5 140.5t-30 257.5zM772 1546v133h49v-133 h-49zM1095 1546v133h49v-133h-49z" />
<glyph unicode="&#xdd;" horiz-adv-x="1712" d="M4 1393h62l786 -799h4l791 799h61l-834 -840v-553h-45v553zM740 1542l336 166l24 -33l-344 -155z" />
<glyph unicode="&#xde;" horiz-adv-x="1773" d="M186 0v1393h45v-267h822q209 0 331.5 -11t187 -49t84 -112.5t19.5 -201.5v-27q0 -129 -20.5 -202.5t-85 -112.5t-188.5 -49.5t-328 -10.5h-822v-350h-45zM231 391h807q209 0 327 10.5t177.5 44t73.5 99t14 176.5v35q0 113 -15.5 178t-74.5 99t-177 43t-325 9h-807v-694z " />
<glyph unicode="&#xdf;" horiz-adv-x="1507" d="M178 0v969q0 137 27.5 223t91 134t168 64.5t256.5 16.5h37q160 0 257 -12.5t151.5 -40t72.5 -72.5t18 -111v-18q0 -96 -48 -141t-150 -56v-2q92 -6 153.5 -28.5t97.5 -72.5t50 -133t14 -212v-27q0 -164 -26.5 -261t-86 -150.5t-153.5 -69.5t-227 -16h-37 q-141 0 -230.5 14t-140.5 51t-69.5 101.5t-18.5 166.5v21h45v-21q0 -90 15.5 -147t60.5 -89t126 -44t212 -12h37q129 0 216 15t138 63.5t72.5 138.5t21.5 239v27q0 150 -19.5 233.5t-72.5 124.5t-148.5 51.5t-248.5 10.5h-275v41h250q125 0 203 10t121 32.5t58 57.5t15 84 v18q0 55 -16 93.5t-64.5 61t-137.5 31.5t-236 9h-37q-156 0 -253 -18.5t-151.5 -64.5t-74 -122t-19.5 -190v-971h-45z" />
<glyph unicode="&#xe0;" horiz-adv-x="1378" d="M127 279v12q0 88 23.5 145.5t81 89t149.5 44t231 12.5h39q125 0 211 -5.5t145.5 -18.5t96.5 -35.5t61 -59.5h6v69q0 147 -13 232.5t-63.5 128.5t-148.5 54t-270 11h-33q-129 0 -212 -11t-130 -38.5t-65.5 -75t-18.5 -116.5v-21h-45v23q0 90 26.5 145.5t84 85t146.5 39.5 t214 10h33q180 0 286.5 -11t163 -58t74 -140.5t17.5 -254.5v-535h-46v117h-4q-29 -39 -66.5 -64.5t-95 -41t-138.5 -21.5t-191 -6h-37q-156 0 -255 12t-156.5 45t-79 90t-21.5 148zM172 281q0 -80 18.5 -129.5t68.5 -78t141.5 -38.5t238.5 -10h37q139 0 234.5 10t153.5 38.5 t82.5 79t24.5 128.5v10q0 84 -26.5 133t-88 75.5t-160.5 34t-245 7.5h-39q-131 0 -216 -9.5t-135 -37t-69.5 -76.5t-19.5 -129v-8zM559 1395l33 28l274 -264l-24 -22z" />
<glyph unicode="&#xe1;" horiz-adv-x="1378" d="M127 279v12q0 88 23.5 145.5t81 89t149.5 44t231 12.5h39q125 0 211 -5.5t145.5 -18.5t96.5 -35.5t61 -59.5h6v69q0 147 -13 232.5t-63.5 128.5t-148.5 54t-270 11h-33q-129 0 -212 -11t-130 -38.5t-65.5 -75t-18.5 -116.5v-21h-45v23q0 90 26.5 145.5t84 85t146.5 39.5 t214 10h33q180 0 286.5 -11t163 -58t74 -140.5t17.5 -254.5v-535h-46v117h-4q-29 -39 -66.5 -64.5t-95 -41t-138.5 -21.5t-191 -6h-37q-156 0 -255 12t-156.5 45t-79 90t-21.5 148zM172 281q0 -80 18.5 -129.5t68.5 -78t141.5 -38.5t238.5 -10h37q139 0 234.5 10t153.5 38.5 t82.5 79t24.5 128.5v10q0 84 -26.5 133t-88 75.5t-160.5 34t-245 7.5h-39q-131 0 -216 -9.5t-135 -37t-69.5 -76.5t-19.5 -129v-8zM521 1159l274 264l33 -28l-283 -258z" />
<glyph unicode="&#xe2;" horiz-adv-x="1378" d="M127 279v12q0 88 23.5 145.5t81 89t149.5 44t231 12.5h39q125 0 211 -5.5t145.5 -18.5t96.5 -35.5t61 -59.5h6v69q0 147 -13 232.5t-63.5 128.5t-148.5 54t-270 11h-33q-129 0 -212 -11t-130 -38.5t-65.5 -75t-18.5 -116.5v-21h-45v23q0 90 26.5 145.5t84 85t146.5 39.5 t214 10h33q180 0 286.5 -11t163 -58t74 -140.5t17.5 -254.5v-535h-46v117h-4q-29 -39 -66.5 -64.5t-95 -41t-138.5 -21.5t-191 -6h-37q-156 0 -255 12t-156.5 45t-79 90t-21.5 148zM172 281q0 -80 18.5 -129.5t68.5 -78t141.5 -38.5t238.5 -10h37q139 0 234.5 10t153.5 38.5 t82.5 79t24.5 128.5v10q0 84 -26.5 133t-88 75.5t-160.5 34t-245 7.5h-39q-131 0 -216 -9.5t-135 -37t-69.5 -76.5t-19.5 -129v-8zM416 1204l270 211l270 -211l-20 -26l-250 192l-250 -192z" />
<glyph unicode="&#xe3;" horiz-adv-x="1378" d="M127 279v12q0 88 23.5 145.5t81 89t149.5 44t231 12.5h39q125 0 211 -5.5t145.5 -18.5t96.5 -35.5t61 -59.5h6v69q0 147 -13 232.5t-63.5 128.5t-148.5 54t-270 11h-33q-129 0 -212 -11t-130 -38.5t-65.5 -75t-18.5 -116.5v-21h-45v23q0 90 26.5 145.5t84 85t146.5 39.5 t214 10h33q180 0 286.5 -11t163 -58t74 -140.5t17.5 -254.5v-535h-46v117h-4q-29 -39 -66.5 -64.5t-95 -41t-138.5 -21.5t-191 -6h-37q-156 0 -255 12t-156.5 45t-79 90t-21.5 148zM172 281q0 -80 18.5 -129.5t68.5 -78t141.5 -38.5t238.5 -10h37q139 0 234.5 10t153.5 38.5 t82.5 79t24.5 128.5v10q0 84 -26.5 133t-88 75.5t-160.5 34t-245 7.5h-39q-131 0 -216 -9.5t-135 -37t-69.5 -76.5t-19.5 -129v-8zM399 1229q8 45 24.5 72.5t37 44t43 22.5t43.5 6q33 0 64.5 -11t76.5 -40q53 -35 83 -47t52 -12q45 0 72 25.5t41 86.5l33 -8 q-16 -86 -60.5 -114.5t-85.5 -28.5q-33 0 -66.5 14t-78.5 43q-53 35 -81 44t-50 9q-35 0 -67 -21.5t-48 -92.5z" />
<glyph unicode="&#xe4;" horiz-adv-x="1378" d="M127 279v12q0 88 23.5 145.5t81 89t149.5 44t231 12.5h39q125 0 211 -5.5t145.5 -18.5t96.5 -35.5t61 -59.5h6v69q0 147 -13 232.5t-63.5 128.5t-148.5 54t-270 11h-33q-129 0 -212 -11t-130 -38.5t-65.5 -75t-18.5 -116.5v-21h-45v23q0 90 26.5 145.5t84 85t146.5 39.5 t214 10h33q180 0 286.5 -11t163 -58t74 -140.5t17.5 -254.5v-535h-46v117h-4q-29 -39 -66.5 -64.5t-95 -41t-138.5 -21.5t-191 -6h-37q-156 0 -255 12t-156.5 45t-79 90t-21.5 148zM172 281q0 -80 18.5 -129.5t68.5 -78t141.5 -38.5t238.5 -10h37q139 0 234.5 10t153.5 38.5 t82.5 79t24.5 128.5v10q0 84 -26.5 133t-88 75.5t-160.5 34t-245 7.5h-39q-131 0 -216 -9.5t-135 -37t-69.5 -76.5t-19.5 -129v-8zM500 1260v133h49v-133h-49zM823 1260v133h49v-133h-49z" />
<glyph unicode="&#xe5;" horiz-adv-x="1378" d="M127 279v12q0 88 23.5 145.5t81 89t149.5 44t231 12.5h39q125 0 211 -5.5t145.5 -18.5t96.5 -35.5t61 -59.5h6v69q0 147 -13 232.5t-63.5 128.5t-148.5 54t-270 11h-33q-129 0 -212 -11t-130 -38.5t-65.5 -75t-18.5 -116.5v-21h-45v23q0 90 26.5 145.5t84 85t146.5 39.5 t214 10h33q180 0 286.5 -11t163 -58t74 -140.5t17.5 -254.5v-535h-46v117h-4q-29 -39 -66.5 -64.5t-95 -41t-138.5 -21.5t-191 -6h-37q-156 0 -255 12t-156.5 45t-79 90t-21.5 148zM172 281q0 -80 18.5 -129.5t68.5 -78t141.5 -38.5t238.5 -10h37q139 0 234.5 10t153.5 38.5 t82.5 79t24.5 128.5v10q0 84 -26.5 133t-88 75.5t-160.5 34t-245 7.5h-39q-131 0 -216 -9.5t-135 -37t-69.5 -76.5t-19.5 -129v-8zM448 1296v13q0 37 11.5 63.5t38 42t71.5 22.5t113 7h12q68 0 113 -7t71.5 -22.5t38 -42t11.5 -63.5v-13q0 -37 -11.5 -63.5t-38 -42.5 t-71.5 -23.5t-113 -7.5h-12q-68 0 -113 7.5t-71.5 23.5t-38 43t-11.5 63zM489 1296q0 -61 40 -81.5t153 -20.5h12q113 0 153 20.5t40 81.5v13q0 61 -40 80.5t-153 19.5h-12q-113 0 -153 -19.5t-40 -80.5v-13z" />
<glyph unicode="&#xe6;" horiz-adv-x="2445" d="M127 283v12q0 88 25.5 144.5t83 88t149.5 43t227 11.5h39q131 0 219 -5.5t147.5 -19.5t94.5 -37.5t57 -62.5h2v75q0 143 -12 227.5t-58 128.5t-137.5 57t-246.5 13h-33q-143 0 -233.5 -10t-142.5 -36.5t-71.5 -73.5t-19.5 -121v-21h-45v23q0 94 28.5 149.5t90 84 t159 37.5t234.5 9h33q139 0 228 -9t142.5 -35.5t78 -71.5t36.5 -117h2q12 70 48 116t100.5 71.5t162 35.5t232.5 10h37q162 0 263 -14t159.5 -57t80 -122t21.5 -208v-86h-1091v-88q0 -127 22.5 -206t80.5 -122t161.5 -57t265.5 -14h37q150 0 244 12t148 44t74.5 89t20.5 147 v21h45v-21q0 -102 -26.5 -166.5t-88 -101.5t-164 -51t-253.5 -14h-37q-125 0 -217 7t-156.5 28.5t-105.5 62.5t-64 108h-2q-16 -72 -60 -112.5t-112.5 -62t-158 -26.5t-195.5 -5h-37q-158 0 -258 12t-156.5 46t-77 91t-20.5 150zM172 285q0 -80 17.5 -130.5t67.5 -80 t141 -39.5t241 -10h37q139 0 234.5 10t153.5 38.5t84 79t26 128.5v10q0 82 -27 131t-88.5 75.5t-161.5 35t-246 8.5h-39q-131 0 -216 -9.5t-135 -36t-69.5 -75.5t-19.5 -127v-8zM1217 553h1046v45q0 113 -16.5 183.5t-66.5 109.5t-145.5 53t-250.5 14h-37q-170 0 -273.5 -16 t-158.5 -60t-74.5 -124t-23.5 -205z" />
<glyph unicode="&#xe7;" horiz-adv-x="1445" d="M131 481v27q0 164 22.5 261t88 148.5t181.5 66.5t304 15h37q162 0 267.5 -11t167 -47t85 -99.5t23.5 -167.5v-15h-45v15q0 92 -19.5 148.5t-73 87t-151.5 39.5t-254 9h-37q-184 0 -292.5 -14t-166 -61t-75 -136.5t-17.5 -238.5v-27q0 -150 18.5 -239.5t77 -138t167 -63.5 t288.5 -15h37q156 0 255 12t155.5 44t77 89t20.5 147v21h45v-21q0 -102 -26.5 -166.5t-90 -101.5t-170 -51t-266.5 -14h-37q-186 0 -303 16t-181.5 69.5t-88 150.5t-23.5 261zM522 -283l275 265l32 -29l-282 -258z" />
<glyph unicode="&#xe8;" horiz-adv-x="1441" d="M131 481v27q0 162 24.5 258t90 148.5t181.5 68.5t298 16h37q168 0 273.5 -14t166 -57t82 -122t21.5 -208v-86h-1127v-31q0 -150 18.5 -239.5t76 -138t165 -63.5t287.5 -15h37q156 0 255 12t154.5 44t76 89t20.5 147v21h45v-21q0 -102 -26.5 -166.5t-89 -101.5t-169 -51 t-266.5 -14h-37q-188 0 -304 16t-180.5 69.5t-87 150.5t-22.5 261zM178 553h1082v45q0 113 -16.5 183.5t-69 110.5t-150.5 53t-262 13h-37q-178 0 -284.5 -16t-163 -60t-76 -124t-23.5 -205zM579 1395l33 28l274 -264l-24 -22z" />
<glyph unicode="&#xe9;" horiz-adv-x="1441" d="M131 481v27q0 162 24.5 258t90 148.5t181.5 68.5t298 16h37q168 0 273.5 -14t166 -57t82 -122t21.5 -208v-86h-1127v-31q0 -150 18.5 -239.5t76 -138t165 -63.5t287.5 -15h37q156 0 255 12t154.5 44t76 89t20.5 147v21h45v-21q0 -102 -26.5 -166.5t-89 -101.5t-169 -51 t-266.5 -14h-37q-188 0 -304 16t-180.5 69.5t-87 150.5t-22.5 261zM178 553h1082v45q0 113 -16.5 183.5t-69 110.5t-150.5 53t-262 13h-37q-178 0 -284.5 -16t-163 -60t-76 -124t-23.5 -205zM551 1159l274 264l33 -28l-283 -258z" />
<glyph unicode="&#xea;" horiz-adv-x="1441" d="M131 481v27q0 162 24.5 258t90 148.5t181.5 68.5t298 16h37q168 0 273.5 -14t166 -57t82 -122t21.5 -208v-86h-1127v-31q0 -150 18.5 -239.5t76 -138t165 -63.5t287.5 -15h37q156 0 255 12t154.5 44t76 89t20.5 147v21h45v-21q0 -102 -26.5 -166.5t-89 -101.5t-169 -51 t-266.5 -14h-37q-188 0 -304 16t-180.5 69.5t-87 150.5t-22.5 261zM178 553h1082v45q0 113 -16.5 183.5t-69 110.5t-150.5 53t-262 13h-37q-178 0 -284.5 -16t-163 -60t-76 -124t-23.5 -205zM449 1204l270 211l270 -211l-20 -26l-250 192l-250 -192z" />
<glyph unicode="&#xeb;" horiz-adv-x="1441" d="M131 481v27q0 162 24.5 258t90 148.5t181.5 68.5t298 16h37q168 0 273.5 -14t166 -57t82 -122t21.5 -208v-86h-1127v-31q0 -150 18.5 -239.5t76 -138t165 -63.5t287.5 -15h37q156 0 255 12t154.5 44t76 89t20.5 147v21h45v-21q0 -102 -26.5 -166.5t-89 -101.5t-169 -51 t-266.5 -14h-37q-188 0 -304 16t-180.5 69.5t-87 150.5t-22.5 261zM178 553h1082v45q0 113 -16.5 183.5t-69 110.5t-150.5 53t-262 13h-37q-178 0 -284.5 -16t-163 -60t-76 -124t-23.5 -205zM533 1260v133h49v-133h-49zM856 1260v133h49v-133h-49z" />
<glyph unicode="&#xec;" d="M-76 1395l33 28l274 -264l-24 -22zM178 0v983h45v-983h-45z" />
<glyph unicode="&#xed;" d="M178 0v983h45v-983h-45zM181 1159l274 264l33 -28l-283 -258z" />
<glyph unicode="&#xee;" d="M-67 1204l270 211l270 -211l-20 -26l-250 192l-250 -192zM178 0v983h45v-983h-45z" />
<glyph unicode="&#xef;" d="M25 1260v133h49v-133h-49zM178 0v983h45v-983h-45zM348 1260v133h49v-133h-49z" />
<glyph unicode="&#xf0;" horiz-adv-x="1490" d="M131 471v27q0 150 24.5 244t87 146t170 71.5t273.5 19.5h37q113 0 210 -10.5t173 -38t128 -76.5t75 -127h2q-12 113 -36 201t-67 155.5t-108.5 116.5t-161.5 84l-289 -139l-16 33l256 122q-111 33 -256.5 47.5t-339.5 18.5v41q213 0 371.5 -18.5t275.5 -59.5l260 127 l17 -33l-230 -112q117 -47 190.5 -120t113.5 -170t54.5 -220t14.5 -273v-57q0 -156 -22.5 -251t-88 -147.5t-182.5 -70.5t-303 -18h-37q-188 0 -304 18t-181.5 70.5t-88 147.5t-22.5 251zM176 471q0 -143 19.5 -230t78 -134.5t167 -63.5t286.5 -18h37q182 0 291.5 17 t167 65.5t75 135.5t17.5 228v27q0 131 -35 216t-106.5 135t-184 69.5t-266.5 19.5h-37q-164 0 -263 -18.5t-154.5 -67.5t-74 -135t-18.5 -219v-27z" />
<glyph unicode="&#xf1;" horiz-adv-x="1472" d="M178 0v983h45v-215h2q23 55 55.5 99t92 73t151.5 44t232 15h37q154 0 253 -16t157.5 -59t81 -120t22.5 -200v-604h-45v565q0 123 -16.5 200t-68 120t-143.5 58t-241 15h-37q-133 0 -232.5 -15t-166 -58t-100.5 -119t-34 -197v-569h-45zM467 1229q8 45 24.5 72.5t37 44 t43 22.5t43.5 6q33 0 64.5 -11t76.5 -40q53 -35 83 -47t52 -12q45 0 72 25.5t41 86.5l33 -8q-16 -86 -60.5 -114.5t-85.5 -28.5q-33 0 -66.5 14t-78.5 43q-53 35 -81 44t-50 9q-35 0 -67 -21.5t-48 -92.5z" />
<glyph unicode="&#xf2;" horiz-adv-x="1490" d="M131 481v27q0 164 22.5 261t88 148.5t181.5 66.5t304 15h37q186 0 303 -15t182.5 -66.5t88 -148.5t22.5 -261v-27q0 -164 -22.5 -261t-88 -150.5t-182.5 -69.5t-303 -16h-37q-188 0 -304 16t-181.5 69.5t-88 150.5t-22.5 261zM176 481q0 -150 17.5 -239.5t76 -138 t167 -63.5t290.5 -15h37q182 0 291.5 15t167 63.5t75 138.5t17.5 239v27q0 150 -17.5 239t-75 136t-167 61t-291.5 14h-37q-184 0 -292.5 -14t-166 -61t-75 -136.5t-17.5 -238.5v-27zM612 1395l33 28l274 -264l-24 -22z" />
<glyph unicode="&#xf3;" horiz-adv-x="1490" d="M131 481v27q0 164 22.5 261t88 148.5t181.5 66.5t304 15h37q186 0 303 -15t182.5 -66.5t88 -148.5t22.5 -261v-27q0 -164 -22.5 -261t-88 -150.5t-182.5 -69.5t-303 -16h-37q-188 0 -304 16t-181.5 69.5t-88 150.5t-22.5 261zM176 481q0 -150 17.5 -239.5t76 -138 t167 -63.5t290.5 -15h37q182 0 291.5 15t167 63.5t75 138.5t17.5 239v27q0 150 -17.5 239t-75 136t-167 61t-291.5 14h-37q-184 0 -292.5 -14t-166 -61t-75 -136.5t-17.5 -238.5v-27zM578 1159l274 264l33 -28l-283 -258z" />
<glyph unicode="&#xf4;" horiz-adv-x="1490" d="M131 481v27q0 164 22.5 261t88 148.5t181.5 66.5t304 15h37q186 0 303 -15t182.5 -66.5t88 -148.5t22.5 -261v-27q0 -164 -22.5 -261t-88 -150.5t-182.5 -69.5t-303 -16h-37q-188 0 -304 16t-181.5 69.5t-88 150.5t-22.5 261zM176 481q0 -150 17.5 -239.5t76 -138 t167 -63.5t290.5 -15h37q182 0 291.5 15t167 63.5t75 138.5t17.5 239v27q0 150 -17.5 239t-75 136t-167 61t-291.5 14h-37q-184 0 -292.5 -14t-166 -61t-75 -136.5t-17.5 -238.5v-27zM475 1204l270 211l270 -211l-20 -26l-250 192l-250 -192z" />
<glyph unicode="&#xf5;" horiz-adv-x="1490" d="M131 481v27q0 164 22.5 261t88 148.5t181.5 66.5t304 15h37q186 0 303 -15t182.5 -66.5t88 -148.5t22.5 -261v-27q0 -164 -22.5 -261t-88 -150.5t-182.5 -69.5t-303 -16h-37q-188 0 -304 16t-181.5 69.5t-88 150.5t-22.5 261zM176 481q0 -150 17.5 -239.5t76 -138 t167 -63.5t290.5 -15h37q182 0 291.5 15t167 63.5t75 138.5t17.5 239v27q0 150 -17.5 239t-75 136t-167 61t-291.5 14h-37q-184 0 -292.5 -14t-166 -61t-75 -136.5t-17.5 -238.5v-27zM460 1229q8 45 24.5 72.5t37 44t43 22.5t43.5 6q33 0 64.5 -11t76.5 -40q53 -35 83 -47 t52 -12q45 0 72 25.5t41 86.5l33 -8q-16 -86 -60.5 -114.5t-85.5 -28.5q-33 0 -66.5 14t-78.5 43q-53 35 -81 44t-50 9q-35 0 -67 -21.5t-48 -92.5z" />
<glyph unicode="&#xf6;" horiz-adv-x="1490" d="M131 481v27q0 164 22.5 261t88 148.5t181.5 66.5t304 15h37q186 0 303 -15t182.5 -66.5t88 -148.5t22.5 -261v-27q0 -164 -22.5 -261t-88 -150.5t-182.5 -69.5t-303 -16h-37q-188 0 -304 16t-181.5 69.5t-88 150.5t-22.5 261zM176 481q0 -150 17.5 -239.5t76 -138 t167 -63.5t290.5 -15h37q182 0 291.5 15t167 63.5t75 138.5t17.5 239v27q0 150 -17.5 239t-75 136t-167 61t-291.5 14h-37q-184 0 -292.5 -14t-166 -61t-75 -136.5t-17.5 -238.5v-27zM559 1260v133h49v-133h-49zM882 1260v133h49v-133h-49z" />
<glyph unicode="&#xf7;" horiz-adv-x="1325" d="M172 600v41h981v-41h-981zM590 279q0 35 20.5 56t51.5 21q29 0 51 -22t22 -55t-22.5 -55.5t-50.5 -22.5q-29 0 -50.5 22.5t-21.5 55.5zM590 963q0 33 21.5 55t50.5 22t51 -22t22 -55t-22.5 -55.5t-50.5 -22.5q-29 0 -50.5 22.5t-21.5 55.5z" />
<glyph unicode="&#xf8;" horiz-adv-x="1490" d="M113 -8l112 90q-55 55 -74.5 150.5t-19.5 248.5v27q0 164 22.5 261t88 148.5t181.5 66.5t304 15h37q195 0 311.5 -16t181.5 -72l115 93l25 -33l-111 -90q43 -53 58.5 -143.5t15.5 -229.5v-27q0 -164 -22.5 -261t-88 -150.5t-182.5 -69.5t-303 -16h-37q-176 0 -288.5 14 t-180.5 57l-121 -96zM176 481q0 -145 16.5 -233t69.5 -137l961 772q-59 47 -167 61t-292 14h-37q-184 0 -292.5 -14t-166 -61t-75 -136.5t-17.5 -238.5v-27zM297 86q59 -35 162.5 -47t267.5 -14h37q182 0 291.5 15t167 63.5t75 138.5t17.5 239v27q0 129 -12.5 212t-53.5 132 z" />
<glyph unicode="&#xf9;" horiz-adv-x="1462" d="M156 379v604h45v-565q0 -123 14 -200t62.5 -120t141.5 -58t251 -15h37q131 0 231 15t166.5 58t100.5 119t34 197v569h45v-983h-45v215h-2q-23 -55 -55.5 -99t-92 -73t-151.5 -44t-231 -15h-37q-160 0 -259.5 14t-156.5 57t-77.5 121t-20.5 203zM590 1395l33 28l274 -264 l-24 -22z" />
<glyph unicode="&#xfa;" horiz-adv-x="1462" d="M156 379v604h45v-565q0 -123 14 -200t62.5 -120t141.5 -58t251 -15h37q131 0 231 15t166.5 58t100.5 119t34 197v569h45v-983h-45v215h-2q-23 -55 -55.5 -99t-92 -73t-151.5 -44t-231 -15h-37q-160 0 -259.5 14t-156.5 57t-77.5 121t-20.5 203zM590 1159l274 264l33 -28 l-283 -258z" />
<glyph unicode="&#xfb;" horiz-adv-x="1462" d="M156 379v604h45v-565q0 -123 14 -200t62.5 -120t141.5 -58t251 -15h37q131 0 231 15t166.5 58t100.5 119t34 197v569h45v-983h-45v215h-2q-23 -55 -55.5 -99t-92 -73t-151.5 -44t-231 -15h-37q-160 0 -259.5 14t-156.5 57t-77.5 121t-20.5 203zM457 1204l270 211 l270 -211l-20 -26l-250 192l-250 -192z" />
<glyph unicode="&#xfc;" horiz-adv-x="1462" d="M156 379v604h45v-565q0 -123 14 -200t62.5 -120t141.5 -58t251 -15h37q131 0 231 15t166.5 58t100.5 119t34 197v569h45v-983h-45v215h-2q-23 -55 -55.5 -99t-92 -73t-151.5 -44t-231 -15h-37q-160 0 -259.5 14t-156.5 57t-77.5 121t-20.5 203zM541 1260v133h49v-133h-49 zM864 1260v133h49v-133h-49z" />
<glyph unicode="&#xfd;" horiz-adv-x="1243" d="M12 983h51l592 -946h2l525 946h49l-469 -842q-90 -162 -154.5 -258t-124 -147t-123 -67.5t-151.5 -16.5q-31 0 -65.5 1t-57.5 3v41q23 -2 57.5 -3t63.5 -1q74 0 127 10t100 43t95.5 95.5t109.5 166.5h-18zM519 1159l274 264l33 -28l-283 -258z" />
<glyph unicode="&#xfe;" horiz-adv-x="1484" d="M178 -348v1741h45v-584h4q18 53 52 90t95.5 59.5t155 31.5t232.5 9h37q172 0 280.5 -16t169 -67.5t83 -148.5t22.5 -259v-27q0 -164 -22.5 -262t-83 -150.5t-169 -68.5t-280.5 -16h-37q-131 0 -223.5 9t-153.5 31.5t-99 59.5t-59 94h-4v-526h-45zM223 481 q0 -147 19.5 -237t78 -139.5t164 -64.5t277.5 -15h37q168 0 268 15t153.5 63.5t71 138.5t17.5 239v27q0 150 -17.5 239t-71 136t-154.5 61t-267 14h-37q-174 0 -279.5 -13t-163 -60t-77 -136.5t-19.5 -240.5v-27z" />
<glyph unicode="&#xff;" horiz-adv-x="1243" d="M12 983h51l592 -946h2l525 946h49l-469 -842q-90 -162 -154.5 -258t-124 -147t-123 -67.5t-151.5 -16.5q-31 0 -65.5 1t-57.5 3v41q23 -2 57.5 -3t63.5 -1q74 0 127 10t100 43t95.5 95.5t109.5 166.5h-18zM461 1260v133h49v-133h-49zM784 1260v133h49v-133h-49z" />
<glyph unicode="&#x152;" horiz-adv-x="3151" d="M147 676v41q0 162 11.5 276.5t44.5 191.5t89 122t147 67.5t219 28.5t303 6h57q207 0 342 -9t220 -37t130 -79t74 -133h2v242h1276v-41h-1231v-604h1182v-41h-1182v-666h1229v-41h-1274v233h-2q-33 -82 -81 -131t-134 -75.5t-219 -34.5t-332 -8h-57q-174 0 -302.5 6 t-219.5 28.5t-147 67.5t-89 122t-44.5 191.5t-11.5 276.5zM193 684q0 -156 10 -265.5t38.5 -183t82 -115.5t138.5 -63.5t208 -26.5t291 -5h57q164 0 284.5 6t206.5 25.5t139.5 58.5t84 104.5t42 162.5t11.5 234v179q0 205 -32 319.5t-117 170.5t-234.5 69.5t-384.5 13.5h-57 q-168 0 -291 -5t-208 -26.5t-138.5 -63.5t-82 -115t-38.5 -183.5t-10 -265.5v-25z" />
<glyph unicode="&#x153;" horiz-adv-x="2600" d="M131 481v27q0 164 22.5 261t88 148.5t181.5 66.5t304 15h37q141 0 243.5 -8t171 -33.5t107.5 -76t51 -133.5h2q14 84 53.5 134t108 75.5t166.5 33.5t231 8h37q162 0 264.5 -14t161 -57t81 -122t22.5 -208v-86h-1104v-31q0 -143 16.5 -232t71.5 -139.5t161.5 -67.5 t288.5 -17h37q154 0 250 13t149.5 47t73 90t19.5 142v21h45v-21q0 -98 -25.5 -162.5t-87 -102.5t-165 -53t-259.5 -15h-37q-141 0 -240 8t-166 34.5t-102.5 77t-52.5 132.5h-2q-16 -84 -54 -133.5t-106.5 -76t-169 -34.5t-241.5 -8h-37q-188 0 -304 16t-181.5 69.5 t-88 150.5t-22.5 261zM176 481q0 -147 17.5 -237t75 -138.5t166 -64.5t292.5 -16h37q182 0 290.5 15t167 64.5t76 139.5t17.5 237v27q0 150 -19.5 239t-78 136t-167 61t-286.5 14h-37q-184 0 -292.5 -14t-166 -61t-75 -136.5t-17.5 -238.5v-27zM1360 553h1059v45 q0 115 -17.5 185.5t-70 109.5t-147.5 52t-249 13h-37q-178 0 -283.5 -16t-160.5 -60t-72.5 -124t-21.5 -205z" />
<glyph unicode="&#x178;" horiz-adv-x="1712" d="M4 1393h62l786 -799h4l791 799h61l-834 -840v-553h-45v553zM668 1546v133h49v-133h-49zM991 1546v133h49v-133h-49z" />
<glyph unicode="&#x2c6;" horiz-adv-x="1024" d="M242 1204l270 211l270 -211l-20 -26l-250 192l-250 -192z" />
<glyph unicode="&#x2dc;" horiz-adv-x="1024" d="M227 1229q8 45 24.5 72.5t37 44t43 22.5t43.5 6q33 0 64.5 -11t76.5 -40q53 -35 83 -47t52 -12q45 0 72 25.5t41 86.5l33 -8q-16 -86 -60.5 -114.5t-85.5 -28.5q-33 0 -66.5 14t-78.5 43q-53 35 -81 44t-50 9q-35 0 -67 -21.5t-48 -92.5z" />
<glyph unicode="&#x2000;" horiz-adv-x="880" />
<glyph unicode="&#x2001;" horiz-adv-x="1761" />
<glyph unicode="&#x2002;" horiz-adv-x="880" />
<glyph unicode="&#x2003;" horiz-adv-x="1761" />
<glyph unicode="&#x2004;" horiz-adv-x="587" />
<glyph unicode="&#x2005;" horiz-adv-x="440" />
<glyph unicode="&#x2006;" horiz-adv-x="293" />
<glyph unicode="&#x2007;" horiz-adv-x="293" />
<glyph unicode="&#x2008;" horiz-adv-x="220" />
<glyph unicode="&#x2009;" horiz-adv-x="352" />
<glyph unicode="&#x200a;" horiz-adv-x="97" />
<glyph unicode="&#x2010;" horiz-adv-x="929" d="M143 498v41h643v-41h-643z" />
<glyph unicode="&#x2011;" horiz-adv-x="929" d="M143 498v41h643v-41h-643z" />
<glyph unicode="&#x2012;" horiz-adv-x="929" d="M143 498v41h643v-41h-643z" />
<glyph unicode="&#x2013;" horiz-adv-x="1708" d="M0 498v41h1708v-41h-1708z" />
<glyph unicode="&#x2014;" horiz-adv-x="2469" d="M74 498v41h2322v-41h-2322z" />
<glyph unicode="&#x2018;" d="M172 1044v148q0 78 12.5 129t65.5 72v-35q-29 -14 -37 -51t-8 -115v-12h24v-136h-57z" />
<glyph unicode="&#x2019;" d="M152 1044v35q29 14 37 51t8 115v12h-25v136h57v-148q0 -78 -12 -129t-65 -72z" />
<glyph unicode="&#x201a;" d="M152 -178q29 14 37 51t8 115v12h-25v135h57v-147q0 -78 -12 -129.5t-65 -71.5v35z" />
<glyph unicode="&#x201c;" horiz-adv-x="606" d="M172 1044v148q0 78 12.5 129t65.5 72v-35q-29 -14 -37 -51t-8 -115v-12h24v-136h-57zM377 1044v148q0 78 12 129t66 72v-35q-29 -14 -37 -51t-8 -115v-12h24v-136h-57z" />
<glyph unicode="&#x201d;" horiz-adv-x="606" d="M152 1044v35q29 14 37 51t8 115v12h-25v136h57v-148q0 -78 -12 -129t-65 -72zM356 1044v35q29 14 37 51t8 115v12h-24v136h57v-148q0 -78 -12 -129t-66 -72z" />
<glyph unicode="&#x201e;" horiz-adv-x="606" d="M152 -178q29 14 37 51t8 115v12h-25v135h57v-147q0 -78 -12 -129.5t-65 -71.5v35zM356 -178q29 14 37 51t8 115v12h-24v135h57v-147q0 -78 -12 -129.5t-66 -71.5v35z" />
<glyph unicode="&#x2022;" horiz-adv-x="915" d="M246 690q0 43 16.5 82t45 67.5t67.5 45t82 16.5t82 -16.5t68.5 -45t46 -67.5t16.5 -82t-16.5 -82t-46 -67.5t-68.5 -45t-82 -16.5t-82 16.5t-67.5 45t-45 67.5t-16.5 82z" />
<glyph unicode="&#x2026;" horiz-adv-x="1204" d="M174 0v135h53v-135h-53zM575 0v135h54v-135h-54zM977 0v135h53v-135h-53z" />
<glyph unicode="&#x202f;" horiz-adv-x="352" />
<glyph unicode="&#x2039;" horiz-adv-x="503" d="M115 555l231 412l35 -21l-221 -391l221 -389l-35 -21z" />
<glyph unicode="&#x203a;" horiz-adv-x="503" d="M123 166l221 389l-221 391l35 21l231 -412l-231 -410z" />
<glyph unicode="&#x205f;" horiz-adv-x="440" />
<glyph unicode="&#x20ac;" horiz-adv-x="1792" d="M92 571v41h139v205h-139v41h141q6 193 39 303.5t115 165.5t225.5 68.5t370.5 13.5h37q199 0 320.5 -12.5t188 -52t89 -112.5t22.5 -192v-20h-45v20q0 102 -17 167t-76.5 100.5t-173.5 48t-308 12.5h-37q-217 0 -352 -12.5t-212 -62.5t-105.5 -152.5t-34.5 -282.5h1103 v-41h-1106v-205h1106v-41h-1106q4 -195 32 -304t103.5 -163.5t213 -66.5t358.5 -12h37q193 0 310.5 12t182 47t86 99.5t21.5 166.5v21h45v-21q0 -121 -26.5 -192.5t-97.5 -110.5t-196.5 -51t-322.5 -12h-39q-233 0 -377.5 14t-226.5 72.5t-112.5 176.5t-35.5 324h-139z" />
<glyph unicode="&#x2122;" horiz-adv-x="2056" d="M92 1354v39h731v-39h-348v-637h-41v637h-342zM952 717v676h80l400 -631h4l401 631h76v-676h-41v639h-10l-412 -639h-37l-409 639h-11v-639h-41z" />
<glyph unicode="&#x25fc;" horiz-adv-x="983" d="M0 0v983h983v-983h-983z" />
</font>
</defs>
</svg>
