<?xml version="1.0" standalone="no"?>
<!DOCTYPE svg PUBLIC "-//W3C//DTD SVG 1.1//EN" "http://www.w3.org/Graphics/SVG/1.1/DTD/svg11.dtd" >
<svg xmlns="http://www.w3.org/2000/svg">
<metadata></metadata>
<defs>
<font id="webfontregular" horiz-adv-x="1509" >
<font-face units-per-em="2048" ascent="1434" descent="-614" />
<missing-glyph horiz-adv-x="688" />
<glyph horiz-adv-x="0" />
<glyph unicode="&#xd;" horiz-adv-x="688" />
<glyph unicode=" "  horiz-adv-x="688" />
<glyph unicode="&#x09;" horiz-adv-x="688" />
<glyph unicode="&#xa0;" horiz-adv-x="688" />
<glyph unicode="!" horiz-adv-x="557" d="M182 0v236h191v-236h-191zM184 1393h187l-13 -998h-161z" />
<glyph unicode="&#x22;" horiz-adv-x="788" d="M160 948v502h131v-502h-131zM496 948v502h131v-502h-131z" />
<glyph unicode="#" horiz-adv-x="1525" d="M129 418v129h270l78 368h-282v129h309l71 349h138l-74 -349h397l72 349h135l-72 -349h261v-129h-285l-78 -368h297v-129h-324l-86 -418h-135l86 418h-397l-86 -418h-135l86 418h-246zM537 547h395l78 368h-396z" />
<glyph unicode="$" horiz-adv-x="1769" d="M127 395v37h184v-31q0 -86 16.5 -139t72 -80.5t161 -38t281.5 -10.5v504q-219 2 -352.5 19.5t-206 58.5t-97 111.5t-24.5 177.5v22q0 115 29.5 189.5t105.5 117.5t208 59.5t337 16.5v127h108v-127q209 -2 338 -19.5t202 -62.5t97.5 -123t24.5 -200v-35h-185v26 q0 86 -18 138.5t-69.5 80t-145.5 38t-244 10.5v-476q229 0 367.5 -18t214.5 -62t100.5 -118t24.5 -187v-22q0 -121 -31 -197t-110.5 -120t-217 -61t-348.5 -17v-150h-108v150q-240 2 -381.5 18t-215 61.5t-96 125t-22.5 206.5zM340 1006q0 -63 15.5 -105.5t66.5 -67 t150.5 -36t269.5 -11.5v476q-160 0 -258.5 -9.5t-152.5 -35t-72.5 -71.5t-18.5 -120v-20zM950 133q166 0 268.5 8.5t160 34t78 72.5t20.5 127v20q0 74 -15.5 120t-70 72.5t-159 38t-282.5 11.5v-504z" />
<glyph unicode="%" horiz-adv-x="1859" d="M141 1073v19q0 94 13.5 153.5t48.5 92t95 45t155 12.5h30q96 0 157.5 -12.5t96.5 -45t48.5 -92t13.5 -153.5v-19q0 -94 -13.5 -153.5t-48.5 -92t-96 -45t-158 -12.5h-30q-94 0 -154.5 12.5t-95.5 45t-48.5 92t-13.5 153.5zM264 1073q0 -68 6 -108.5t26.5 -63t59.5 -30 t103 -7.5h22q63 0 102.5 7.5t60 30t26.5 63.5t6 108v19q0 68 -6 108.5t-26.5 62t-59.5 28.5t-103 7h-22q-63 0 -102.5 -7t-60 -28.5t-26.5 -62.5t-6 -108v-19zM506 0l708 1393h117l-708 -1393h-117zM1061 301v18q0 94 13 153.5t48 92.5t95.5 45.5t154.5 12.5h31 q96 0 157.5 -12.5t96.5 -45.5t48 -92t13 -154v-18q0 -94 -13 -153.5t-48 -92t-96.5 -45t-157.5 -12.5h-31q-94 0 -154.5 12.5t-95.5 45t-48 92t-13 153.5zM1184 301q0 -68 6 -108.5t26.5 -63.5t59.5 -30t102 -7h23q63 0 102 7t59.5 30t26.5 63.5t6 108.5v18q0 68 -6 109 t-26.5 62.5t-59.5 28.5t-102 7h-23q-63 0 -102 -7t-59.5 -28.5t-26.5 -62.5t-6 -109v-18z" />
<glyph unicode="&#x26;" horiz-adv-x="2025" d="M133 403v27q0 86 12.5 151.5t44 109.5t89 69.5t149.5 36.5q-74 41 -111.5 96t-37.5 166v26q0 104 22.5 168t92 98.5t195.5 46t333 11.5h36q205 0 325 -12.5t182.5 -51t80 -112.5t17.5 -197v-14h-174v14q0 76 -11.5 121t-54.5 69.5t-129 33t-236 8.5h-36q-158 0 -249 -7.5 t-137.5 -28t-58.5 -59t-12 -100.5v-22q0 -37 7 -63.5t26.5 -50.5t55.5 -47.5t95 -53.5l885 -467q4 27 6 51t3 49t1 53.5v63.5v125h162v-99q0 -111 -4 -193.5t-14 -131.5l288 -152l-71 -137l-267 141q-29 -43 -70.5 -72.5t-118.5 -48t-200 -26.5t-315 -8h-37q-174 0 -298 6 t-209 22.5t-135 45t-77.5 75.5t-36 112.5t-8.5 157.5zM317 428q0 -100 13.5 -158.5t70 -89t171 -39t315.5 -8.5h31q164 0 266 5t163.5 15.5t91 28t48.5 39.5l-936 502q-80 -6 -127 -26.5t-70.5 -54.5t-30 -82t-6.5 -111v-21z" />
<glyph unicode="'" horiz-adv-x="452" d="M160 948v502h131v-502h-131z" />
<glyph unicode="(" horiz-adv-x="768" d="M127 676v41q0 244 19.5 383t71.5 207.5t142.5 85t231.5 16.5h35v-135h-33q-98 0 -156.5 -13.5t-89.5 -69.5t-40 -170t-9 -312v-25q0 -199 9 -311.5t40 -169t89.5 -69.5t156.5 -13h33v-137h-35q-94 0 -165 6t-123 28.5t-86 67.5t-54.5 122t-28.5 191.5t-8 276.5z" />
<glyph unicode=")" horiz-adv-x="768" d="M141 -16v137h33q98 0 156.5 13t89.5 69.5t40 170t9 312.5v25q0 199 -9 311.5t-40 168.5t-89.5 69.5t-156.5 13.5h-33v135h37q141 0 231.5 -16.5t141.5 -85t70.5 -206.5t19.5 -382v-43q0 -162 -8 -276.5t-27.5 -191.5t-54.5 -122t-86 -67.5t-122 -28.5t-165 -6h-37z" />
<glyph unicode="*" horiz-adv-x="1026" d="M133 901l248 123l37 -66l-228 -155zM133 1196l57 98l228 -155l-37 -66zM446 684l17 256h100l17 -256h-134zM446 1413h134l-17 -256h-100zM608 958l37 66l248 -123l-57 -98zM608 1139l228 155l57 -98l-248 -123z" />
<glyph unicode="+" horiz-adv-x="1355" d="M156 555v129h456v444h133v-444h455v-129h-455v-451h-133v451h-456z" />
<glyph unicode="," horiz-adv-x="505" d="M117 -154q59 0 78.5 20.5t19.5 76.5v57h-57v236h190v-289q0 -61 -11 -101.5t-37 -64t-71 -32.5t-112 -9v106z" />
<glyph unicode="-" horiz-adv-x="966" d="M143 442v144h680v-144h-680z" />
<glyph unicode="." horiz-adv-x="505" d="M158 0v236h190v-236h-190z" />
<glyph unicode="/" horiz-adv-x="1075" d="M125 -16l682 1425h141l-680 -1425h-143z" />
<glyph unicode="0" horiz-adv-x="1818" d="M131 676v41q0 223 25.5 359t105.5 210t228.5 98.5t392.5 24.5h51q164 0 282.5 -10t202.5 -38t136.5 -76t82 -125t40 -186.5t10.5 -256.5v-41q0 -147 -10.5 -257t-40 -186.5t-82 -125t-136.5 -76t-202.5 -37.5t-282.5 -10h-51q-244 0 -392.5 24.5t-228.5 98t-105.5 210 t-25.5 359.5zM311 684q0 -123 6.5 -212t28 -149.5t59 -96.5t102 -55t158 -25.5t222.5 -6.5h45q129 0 222 6.5t157.5 25.5t102.5 55t59.5 96.5t27.5 149.5t6 212v25q0 186 -17 294.5t-76.5 164t-173.5 70.5t-308 15h-45q-195 0 -308.5 -15t-173 -70.5t-77 -164t-17.5 -294.5 v-25z" />
<glyph unicode="1" horiz-adv-x="1116" d="M25 948l557 445h237v-1393h-180v1223h-8l-508 -410z" />
<glyph unicode="2" horiz-adv-x="1744" d="M123 95.5v53v39.5q0 160 25.5 255.5t106.5 148.5t229.5 73.5t394.5 28.5q184 6 294.5 17.5t169 40t76 83t17.5 146.5v27q0 80 -19.5 130t-77 77.5t-160 37t-268.5 9.5h-37q-178 0 -281.5 -9.5t-157.5 -40t-69.5 -87t-15.5 -150.5v-29h-176v29q0 141 25.5 226t99.5 131 t208 61.5t353 15.5h37q221 0 361.5 -16.5t220.5 -58.5t110.5 -115.5t30.5 -190.5v-45q0 -135 -32 -219t-107.5 -130t-200.5 -64.5t-309 -24.5q-158 -6 -267.5 -12.5t-183.5 -17.5t-117 -31.5t-63.5 -54.5t-26.5 -84t-6 -120v-80h1331v-145h-1513q0 16 -1 42t-1 53.5z" />
<glyph unicode="3" horiz-adv-x="1771" d="M133 401v43h180v-38q0 -90 14.5 -144.5t66.5 -83t154.5 -38t278.5 -9.5h54q201 0 318.5 8t178 35t78 78t17.5 137v29q0 68 -14.5 110.5t-53.5 66t-107.5 33t-177.5 9.5h-438v143h438q92 0 153.5 11.5t98.5 36t51.5 66.5t14.5 103v31q0 72 -17.5 118t-75 71.5t-166 35 t-290.5 9.5h-35q-164 0 -264.5 -7.5t-154.5 -34t-72.5 -82t-18.5 -149.5v-35h-176v39q0 137 26.5 219t101.5 126t207 57.5t345 13.5h47q229 0 372.5 -15.5t221.5 -54.5t105.5 -107.5t27.5 -174.5v-37q0 -74 -11.5 -126t-39 -88t-73.5 -56.5t-116 -32.5v-4q66 -10 117 -24.5 t86 -47.5t53.5 -89t18.5 -146v-39q0 -119 -29 -194t-111.5 -117t-234.5 -57t-397 -15h-62q-221 0 -357 13t-210 57t-98.5 127t-24.5 220z" />
<glyph unicode="4" horiz-adv-x="1798" d="M119 319v213l1089 861h240v-926h242v-148h-242v-319h-180v319h-1149zM295 467h973v770h-13l-960 -762v-8z" />
<glyph unicode="5" horiz-adv-x="1785" d="M143 385v33h176v-29q0 -88 17.5 -139t75 -78t166 -34t288.5 -7h52q193 0 307 10.5t172.5 42t76 89t17.5 151.5v41q0 96 -13.5 154.5t-65.5 91t-157.5 43t-287.5 10.5h-76q-143 0 -239.5 -4t-158 -16.5t-94 -38t-51.5 -68.5h-174v756h1448v-146h-1274v-477h2 q23 41 59.5 68.5t102.5 44t167 22.5t253 6h78q217 0 347 -18.5t200.5 -65.5t93 -132t22.5 -216v-57q0 -135 -26.5 -221t-108.5 -134.5t-232.5 -65.5t-398.5 -17h-61q-227 0 -365.5 13t-213 56t-99.5 122t-25 210z" />
<glyph unicode="6" horiz-adv-x="1787" d="M139 602v107q0 160 11.5 273.5t42 191t86 123.5t140.5 72t205.5 33t284.5 7h45q207 0 338 -13.5t205 -55.5t100.5 -120.5t26.5 -207.5v-33h-176v29q0 86 -18.5 136t-72.5 75.5t-151.5 34t-255.5 8.5h-37q-197 0 -313.5 -13.5t-178 -64.5t-79.5 -152.5t-18 -275.5v-68h4 q20 35 55 62.5t97.5 47t158.5 30t242 10.5h43q238 0 382 -14.5t222 -57.5t103.5 -124t25.5 -216v-35q0 -129 -25.5 -209t-104.5 -124t-223.5 -59t-379.5 -15h-52q-164 0 -281.5 6t-199.5 27.5t-131 62.5t-75.5 109.5t-36 170t-9.5 242.5zM322 475q0 -119 16 -187.5 t73.5 -103t168 -44t299.5 -9.5h39q193 0 304 9.5t167.5 39t71 82.5t14.5 139v31q0 86 -16.5 137.5t-75 79t-169 36.5t-296.5 9h-39q-166 0 -273.5 -8t-171 -30.5t-88 -62.5t-24.5 -101v-17z" />
<glyph unicode="7" horiz-adv-x="1712" d="M84 1235v158h1540v-154l-1038 -1239h-221l1044 1231v4h-1325z" />
<glyph unicode="8" horiz-adv-x="1771" d="M127 346v21q0 96 17.5 158.5t53 101.5t93 57t137.5 29v4q-78 10 -130 27.5t-84 53.5t-45 94t-13 150v21q0 113 24.5 180.5t100 104t215 49t366.5 12.5h47q227 0 366.5 -12.5t215.5 -49t100.5 -104t24.5 -180.5v-21q0 -92 -13.5 -150t-46 -93t-88 -53.5t-137.5 -28.5v-4 q84 -8 143.5 -26.5t97.5 -57.5t55.5 -101.5t17.5 -160.5v-21q0 -121 -25 -191.5t-103.5 -109.5t-223 -50t-384.5 -11h-47q-240 0 -384 11t-223 50t-103.5 109.5t-24.5 191.5zM309 375q0 -84 15.5 -132t73 -74t168 -33t300.5 -7h39q190 0 301 7t168.5 33t72.5 74t15 132v24 q0 88 -21.5 138.5t-82 74t-169 28.5t-284.5 5h-39q-176 0 -284.5 -5t-169 -28.5t-82 -74t-21.5 -138.5v-24zM336 1022q0 -78 14.5 -124t67.5 -70.5t158.5 -32t289.5 -7.5h39q184 0 289.5 6.5t159 31t68 70.5t14.5 126v18q0 74 -16.5 118t-72 68.5t-161 32t-281.5 7.5h-39 q-178 0 -282.5 -7.5t-159.5 -32t-71.5 -68.5t-16.5 -118v-18z" />
<glyph unicode="9" horiz-adv-x="1789" d="M133 967v34q0 129 26.5 208t105.5 124t223.5 60.5t377.5 15.5h49q246 0 391.5 -17.5t221.5 -80t98.5 -186.5t22.5 -334v-107q0 -160 -11.5 -273.5t-42 -191.5t-85 -124t-140.5 -71.5t-208 -32.5t-288 -7h-45q-209 0 -342 13t-207.5 55t-102 121t-27.5 208v33h174v-29 q0 -82 17 -132t72.5 -76.5t156 -36t266.5 -9.5h34q201 0 319 13.5t179.5 64.5t78.5 151.5t17 276.5v68h-4q-20 -35 -54 -63t-95.5 -47.5t-157.5 -29.5t-244 -10h-43q-238 0 -381 13.5t-222 56.5t-104.5 123.5t-25.5 218.5zM315 963q0 -90 18.5 -143.5t77 -80t168 -34 t291.5 -7.5h41q166 0 273.5 8.5t170 31t87 62.5t24.5 103v17q0 115 -15 182t-71.5 103t-167 46.5t-301.5 10.5h-41q-186 0 -296.5 -10.5t-168 -39t-74 -81t-16.5 -138.5v-30z" />
<glyph unicode=":" horiz-adv-x="534" d="M172 0v236h190v-236h-190zM172 748v235h190v-235h-190z" />
<glyph unicode=";" horiz-adv-x="534" d="M131 -154q59 0 78.5 20.5t19.5 76.5v57h-57v236h190v-289q0 -61 -11 -101.5t-36.5 -64t-70.5 -32.5t-113 -9v106zM172 748v235h190v-235h-190z" />
<glyph unicode="&#x3c;" horiz-adv-x="1355" d="M156 561v113l1044 444v-135l-862 -367v-2l862 -362v-137z" />
<glyph unicode="=" horiz-adv-x="1355" d="M156 348v129h1044v-129h-1044zM156 735v129h1044v-129h-1044z" />
<glyph unicode="&#x3e;" horiz-adv-x="1355" d="M156 115v137l862 362v2l-862 367v135l1044 -444v-113z" />
<glyph unicode="?" horiz-adv-x="1562" d="M131 954v37q0 131 27.5 213t100.5 128t200 61.5t323 15.5h37q203 0 328 -16.5t195.5 -58.5t95 -114.5t24.5 -185.5v-37q0 -102 -15 -170.5t-62.5 -113.5t-132.5 -71t-226 -42q-84 -10 -132 -19.5t-73.5 -24.5t-33 -38.5t-7.5 -60.5v-29h-170v25q0 70 10.5 116.5t43 77.5 t92 49.5t155.5 28.5q131 14 208 31.5t117 47.5t50 76t10 119v27q0 74 -15 120t-65.5 73.5t-144.5 38t-252 10.5h-37q-158 0 -253 -9.5t-146 -39t-66.5 -84t-15.5 -144.5v-37h-170zM602 0v236h191v-236h-191z" />
<glyph unicode="@" horiz-adv-x="2109" d="M137 471v123q0 154 12.5 266.5t47 189t96 124t161 74t240 34.5t334.5 8h55q199 0 342.5 -7t242.5 -31.5t158.5 -69.5t92.5 -120t43 -184.5t10 -263.5v-102q0 -115 -14 -187.5t-48 -113.5t-92.5 -55.5t-144.5 -14.5q-127 0 -183 31t-73 121h-6q-18 -47 -45 -78t-68 -50.5 t-103 -27.5t-153 -8h-36q-135 0 -221.5 13.5t-134.5 57.5t-66.5 126t-18.5 219v26q0 133 18.5 214t66.5 126t134 59.5t222 14.5h36q88 0 148.5 -5t102.5 -22.5t69 -49t49 -83.5h4v144h137v-559q0 -51 5.5 -83t19.5 -50.5t42 -24.5t73 -6q51 0 82.5 8t50 38t24.5 85t6 151v78 q0 137 -7 235.5t-32.5 164t-75.5 103.5t-136 58.5t-213 25.5t-306 5h-57q-176 0 -301 -6t-211 -27.5t-138 -62.5t-79 -108.5t-36 -168t-9 -239.5v-107q0 -137 8 -236.5t36 -166t79 -106.5t137 -60.5t212 -26.5t302 -6h57q240 0 380.5 7t213 23.5t92 43t19.5 67.5v13h123v-17 q0 -72 -32 -118t-123 -71.5t-251.5 -35.5t-419.5 -10h-59q-195 0 -336 8t-240.5 32.5t-161 72t-95 124t-46 188t-12.5 267.5zM721 553q0 -96 10 -153.5t43 -88t94.5 -40t161.5 -9.5h31q111 0 177.5 11.5t103 44t48 89t11.5 146.5v18q0 94 -14.5 151.5t-51.5 86.5t-103.5 38 t-170.5 9h-31q-100 0 -161.5 -9t-94.5 -38t-43 -86t-10 -152v-18z" />
<glyph unicode="A" horiz-adv-x="1843" d="M8 0l803 1393h246l778 -1393h-205l-166 305h-1083l-172 -305h-201zM461 446h925l-444 809h-18z" />
<glyph unicode="B" horiz-adv-x="1845" d="M170 0v1393h1008q145 0 242.5 -16.5t154.5 -56.5t80.5 -106.5t23.5 -164.5q0 -84 -16 -141.5t-47 -94.5t-73 -56.5t-93 -27.5v-2q141 -12 211 -89t70 -247q0 -113 -25 -187.5t-83 -119.5t-154.5 -64.5t-241.5 -19.5h-1057zM358 150h842q111 0 178.5 11t104.5 39.5t49 77 t12 121.5q0 74 -13 122t-47 76t-90.5 39t-142.5 11h-893v-497zM358 793h863q78 0 130 11t84.5 37.5t46 69.5t13.5 109q0 68 -13.5 112t-48 69.5t-96 34.5t-155.5 9h-824v-452z" />
<glyph unicode="C" horiz-adv-x="1951" d="M133 676v41q0 147 12.5 255.5t45 185.5t91 126t151.5 77t224 38t312 10h59q250 0 402.5 -17.5t234.5 -63.5t108.5 -127t26.5 -210v-39h-182v25q0 84 -16.5 138t-78 85t-179 42t-320.5 11h-49q-145 0 -249.5 -6t-177.5 -25.5t-117 -56.5t-67.5 -97t-31.5 -148.5t-8 -210.5 v-25q0 -121 7 -209t30.5 -147.5t66.5 -96t115.5 -57t178 -27t253.5 -6.5h49q209 0 331 11.5t184.5 42t79.5 86t17 145.5v20h185v-45q0 -127 -31 -207.5t-117 -128t-240.5 -64.5t-402.5 -17h-61q-178 0 -310.5 10t-224.5 36.5t-151.5 75t-92 125t-45 186t-12.5 259.5z" />
<glyph unicode="D" horiz-adv-x="2017" d="M170 0v1393h870q186 0 320.5 -8.5t228.5 -33t151.5 -70.5t89.5 -121t42 -183.5t10 -259.5v-41q0 -219 -26.5 -352.5t-113.5 -205t-254 -95t-448 -23.5h-870zM358 158h668q156 0 265.5 6t183 24.5t117.5 54.5t66.5 94t29 143t6.5 204v25q0 121 -7.5 208t-30 145t-66.5 93 t-117.5 53.5t-183 23.5t-263.5 5h-668v-1079z" />
<glyph unicode="E" horiz-adv-x="1619" d="M170 0v1393h1364v-156h-1176v-444h1125v-150h-1125v-485h1186v-158h-1374z" />
<glyph unicode="F" horiz-adv-x="1556" d="M170 0v1393h1337v-156h-1149v-481h1102v-154h-1102v-602h-188z" />
<glyph unicode="G" horiz-adv-x="1957" d="M133 676v41q0 221 30 357t119 211t252.5 99.5t434.5 24.5h59q248 0 399.5 -17.5t234.5 -63.5t110.5 -125t27.5 -204v-34h-182v18q0 82 -18.5 134t-80 83t-179 43t-318.5 12h-47q-219 0 -348 -16t-197 -73.5t-87 -165t-19 -291.5v-25q0 -182 19 -290.5t87 -165t197 -73 t348 -16.5h47q209 0 330 13.5t184 49.5t80.5 97t17.5 158v104h-737v144h924v-244q0 -147 -31 -239.5t-118 -145.5t-241.5 -72.5t-402.5 -19.5h-59q-270 0 -435 24.5t-254.5 98t-118 210t-28.5 359.5z" />
<glyph unicode="H" horiz-adv-x="1970" d="M170 0v1393h188v-590h1254v590h188v-1393h-188v643h-1254v-643h-188z" />
<glyph unicode="I" horiz-adv-x="528" d="M170 0v1393h188v-1393h-188z" />
<glyph unicode="J" horiz-adv-x="1519" d="M68 412v61h184v-29q0 -102 11 -162.5t51 -91t120 -40t219 -9.5h47q162 0 255.5 10.5t141.5 50.5t61 118.5t13 218.5v854h189v-865q0 -176 -22.5 -283.5t-92 -166t-197.5 -76.5t-339 -18h-60q-190 0 -305 14t-176.5 59t-80.5 130t-19 225z" />
<glyph unicode="K" horiz-adv-x="1804" d="M170 0v1393h188v-607h248l854 607h277l-977 -682l1040 -711h-293l-915 631h-234v-631h-188z" />
<glyph unicode="L" horiz-adv-x="1460" d="M170 0v1393h188v-1235h1078v-158h-1266z" />
<glyph unicode="M" horiz-adv-x="2467" d="M170 0v1393h297l772 -1196h6l764 1196h289v-1393h-187v1227h-4l-792 -1227h-156l-797 1227h-6v-1227h-186z" />
<glyph unicode="N" horiz-adv-x="2037" d="M170 0v1393h297l1206 -1231h8v1231h187v-1393h-295l-1206 1231h-11v-1231h-186z" />
<glyph unicode="O" horiz-adv-x="2027" d="M133 676v41q0 147 12.5 255.5t46 185.5t93 126t155 77t229.5 38t316 10h59q182 0 316.5 -10t228.5 -38t153.5 -77t93.5 -126t46 -185.5t12 -255.5v-41q0 -147 -12 -256t-46 -185.5t-93.5 -126t-153.5 -77t-228 -37.5t-317 -10h-59q-182 0 -316 10t-229.5 37.5t-155 77 t-93 126t-46 185t-12.5 256.5zM324 684q0 -182 19 -289.5t89 -164t201 -73t356 -16.5h49q225 0 357.5 16.5t202 73t89 164t19.5 289.5v25q0 182 -19.5 290.5t-89 165t-201.5 72.5t-358 16h-49q-225 0 -356 -16t-201 -72.5t-89 -165t-19 -290.5v-25z" />
<glyph unicode="P" horiz-adv-x="1802" d="M170 0v1393h903q203 0 328 -15.5t194.5 -60.5t94 -128t24.5 -218v-31q0 -137 -25.5 -220t-96 -129t-195.5 -61.5t-324 -15.5h-715v-514h-188zM358 668h678q170 0 268.5 9t147.5 37.5t62.5 82t13.5 143.5v29q0 90 -13.5 143t-62.5 82t-147.5 38t-268.5 9h-678v-573z" />
<glyph unicode="Q" horiz-adv-x="2045" d="M133 676v41q0 150 12.5 259t46 186t93 125t155 75t229.5 37t316 10h59q182 0 316.5 -10t228.5 -37t153.5 -75t93.5 -125t46 -186.5t12 -258.5v-41q0 -139 -10 -242.5t-39 -179.5l174 -102l-84 -136l-168 111q-43 -43 -106.5 -71.5t-151.5 -44t-202.5 -21.5t-262.5 -6h-59 q-182 0 -316 10t-229.5 36.5t-155 75t-93 125t-46 186t-12.5 259.5zM324 684q0 -121 8 -209t31.5 -148.5t68.5 -97t119 -57t181.5 -27t256.5 -6.5h49q229 0 362.5 16.5t201.5 75.5l-537 330l84 133l528 -338q18 59 24.5 139t6.5 189v25q0 182 -20.5 290.5t-89 165 t-201.5 73.5t-359 17h-49q-150 0 -257 -6t-181 -26.5t-119 -57.5t-68.5 -98t-31.5 -149.5t-8 -208.5v-25z" />
<glyph unicode="R" horiz-adv-x="1863" d="M170 0v1393h1010q162 0 265 -17.5t162.5 -61.5t83 -117t23.5 -183v-51q0 -94 -16.5 -157t-49 -102.5t-80.5 -60t-112 -33.5v-4q74 -12 123 -32.5t79 -60.5t41 -104.5t11 -162.5v-246h-188v156q0 117 -12.5 190.5t-56.5 113.5t-131 54t-235 14h-729v-528h-188zM358 678 h797q111 0 182.5 12t113.5 43t57.5 82t15.5 129v39q0 82 -14.5 133t-57.5 79t-123 37t-209 9h-762v-563z" />
<glyph unicode="S" horiz-adv-x="1828" d="M143 397v37h187v-33q0 -90 16 -142t75.5 -79.5t175.5 -36t312 -8.5h60q172 0 277.5 9.5t162.5 36t76.5 73.5t19.5 125v20q0 70 -16 116t-76.5 71.5t-175.5 36t-311 10.5q-254 0 -403.5 16.5t-226.5 59.5t-98.5 115.5t-21.5 187.5v22q0 111 27.5 183.5t103.5 115.5 t206 59.5t337 16.5h55q244 0 390.5 -17.5t224 -62.5t102.5 -124t25 -201v-33h-187v24q0 84 -16.5 135.5t-70.5 80t-159.5 39t-283.5 10.5h-47q-170 0 -272.5 -9.5t-158 -34t-73 -68.5t-17.5 -114v-20q0 -68 13.5 -111t71 -68.5t174 -34.5t321.5 -9q246 0 393.5 -17.5 t226 -60.5t104.5 -118t26 -189v-23q0 -123 -29 -201t-106.5 -122t-216 -60t-355.5 -16h-65q-176 0 -302 6t-213.5 22.5t-138.5 45t-78.5 74.5t-36 110.5t-8.5 154.5z" />
<glyph unicode="T" horiz-adv-x="1609" d="M25 1237v156h1560v-156h-686v-1237h-188v1237h-686z" />
<glyph unicode="U" horiz-adv-x="1951" d="M162 494v899h188v-867q0 -123 18.5 -198.5t80 -117.5t178 -55.5t315.5 -13.5h57q199 0 318 13.5t182.5 54.5t83 116.5t19.5 200.5v867h188v-899q0 -156 -29.5 -255.5t-115.5 -155.5t-243 -77.5t-411 -21.5h-41q-252 0 -407.5 21.5t-239.5 77.5t-112.5 155.5t-28.5 255.5z " />
<glyph unicode="V" horiz-adv-x="1832" d="M12 1393h211l695 -1229h8l684 1229h211l-787 -1393h-231z" />
<glyph unicode="W" horiz-adv-x="2617" d="M25 1393h194l486 -1225h4l510 1225h186l514 -1225h4l477 1225h193l-561 -1393h-224l-495 1186h-4l-498 -1186h-223z" />
<glyph unicode="X" horiz-adv-x="1853" d="M23 0l759 723l-690 670h242l600 -580l598 580h242l-705 -670l762 -723h-256l-657 629l-646 -629h-249z" />
<glyph unicode="Y" horiz-adv-x="1806" d="M8 1393h236l661 -721h6l654 721h233l-803 -867v-526h-188v526z" />
<glyph unicode="Z" horiz-adv-x="1767" d="M94 0v150l1319 1093v2h-1272v148h1522v-158l-1309 -1083v-2h1323v-150h-1583z" />
<glyph unicode="[" horiz-adv-x="768" d="M158 -16v1425h454v-127h-282v-1171h282v-127h-454z" />
<glyph unicode="\" horiz-adv-x="1077" d="M125 1409h143l680 -1425h-141z" />
<glyph unicode="]" horiz-adv-x="768" d="M156 -16v127h282v1171h-282v127h454v-1425h-454z" />
<glyph unicode="^" horiz-adv-x="1441" d="M59 618l588 775h146l589 -775h-184l-477 637l-481 -637h-181z" />
<glyph unicode="_" horiz-adv-x="1226" d="M0 -178h1227v-98h-1227v98z" />
<glyph unicode="`" horiz-adv-x="1024" d="M238 1339l79 109l345 -274l-50 -64z" />
<glyph unicode="a" horiz-adv-x="1429" d="M117 283v24q0 86 22.5 142.5t78.5 90t149.5 47t234.5 13.5h41q104 0 180 -4t130.5 -16.5t88 -33t56.5 -52.5h8v73q0 100 -11.5 159.5t-51 91.5t-117.5 41t-213 9h-37q-109 0 -177.5 -7t-107.5 -25.5t-53 -49t-14 -77.5v-17h-170v23q0 88 27.5 143t90 87t163 43t247.5 11 h41q182 0 291.5 -15t169 -64.5t79 -142.5t19.5 -249v-528h-174v117h-6q-27 -37 -60.5 -61.5t-85 -41t-124 -23.5t-177.5 -7h-39q-156 0 -253 14t-152 48t-74.5 92.5t-19.5 144.5zM291 291q0 -57 13 -92t54 -53.5t117 -24.5t201 -6h31q125 0 203.5 7t122.5 26.5t59.5 54.5 t15.5 88v12q0 55 -17.5 89t-63.5 51.5t-127 22.5t-208 5h-33q-117 0 -189.5 -6t-112.5 -24.5t-53 -51.5t-13 -88v-10z" />
<glyph unicode="b" horiz-adv-x="1529" d="M160 0v1393h176v-566h4q25 51 61.5 84t93 52.5t134.5 27.5t184 8h39q170 0 279.5 -18t172 -71.5t86 -149.5t23.5 -252v-27q0 -154 -22.5 -251t-85 -151t-172 -74.5t-281.5 -20.5h-31q-115 0 -194.5 8t-137 28.5t-93.5 54.5t-60 85h-4v-160h-172zM334 481 q0 -115 15.5 -185.5t62.5 -109.5t132 -51t226 -12h49q137 0 219 13.5t126 51t58.5 108.5t14.5 185v27q0 113 -14.5 182.5t-58.5 107.5t-126 50t-219 12h-49q-139 0 -225 -11t-133 -48t-62.5 -106.5t-15.5 -186.5v-27z" />
<glyph unicode="c" horiz-adv-x="1464" d="M117 477v31q0 154 24.5 250t92 149.5t186.5 72.5t307 19h59q166 0 274.5 -14t171 -53t87 -104.5t24.5 -168.5v-28h-169v12q0 68 -16.5 110t-59.5 65.5t-120 32.5t-196 9h-49q-145 0 -231 -12t-133 -50t-61.5 -107.5t-14.5 -182.5v-31q0 -113 15.5 -182.5t62.5 -107 t133 -51t229 -13.5h49q125 0 203 11t121 37t58.5 70t15.5 111v15h170v-33q0 -102 -26 -169t-90.5 -108t-173 -57t-274.5 -16h-59q-188 0 -307 19.5t-186.5 73.5t-92 150.5t-24.5 249.5z" />
<glyph unicode="d" horiz-adv-x="1527" d="M117 481v27q0 156 23.5 252t86 149.5t171 71.5t280.5 18h37q106 0 185 -8t135.5 -27.5t93 -52t59.5 -84.5h4v566h176v-1393h-170v160h-4q-25 -51 -60.5 -85t-93 -54.5t-138.5 -28.5t-193 -8h-31q-174 0 -283.5 20.5t-171 74.5t-84 151.5t-22.5 250.5zM293 481 q0 -115 14.5 -185.5t58.5 -108t126.5 -51t218.5 -13.5h49q141 0 226 12t131 51t61.5 109t15.5 186v27q0 117 -15.5 186.5t-61.5 106.5t-132 48t-225 11h-49q-137 0 -219 -12t-126 -49t-58.5 -106.5t-14.5 -184.5v-27z" />
<glyph unicode="e" horiz-adv-x="1454" d="M117 481v25q0 152 25.5 248t91 150t180 74.5t293.5 20.5h49q178 0 290.5 -20.5t176 -68.5t87 -126.5t23.5 -197.5v-119h-1042v-23q0 -102 16.5 -166.5t63.5 -99.5t133 -47t227 -12h39q127 0 206 9t122 31.5t58 61.5t15 98v17h168v-23q0 -96 -27.5 -159.5t-93 -101.5 t-172 -53t-264.5 -15h-53q-188 0 -308 20.5t-187.5 74.5t-92 151.5t-24.5 250.5zM293 588h868v30q0 72 -13 120t-56 77t-124 41t-218 12h-29q-139 0 -222 -11t-128 -42t-60.5 -85t-17.5 -142z" />
<glyph unicode="f" horiz-adv-x="704" d="M33 856v127h194v96q0 82 17.5 143.5t57.5 102.5t105.5 61.5t161.5 20.5q57 0 101.5 -3t91.5 -7v-129q-43 6 -80 8t-72 2q-72 0 -112.5 -11.5t-62 -36t-28 -64.5t-6.5 -97v-86h306v-127h-306v-856h-174v856h-194z" />
<glyph unicode="g" horiz-adv-x="1517" d="M117 518v27q0 141 23.5 229t85 138.5t169 68.5t277.5 18h30q106 0 185.5 -8t135.5 -27.5t95 -53t64 -85.5h4v158h172v-852q0 -162 -25.5 -259t-94.5 -149.5t-188.5 -70t-308.5 -17.5h-57q-158 0 -262.5 10.5t-166.5 42t-89 90t-27 152.5v25h174v-16q0 -47 13.5 -78 t53.5 -49.5t112.5 -25.5t191.5 -7h57q147 0 235.5 10t134.5 45t59.5 100.5t13.5 176.5v133h-6q-20 -47 -54 -81t-88.5 -55.5t-134.5 -31.5t-192 -10h-33q-170 0 -277.5 18t-171 68.5t-87 138.5t-23.5 227zM291 522q0 -98 14 -160.5t59.5 -97.5t126 -47t216.5 -12h45 q137 0 222 13t132 48t62.5 96.5t15.5 159.5v27q0 96 -16.5 156.5t-62.5 95.5t-131 47t-222 12h-45q-135 0 -216 -11t-126.5 -45t-59.5 -95.5t-14 -159.5v-27z" />
<glyph unicode="h" horiz-adv-x="1519" d="M160 0v1393h176v-600h4q25 51 59.5 90t89 64.5t134 38.5t196.5 13h33q154 0 254 -18t158.5 -66.5t81 -131.5t22.5 -214v-569h-176v530q0 100 -13.5 165t-55.5 99.5t-117.5 48t-200.5 13.5h-31q-115 0 -196.5 -14.5t-136 -51t-80 -100t-25.5 -160.5v-530h-176z" />
<glyph unicode="i" horiz-adv-x="495" d="M160 0v983h176v-983h-176zM160 1198v195h176v-195h-176z" />
<glyph unicode="j" horiz-adv-x="495" d="M-16 -211q23 -4 38 -4h27q31 0 52.5 6t35 24.5t18.5 50.5t5 85v1032h176v-1032q0 -170 -54.5 -238.5t-191.5 -68.5h-51.5t-54.5 4v141zM160 1198v195h176v-195h-176z" />
<glyph unicode="k" horiz-adv-x="1310" d="M160 0v1393h176v-801h94l551 391h238l-652 -457l740 -526h-244l-643 465h-84v-465h-176z" />
<glyph unicode="l" horiz-adv-x="495" d="M160 0v1393h176v-1393h-176z" />
<glyph unicode="m" horiz-adv-x="2330" d="M160 0v983h176v-190h4q20 45 54 82.5t84 65.5t122 43t170 15h29q117 0 193.5 -14t125.5 -43t75 -73t42 -105h2q18 47 51 90t85 75t129 51t186 19h32q137 0 226.5 -18t141.5 -66.5t72.5 -130.5t20.5 -209v-575h-176v530q0 102 -13.5 166t-49 99.5t-100 48t-167.5 12.5h-33 q-100 0 -171.5 -16.5t-118.5 -55.5t-69.5 -103.5t-22.5 -162.5v-518h-177v532q0 104 -14 168t-51 99t-100.5 46t-163.5 11h-29q-100 0 -173 -15.5t-121 -52t-71.5 -99t-23.5 -157.5v-532h-176z" />
<glyph unicode="n" horiz-adv-x="1519" d="M160 0v983h176v-190h4q25 51 59.5 90t89 64.5t134 38.5t196.5 13h33q154 0 254 -18t158.5 -66.5t81 -131.5t22.5 -214v-569h-176v530q0 100 -13.5 165t-55.5 99.5t-117.5 48t-200.5 13.5h-31q-115 0 -196.5 -14.5t-136 -51t-80 -100t-25.5 -160.5v-530h-176z" />
<glyph unicode="o" d="M117 477v31q0 156 23.5 252t91 149.5t186.5 71.5t309 18h57q190 0 309 -18t186 -71.5t90.5 -149.5t23.5 -252v-31q0 -156 -23.5 -252t-89.5 -150.5t-185.5 -72.5t-310.5 -18h-57q-190 0 -310 18t-186.5 72.5t-90 151t-23.5 251.5zM291 477q0 -117 14 -186.5t60.5 -106.5 t133.5 -49t232 -12h49q145 0 231.5 12t132.5 49t60.5 106.5t14.5 186.5v31q0 117 -14.5 186.5t-60.5 106.5t-132 49t-232 12h-49q-145 0 -232 -12t-133.5 -49t-60.5 -106.5t-14 -186.5v-31z" />
<glyph unicode="p" horiz-adv-x="1529" d="M160 -348v1331h172v-156h4q25 49 61.5 83t93 53.5t136.5 27.5t194 8h31q172 0 281.5 -19t172 -72.5t85 -151t22.5 -250.5v-27q0 -154 -23.5 -251t-86 -151t-172 -73.5t-279.5 -19.5h-39q-106 0 -184 9t-134.5 28.5t-93 53.5t-61.5 83h-4v-506h-176zM334 481 q0 -117 15.5 -186.5t62.5 -108.5t133 -51t225 -12h49q137 0 219 13.5t126 51t58.5 108.5t14.5 185v27q0 115 -14.5 184.5t-58.5 106.5t-127 49t-218 12h-49q-141 0 -226 -11t-132 -48t-62.5 -106.5t-15.5 -186.5v-27z" />
<glyph unicode="q" horiz-adv-x="1527" d="M117 479v27q0 154 22.5 250t84 150.5t171 73.5t283.5 19h31q113 0 193.5 -8t137 -27.5t93 -53t61.5 -83.5h4v156h170v-1331h-176v506h-4q-25 -49 -61.5 -83t-92 -53.5t-134.5 -28.5t-185 -9h-37q-172 0 -280.5 19.5t-171 73.5t-86 150.5t-23.5 251.5zM293 481 q0 -115 14.5 -185.5t58.5 -108t125.5 -51t219.5 -13.5h49q139 0 225 12t132 51t61.5 109t15.5 186v27q0 117 -15.5 186.5t-61.5 106.5t-131 48t-226 11h-49q-137 0 -219 -12t-126 -49t-58.5 -106.5t-14.5 -184.5v-27z" />
<glyph unicode="r" horiz-adv-x="1255" d="M160 0v983h174v-207h4q23 55 55.5 97t83.5 70t123 42t170 14h25q131 0 211.5 -16t125 -53t58.5 -98.5t14 -151.5q0 -14 -1 -33.5t-1 -36.5h-160v43q0 66 -11 106t-45 62.5t-96.5 30.5t-166.5 8h-21q-88 0 -156.5 -15.5t-114.5 -52t-70.5 -99t-24.5 -156.5v-537h-176z" />
<glyph unicode="s" horiz-adv-x="1437" d="M119 268v31h174v-12q0 -53 10 -86t51 -51.5t124 -25.5t229 -7h79q123 0 195 7t110.5 24.5t50 48t11.5 77.5v17q0 45 -12.5 73.5t-57.5 46t-132 24.5t-236 7q-182 0 -294 10.5t-173.5 40t-82 83t-20.5 137.5v24q0 76 24 126t82 81t159.5 43t255.5 12h63q168 0 275.5 -11 t169 -42t84 -86t22.5 -143v-23h-170v15q0 49 -12.5 79.5t-51 49t-112.5 24.5t-197 6h-55q-123 0 -195.5 -6t-110.5 -21.5t-49.5 -41t-11.5 -66.5v-18q0 -43 12.5 -70t56.5 -42t128 -21.5t225 -6.5q180 0 294 -12t178.5 -43t89 -84t24.5 -135v-22q0 -84 -22.5 -141.5 t-83 -91.5t-163 -48t-261.5 -14h-82q-193 0 -309.5 12t-179 44t-83 87t-20.5 141z" />
<glyph unicode="t" horiz-adv-x="1179" d="M33 856v127h194v256h176v-256h684v-127h-684v-426q0 -102 8.5 -162.5t34 -93.5t72.5 -42t125 -9h37q86 0 136 10t77 38t35 74t8 120v77h156v-104q0 -104 -20.5 -173t-70 -109t-132.5 -56t-207 -16h-48q-117 0 -191.5 17t-118.5 63.5t-60.5 128t-16.5 213.5v450h-194z" />
<glyph unicode="u" d="M141 420v563h176v-518q0 -104 13.5 -170t55.5 -103.5t118 -52t203 -14.5h30q113 0 196 14.5t136 51t79 100t26 164.5v528h176v-983h-176v195h-3q-25 -53 -58.5 -93.5t-88.5 -66t-136 -38.5t-198 -13h-31q-156 0 -256 19.5t-158.5 68.5t-81 134t-22.5 214z" />
<glyph unicode="v" horiz-adv-x="1325" d="M4 983h191l458 -844h9l466 844h193l-559 -983h-213z" />
<glyph unicode="w" horiz-adv-x="2023" d="M18 983h187l350 -848l373 848h168l364 -848l357 848h188l-426 -983h-225l-340 784l-346 -784h-224z" />
<glyph unicode="x" horiz-adv-x="1366" d="M29 0l528 512l-487 471h217l399 -389l401 389h211l-487 -471l526 -512h-219l-436 424l-440 -424h-213z" />
<glyph unicode="y" horiz-adv-x="1290" d="M4 983h191l469 -838h6l430 838h186l-448 -854q-86 -166 -150.5 -262t-124 -145.5t-123 -63.5t-147.5 -14q-31 0 -67 1t-68 3v135q23 -2 51.5 -2h50.5q57 0 101.5 6t82 30.5t76.5 73t88 129.5h-63z" />
<glyph unicode="z" horiz-adv-x="1206" d="M70 0v129l835 723v4h-803v127h1028v-135l-825 -717v-2h836v-129h-1071z" />
<glyph unicode="{" horiz-adv-x="768" d="M74 657v91q80 0 105.5 48t25.5 140v229q0 70 14 117t47 75.5t83 40t122 11.5h125v-106h-64q-98 0 -128.5 -36t-30.5 -126v-199q0 -55 -5.5 -96t-20.5 -71t-45 -47t-81 -23v-5q51 -6 81 -23.5t45 -47t20.5 -70.5t5.5 -96v-211q0 -90 30.5 -126t128.5 -36h64v-106h-125 q-72 0 -122 11t-83 39.5t-47 75t-14 117.5v242q0 92 -25.5 140t-105.5 48z" />
<glyph unicode="|" horiz-adv-x="690" d="M279 -143v1679h133v-1679h-133z" />
<glyph unicode="}" horiz-adv-x="768" d="M172 -16v106h64q98 0 128.5 36t30.5 126v211q0 55 5.5 96t20.5 70.5t45 47t81 23.5v5q-51 6 -81 23t-45 47t-20.5 71t-5.5 96v199q0 90 -30.5 126t-128.5 36h-64v106h125q72 0 122 -11.5t83 -40t47 -75.5t14 -117v-229q0 -92 25.5 -140t105.5 -48v-91q-80 0 -105.5 -48 t-25.5 -140v-242q0 -72 -14 -118t-47 -74.5t-83 -39.5t-122 -11h-125z" />
<glyph unicode="~" horiz-adv-x="1355" d="M160 537q59 117 127.5 169t165.5 52q72 0 128 -25.5t107 -58.5t100.5 -57.5t108.5 -24.5q76 0 120 44t83 114l94 -62q-59 -113 -127 -167t-166 -54q-72 0 -130 23.5t-107 58.5q-49 33 -98.5 57.5t-110.5 24.5q-72 0 -117 -41t-84 -115z" />
<glyph unicode="&#xa1;" horiz-adv-x="557" d="M182 748v235h191v-235h-191zM184 -410l13 998h161l13 -998h-187z" />
<glyph unicode="&#xa2;" horiz-adv-x="1511" d="M137 662v26q0 152 22.5 247t85 148.5t173 74t289.5 22.5v213h106v-213q166 0 273.5 -15.5t169 -53.5t86 -103.5t24.5 -167.5v-29h-164v12q0 70 -14 113t-55 66.5t-118 31.5t-202 8v-739q125 0 203 10.5t121 36t57 69.5t14 111v17h164v-41q0 -100 -25.5 -166t-88 -104.5 t-171 -55t-274.5 -16.5v-242h-106v242q-178 2 -290 23.5t-173.5 76.5t-84 151.5t-22.5 246.5zM309 662q0 -115 13.5 -184.5t55.5 -107.5t119.5 -51.5t209.5 -15.5v737q-133 0 -212 -12t-120 -49t-53.5 -106.5t-12.5 -184.5v-26z" />
<glyph unicode="&#xa3;" horiz-adv-x="1802" d="M121 600v129h227q2 227 24.5 362.5t90 206t193.5 91t335 20.5h37q174 0 290 -13.5t184.5 -55.5t96 -120.5t27.5 -211.5v-29h-180v25q0 86 -15.5 137t-61.5 78.5t-128 36t-213 8.5h-37q-158 0 -251 -13.5t-141 -68t-62.5 -161t-16.5 -292.5h686v-129h-688 q-2 -119 -10 -195.5t-27.5 -124t-50.5 -74t-78 -46.5v-6h1348v-154h-1555v154q63 14 102.5 41.5t61 79t29.5 130t10 195.5h-227z" />
<glyph unicode="&#xa4;" horiz-adv-x="1564" d="M176 106l197 197q-53 63 -81 146t-28 186q0 94 26.5 175t74.5 144l-189 189l88 88l189 -191q66 53 149.5 84t181.5 31t181.5 -28.5t148.5 -82.5l186 187l89 -88l-185 -185q49 -63 77 -144t28 -179q0 -102 -30 -187.5t-83 -150.5l193 -191l-86 -88l-197 195 q-66 -49 -146.5 -76.5t-175.5 -27.5q-184 0 -321 108l-201 -199zM412 635q0 -80 25.5 -151.5t74.5 -125t117.5 -84t154.5 -30.5t156 30.5t118 84t74.5 125t26.5 151.5t-26.5 149.5t-74.5 121.5t-118 83t-156 31t-154.5 -31t-117.5 -83t-74.5 -121.5t-25.5 -149.5z" />
<glyph unicode="&#xa5;" horiz-adv-x="1763" d="M59 1393h226l600 -707h4l596 707h223l-489 -553h389v-92h-467l-164 -185v-35h631v-92h-631v-436h-184v436h-633v92h633v35l-164 185h-469v92h389z" />
<glyph unicode="&#xa6;" horiz-adv-x="690" d="M279 -143v673h133v-673h-133zM279 874v662h133v-662h-133z" />
<glyph unicode="&#xa7;" horiz-adv-x="1779" d="M145 -20h189v-29q0 -63 15.5 -104.5t69.5 -65t158.5 -32.5t282.5 -9h43q178 0 282.5 8t160 29.5t71 58.5t15.5 96v21q0 63 -15.5 104t-68 62.5t-151.5 30t-267 8.5h-107q-201 0 -326.5 15t-196.5 52t-97.5 97.5t-26.5 152.5v35q0 63 14.5 108.5t48 76t88 50t136.5 31.5v2 q-90 6 -146.5 25.5t-87 54.5t-42 84t-11.5 117v20q0 100 27.5 165t102.5 101.5t209 50t347 13.5h56q231 0 370 -14.5t213 -54.5t97.5 -113.5t23.5 -190.5v-32h-184v24q0 76 -18.5 122t-74 70.5t-155.5 33t-262 8.5h-49q-168 0 -269.5 -7.5t-157 -27t-73 -57t-17.5 -99.5v-18 q0 -61 14.5 -99.5t63.5 -59t144.5 -27.5t255.5 -7h90q215 0 349 -13t210 -49t103.5 -98.5t27.5 -160.5v-25q0 -68 -13.5 -117t-45 -82.5t-85 -52t-135.5 -26.5v-3q86 -10 140.5 -29.5t85 -54t42 -87t11.5 -128.5v-24q0 -94 -28.5 -155.5t-106.5 -97.5t-214 -50.5t-351 -14.5 h-64q-231 0 -371.5 14.5t-216 53.5t-99.5 106.5t-24 174.5v39zM362 498q0 -59 14.5 -98.5t63.5 -63t144.5 -33.5t255.5 -10h65q178 0 282.5 7t159 28.5t70 60.5t15.5 105v24q0 63 -14.5 104.5t-67 65t-152.5 31.5t-270 8h-39q-174 0 -278.5 -10t-160 -34t-72 -61.5 t-16.5 -93.5v-30z" />
<glyph unicode="&#xa8;" horiz-adv-x="1024" d="M233 1198v195h160v-195h-160zM639 1198v195h160v-195h-160z" />
<glyph unicode="&#xa9;" horiz-adv-x="1990" d="M154 676v41q0 158 11 270.5t43 189t88 123t146 71t218 31.5t305 7h57q176 0 304 -7t218 -31.5t146.5 -71t88 -123t43 -189.5t11.5 -270v-41q0 -158 -11.5 -270.5t-43 -189.5t-88 -123t-146.5 -70.5t-218 -31.5t-304 -7h-57q-176 0 -304.5 7t-218.5 31.5t-146 70.5 t-88 123t-43 189.5t-11 270.5zM231 684q0 -145 9.5 -248.5t36 -173t76.5 -110.5t131 -62.5t199 -28t282 -6.5h57q164 0 281.5 6.5t199.5 28t131 62.5t76 110.5t36 173t9 248.5v25q0 145 -9 248.5t-36 173t-76 110.5t-131 62.5t-199.5 27.5t-281.5 6h-57q-164 0 -282 -6 t-199 -27.5t-131 -62.5t-76.5 -110.5t-36 -173t-9.5 -248.5v-25zM504 694v21q0 129 17.5 207.5t70.5 121.5t148.5 57.5t252.5 14.5h31q131 0 217 -12t136 -43t70.5 -85t20.5 -140v-25h-141v12q0 57 -12 92t-46 53.5t-94.5 24.5t-156.5 6h-21q-119 0 -188.5 -8t-106 -37.5 t-47 -86t-10.5 -152.5v-21q0 -96 10.5 -153.5t47 -87t106.5 -38.5t188 -9h21q98 0 159.5 8t96.5 27.5t47 55t12 91.5v16h142v-39q0 -82 -20.5 -135t-72 -85t-138.5 -44t-220 -12h-31q-158 0 -253 14t-148 57t-70.5 123t-17.5 211z" />
<glyph unicode="&#xaa;" horiz-adv-x="952" d="M111 950v23q0 53 16 87t52 52t92.5 25.5t138.5 7.5h26q74 0 120 -3t76 -10.5t46 -19.5t31 -29h4v41q0 63 -7.5 99.5t-30 54.5t-68.5 23.5t-122 5.5h-24q-63 0 -104.5 -4.5t-65 -14.5t-32.5 -28.5t-9 -47.5v-16h-113v18q0 55 16.5 89t55.5 54.5t104.5 28t161.5 7.5h25 q104 0 167.5 -8.5t99.5 -37t48 -87t12 -156.5v-328h-114v62h-2q-16 -18 -36 -31.5t-49.5 -22t-73.5 -12.5t-110 -4h-24q-92 0 -152.5 7t-94.5 27.5t-47 56.5t-13 91zM225 956q0 -31 7.5 -50t32 -31.5t69.5 -16.5t119 -4h20q72 0 118 4t73.5 16.5t38 32t10.5 49.5v9 q0 33 -12.5 53t-41 30.5t-76.5 13.5t-122 3h-21q-68 0 -110.5 -4t-65 -15.5t-31 -31t-8.5 -49.5v-9z" />
<glyph unicode="&#xab;" horiz-adv-x="978" d="M119 555l231 412l121 -45l-205 -367l205 -365l-121 -45zM498 555l231 412l123 -45l-207 -367l207 -365l-123 -45z" />
<glyph unicode="&#xac;" horiz-adv-x="1355" d="M156 721v129h1044v-576h-133v447h-911z" />
<glyph unicode="&#xad;" horiz-adv-x="966" d="M143 442v144h680v-144h-680z" />
<glyph unicode="&#xae;" horiz-adv-x="1409" d="M152 963v20q0 137 20.5 218t78.5 124t162.5 56.5t274.5 13.5h33q168 0 273.5 -13.5t164 -56.5t78.5 -124t20 -218v-20q0 -137 -20 -220.5t-78.5 -127.5t-164 -57t-273.5 -13h-33q-170 0 -274.5 13t-162.5 57t-78.5 127t-20.5 221zM221 963q0 -119 14.5 -188.5 t62.5 -106.5t140 -49.5t250 -12.5h33q156 0 248 11.5t140 48t62.5 107.5t14.5 190v20q0 117 -14.5 186.5t-62.5 105.5t-140 47t-248 11h-33q-158 0 -250 -11t-140 -47t-62.5 -105.5t-14.5 -186.5v-20zM436 719v504h363q57 0 96 -6.5t60.5 -21.5t30.5 -45t9 -75v-18 q0 -57 -23.5 -82t-64.5 -35v-2q47 -10 66.5 -34.5t19.5 -96.5v-88h-86v57q0 43 -5 67.5t-24.5 38t-56.5 16.5t-98 3h-201v-182h-86zM522 971h250q80 0 107.5 16.5t27.5 63.5v12q0 31 -5 49t-19.5 27.5t-42 12.5t-70.5 3h-248v-184z" />
<glyph unicode="&#xaf;" horiz-adv-x="1024" d="M233 1241v107h570v-107h-570z" />
<glyph unicode="&#xb0;" horiz-adv-x="837" d="M102 1159q0 68 25 124t67 98t99 65.5t125 23.5t126 -23.5t100 -65.5t66.5 -98t24.5 -124t-24.5 -125t-66.5 -99t-100 -65.5t-126 -23.5t-125 23.5t-99 65.5t-67 99.5t-25 124.5zM195 1159q0 -98 62.5 -162.5t160.5 -64.5t161.5 64.5t63.5 162.5t-63.5 161.5t-161.5 63.5 t-160.5 -63.5t-62.5 -161.5z" />
<glyph unicode="&#xb1;" horiz-adv-x="1355" d="M156 0v129h1044v-129h-1044zM156 668v129h452v372h133v-372h459v-129h-459v-367h-133v367h-452z" />
<glyph unicode="&#xb2;" horiz-adv-x="1089" d="M94 928v112q0 78 18.5 129.5t69.5 81t139.5 44t229.5 18.5q111 4 175.5 11t98 22.5t43 42t9.5 67.5v19q0 39 -9.5 63.5t-42 38.5t-95 19.5t-169.5 5.5h-22q-100 0 -160 -5.5t-90.5 -20.5t-38.5 -44t-8 -74v-22h-121v28q0 70 14.5 116t59.5 71.5t125.5 36t214.5 10.5h26 q143 0 230.5 -11.5t134.5 -36t62.5 -65.5t15.5 -100v-21q0 -68 -15.5 -112.5t-61.5 -73.5t-131 -43t-223 -18q-123 -4 -194.5 -11.5t-107 -25t-45 -48t-9.5 -81.5v-27h799v-96h-922z" />
<glyph unicode="&#xb3;" horiz-adv-x="1105" d="M94 1153v27h121v-27q0 -49 9 -75.5t43 -41t96.5 -17.5t171.5 -3h30q113 0 179.5 5t100.5 19.5t43 39t9 63.5v14q0 33 -8 55.5t-29.5 36t-61.5 18.5t-104 5h-270v92h272q57 0 92 6t53.5 19.5t24.5 34t6 51.5v18q0 33 -10 53.5t-43 32.5t-93 17.5t-161 5.5h-20 q-100 0 -160.5 -3.5t-93.5 -17.5t-43 -41t-10 -76v-24h-121v24q0 76 15 122t61.5 70.5t130.5 33t219 8.5h26q135 0 220 -9.5t131.5 -31t62.5 -58t16 -92.5v-16q0 -78 -24.5 -116t-102.5 -52v-2q78 -10 115 -44t37 -124v-23q0 -66 -18.5 -107.5t-67.5 -64t-138 -30.5t-231 -8 h-37q-141 0 -228 7t-133 31.5t-61.5 70.5t-15.5 124z" />
<glyph unicode="&#xb4;" horiz-adv-x="1024" d="M362 1174l347 274l79 -109l-374 -229z" />
<glyph unicode="&#xb5;" horiz-adv-x="1536" d="M160 -420v1403h176v-528q0 -98 22.5 -162t72.5 -101.5t129 -52t190 -14.5h32q111 0 190 15.5t130 53t74.5 101t23.5 158.5v530h176v-983h-176v195h-2q-23 -51 -55.5 -91.5t-84.5 -67t-129 -39.5t-184 -13h-28q-164 0 -252 37.5t-127 119.5h-2v-561h-176z" />
<glyph unicode="&#xb6;" horiz-adv-x="1472" d="M141 940v31q0 131 22.5 214t89 129t188.5 62.5t319 16.5h547v-1729h-131v1626h-164v-1626h-131v850h-160q-190 0 -305 19.5t-176.5 68.5t-80 131t-18.5 207z" />
<glyph unicode="&#xb7;" horiz-adv-x="505" d="M158 428v236h190v-236h-190z" />
<glyph unicode="&#xb8;" horiz-adv-x="804" d="M115 -293l342 275l90 -103l-379 -231z" />
<glyph unicode="&#xb9;" horiz-adv-x="686" d="M90 1460l305 230h160v-762h-129v649h-6l-266 -203z" />
<glyph unicode="&#xba;" horiz-adv-x="987" d="M106 1071v23q0 98 14.5 156.5t54.5 90t112.5 42t187.5 10.5h35q115 0 187.5 -10.5t112.5 -42t54.5 -90t14.5 -156.5v-23q0 -96 -14.5 -155.5t-54.5 -92t-112.5 -44t-187.5 -11.5h-35q-115 0 -187.5 11.5t-112.5 44t-54.5 92t-14.5 155.5zM221 1071q0 -66 8.5 -106.5 t35 -62t77.5 -29t137 -7.5h27q86 0 136 7.5t78 29t36 62.5t8 106v23q0 66 -8 105.5t-36 61t-78 28.5t-136 7h-27q-86 0 -137 -7t-77.5 -28.5t-35 -61.5t-8.5 -105v-23z" />
<glyph unicode="&#xbb;" horiz-adv-x="978" d="M127 190l207 367l-207 367l123 43l231 -410l-231 -412zM506 190l207 367l-207 367l123 43l231 -410l-231 -412z" />
<glyph unicode="&#xbc;" horiz-adv-x="2111" d="M129 1163l305 230h160v-762h-129v649h-6l-266 -203zM541 0l708 1393h117l-709 -1393h-116zM1040 172v137l670 453h166v-496h129v-94h-129v-172h-129v172h-707zM1165 266h582v400h-6l-576 -394v-6z" />
<glyph unicode="&#xbd;" horiz-adv-x="2203" d="M129 1163l305 230h160v-762h-129v649h-6l-266 -203zM539 0l708 1393h117l-709 -1393h-116zM1151 0v113q0 78 18.5 129t69.5 80.5t139 44t230 18.5q111 4 175 11t98 22.5t43 42t9 67.5v19q0 39 -9 63.5t-42 39t-95.5 19.5t-168.5 5h-23q-100 0 -159.5 -5t-90 -20.5 t-39 -44.5t-8.5 -74v-22h-120v29q0 70 14 115.5t59 71.5t126 36t214 10h27q143 0 230 -11t134.5 -36t62.5 -66t15 -100v-20q0 -68 -15 -113t-61.5 -73.5t-131.5 -43t-222 -18.5q-123 -4 -194.5 -11.5t-107.5 -24.5t-45 -48t-9 -82v-27h799v-96h-922z" />
<glyph unicode="&#xbe;" horiz-adv-x="2500" d="M156 856v27h120v-27q0 -49 9.5 -75.5t43 -41t96 -17.5t171.5 -3h31q113 0 179 5t100 19.5t43 39t9 63.5v14q0 33 -8 55.5t-29.5 36t-61.5 18.5t-103 5h-271v92h273q57 0 92 6t53.5 19.5t24.5 34t6 51.5v18q0 33 -10.5 53.5t-43 32.5t-93 17.5t-160.5 5.5h-21 q-100 0 -160.5 -3.5t-93.5 -17.5t-43 -40.5t-10 -76.5v-24h-121v24q0 76 15.5 122t61.5 70.5t130 33t219 8.5h27q135 0 220 -9.5t131 -31t62.5 -58t16.5 -92.5v-16q0 -78 -24.5 -116t-102.5 -52v-2q78 -10 114.5 -44t36.5 -124v-22q0 -66 -18 -108t-67.5 -64.5t-138.5 -30.5 t-230 -8h-37q-141 0 -228 7t-133.5 31.5t-61.5 70.5t-15 124zM930 0l708 1393h117l-708 -1393h-117zM1430 172v137l669 453h166v-496h129v-94h-129v-172h-129v172h-706zM1554 266h582v400h-6l-576 -394v-6z" />
<glyph unicode="&#xbf;" horiz-adv-x="1556" d="M100 -14q0 100 15.5 169.5t62.5 114.5t132 71t227 42q82 8 131 18.5t74.5 25.5t32.5 38.5t7 60.5v29h170v-25q0 -70 -11 -116.5t-43 -77.5t-91 -49.5t-156 -28.5q-133 -14 -208.5 -31.5t-115.5 -47t-50.5 -76t-10.5 -119.5v-27q0 -74 15.5 -120t65.5 -73.5t144.5 -38 t251.5 -10.5h37q158 0 253 9.5t145.5 39t67 84t16.5 144.5v37h170v-37q0 -133 -28 -214t-100.5 -127t-199.5 -61.5t-324 -15.5h-37q-203 0 -327.5 16.5t-195 58.5t-95.5 114.5t-25 185.5v37zM770 748v235h191v-235h-191z" />
<glyph unicode="&#xc0;" horiz-adv-x="1843" d="M8 0l803 1393h246l778 -1393h-205l-166 305h-1083l-172 -305h-201zM461 446h925l-444 809h-18zM560 1663l67 117l389 -199l-39 -68z" />
<glyph unicode="&#xc1;" horiz-adv-x="1843" d="M8 0l803 1393h246l778 -1393h-205l-166 305h-1083l-172 -305h-201zM461 446h925l-444 809h-18zM837 1579l390 201l67 -117l-418 -150z" />
<glyph unicode="&#xc2;" horiz-adv-x="1843" d="M8 0l803 1393h246l778 -1393h-205l-166 305h-1083l-172 -305h-201zM461 446h925l-444 809h-18zM621 1593l315 205l315 -205l-55 -67l-260 141l-260 -141z" />
<glyph unicode="&#xc3;" horiz-adv-x="1843" d="M8 0l803 1393h246l778 -1393h-205l-166 305h-1083l-172 -305h-201zM461 446h925l-444 809h-18zM619 1571q14 98 63 146t117 48q63 0 145 -49q47 -31 78 -43t53 -12q43 0 66.5 26.5t34.5 79.5l78 -22q-16 -100 -63.5 -148.5t-119.5 -48.5q-35 0 -69.5 14.5t-75.5 41.5 q-45 29 -76 39t-53 10q-35 0 -61.5 -21.5t-43.5 -81.5z" />
<glyph unicode="&#xc4;" horiz-adv-x="1843" d="M8 0l803 1393h246l778 -1393h-205l-166 305h-1083l-172 -305h-201zM461 446h925l-444 809h-18zM653 1546v195h160v-195h-160zM1059 1546v195h160v-195h-160z" />
<glyph unicode="&#xc5;" horiz-adv-x="1843" d="M8 0l803 1393h246l778 -1393h-205l-166 305h-1083l-172 -305h-201zM461 446h925l-444 809h-18zM676 1653q0 43 11.5 72.5t41 47t77.5 25.5t122 8q86 0 134 -8t78 -25.5t41 -47t11 -85.5q0 -43 -11 -71.5t-41 -47t-78 -26.5t-134 -8q-74 0 -122 8t-77.5 26.5t-41 47 t-11.5 84.5zM756 1653q0 -63 34.5 -82t149.5 -19q102 0 137 18.5t35 69.5q0 63 -34.5 81t-149.5 18q-102 0 -137 -17.5t-35 -68.5z" />
<glyph unicode="&#xc6;" horiz-adv-x="2834" d="M4 0l1092 1393h1652v-156h-1175v-444h1124v-150h-1124v-485h1186v-158h-1375v305h-925l-242 -305h-213zM569 449h815v798h-186z" />
<glyph unicode="&#xc7;" horiz-adv-x="1951" d="M133 676v41q0 147 12.5 255.5t45 185.5t91 126t151.5 77t224 38t312 10h59q250 0 402.5 -17.5t234.5 -63.5t108.5 -127t26.5 -210v-39h-182v25q0 84 -16.5 138t-78 85t-179 42t-320.5 11h-49q-145 0 -249.5 -6t-177.5 -25.5t-117 -56.5t-67.5 -97t-31.5 -148.5t-8 -210.5 v-25q0 -121 7 -209t30.5 -147.5t66.5 -96t115.5 -57t178 -27t253.5 -6.5h49q209 0 331 11.5t184.5 42t79.5 86t17 145.5v20h185v-45q0 -127 -31 -207.5t-117 -128t-240.5 -64.5t-402.5 -17h-61q-178 0 -310.5 10t-224.5 36.5t-151.5 75t-92 125t-45 186t-12.5 259.5z M715 -293l342 275l90 -103l-379 -231z" />
<glyph unicode="&#xc8;" horiz-adv-x="1619" d="M170 0v1393h1364v-156h-1176v-444h1125v-150h-1125v-485h1186v-158h-1374zM609 1663l67 117l389 -199l-39 -68z" />
<glyph unicode="&#xc9;" horiz-adv-x="1619" d="M170 0v1393h1364v-156h-1176v-444h1125v-150h-1125v-485h1186v-158h-1374zM651 1579l390 201l67 -117l-418 -150z" />
<glyph unicode="&#xca;" horiz-adv-x="1619" d="M170 0v1393h1364v-156h-1176v-444h1125v-150h-1125v-485h1186v-158h-1374zM547 1593l315 205l315 -205l-55 -67l-260 141l-260 -141z" />
<glyph unicode="&#xcb;" horiz-adv-x="1619" d="M170 0v1393h1364v-156h-1176v-444h1125v-150h-1125v-485h1186v-158h-1374zM569 1546v195h160v-195h-160zM975 1546v195h160v-195h-160z" />
<glyph unicode="&#xcc;" horiz-adv-x="528" d="M-96 1663l67 117l389 -199l-39 -68zM170 0v1393h188v-1393h-188z" />
<glyph unicode="&#xcd;" horiz-adv-x="528" d="M170 0v1393h188v-1393h-188zM178 1579l390 201l67 -117l-418 -150z" />
<glyph unicode="&#xce;" horiz-adv-x="528" d="M-47 1593l315 205l315 -205l-55 -67l-260 141l-260 -141zM170 0v1393h188v-1393h-188z" />
<glyph unicode="&#xcf;" horiz-adv-x="528" d="M-15 1546v195h160v-195h-160zM170 0v1393h188v-1393h-188zM391 1546v195h160v-195h-160z" />
<glyph unicode="&#xd0;" horiz-adv-x="2017" d="M45 664v108h125v621h870q186 0 320.5 -8.5t228.5 -33t151.5 -70.5t89.5 -121t42 -183.5t10 -259.5v-41q0 -219 -26.5 -352.5t-113.5 -205t-254 -95t-448 -23.5h-870v664h-125zM358 158h668q156 0 265.5 6t183 24.5t117.5 54.5t66.5 94t29 143t6.5 204v25q0 121 -7.5 208 t-30 145t-66.5 93t-117.5 53.5t-183 23.5t-263.5 5h-668v-465h535v-108h-535v-506z" />
<glyph unicode="&#xd1;" horiz-adv-x="2037" d="M170 0v1393h297l1206 -1231h8v1231h187v-1393h-295l-1206 1231h-11v-1231h-186zM713 1571q14 98 63 146t117 48q63 0 145 -49q47 -31 78 -43t53 -12q43 0 66.5 26.5t34.5 79.5l78 -22q-16 -100 -63.5 -148.5t-119.5 -48.5q-35 0 -69.5 14.5t-75.5 41.5q-45 29 -76 39 t-53 10q-35 0 -61.5 -21.5t-43.5 -81.5z" />
<glyph unicode="&#xd2;" horiz-adv-x="2027" d="M133 676v41q0 147 12.5 255.5t46 185.5t93 126t155 77t229.5 38t316 10h59q182 0 316.5 -10t228.5 -38t153.5 -77t93.5 -126t46 -185.5t12 -255.5v-41q0 -147 -12 -256t-46 -185.5t-93.5 -126t-153.5 -77t-228 -37.5t-317 -10h-59q-182 0 -316 10t-229.5 37.5t-155 77 t-93 126t-46 185t-12.5 256.5zM324 684q0 -182 19 -289.5t89 -164t201 -73t356 -16.5h49q225 0 357.5 16.5t202 73t89 164t19.5 289.5v25q0 182 -19.5 290.5t-89 165t-201.5 72.5t-358 16h-49q-225 0 -356 -16t-201 -72.5t-89 -165t-19 -290.5v-25zM777 1663l67 117 l389 -199l-39 -68z" />
<glyph unicode="&#xd3;" horiz-adv-x="2027" d="M133 676v41q0 147 12.5 255.5t46 185.5t93 126t155 77t229.5 38t316 10h59q182 0 316.5 -10t228.5 -38t153.5 -77t93.5 -126t46 -185.5t12 -255.5v-41q0 -147 -12 -256t-46 -185.5t-93.5 -126t-153.5 -77t-228 -37.5t-317 -10h-59q-182 0 -316 10t-229.5 37.5t-155 77 t-93 126t-46 185t-12.5 256.5zM324 684q0 -182 19 -289.5t89 -164t201 -73t356 -16.5h49q225 0 357.5 16.5t202 73t89 164t19.5 289.5v25q0 182 -19.5 290.5t-89 165t-201.5 72.5t-358 16h-49q-225 0 -356 -16t-201 -72.5t-89 -165t-19 -290.5v-25zM804 1579l390 201 l67 -117l-418 -150z" />
<glyph unicode="&#xd4;" horiz-adv-x="2027" d="M133 676v41q0 147 12.5 255.5t46 185.5t93 126t155 77t229.5 38t316 10h59q182 0 316.5 -10t228.5 -38t153.5 -77t93.5 -126t46 -185.5t12 -255.5v-41q0 -147 -12 -256t-46 -185.5t-93.5 -126t-153.5 -77t-228 -37.5t-317 -10h-59q-182 0 -316 10t-229.5 37.5t-155 77 t-93 126t-46 185t-12.5 256.5zM324 684q0 -182 19 -289.5t89 -164t201 -73t356 -16.5h49q225 0 357.5 16.5t202 73t89 164t19.5 289.5v25q0 182 -19.5 290.5t-89 165t-201.5 72.5t-358 16h-49q-225 0 -356 -16t-201 -72.5t-89 -165t-19 -290.5v-25zM703 1593l315 205 l315 -205l-55 -67l-260 141l-260 -141z" />
<glyph unicode="&#xd5;" horiz-adv-x="2027" d="M133 676v41q0 147 12.5 255.5t46 185.5t93 126t155 77t229.5 38t316 10h59q182 0 316.5 -10t228.5 -38t153.5 -77t93.5 -126t46 -185.5t12 -255.5v-41q0 -147 -12 -256t-46 -185.5t-93.5 -126t-153.5 -77t-228 -37.5t-317 -10h-59q-182 0 -316 10t-229.5 37.5t-155 77 t-93 126t-46 185t-12.5 256.5zM324 684q0 -182 19 -289.5t89 -164t201 -73t356 -16.5h49q225 0 357.5 16.5t202 73t89 164t19.5 289.5v25q0 182 -19.5 290.5t-89 165t-201.5 72.5t-358 16h-49q-225 0 -356 -16t-201 -72.5t-89 -165t-19 -290.5v-25zM701 1571q14 98 63 146 t117 48q63 0 145 -49q47 -31 78 -43t53 -12q43 0 66.5 26.5t34.5 79.5l78 -22q-16 -100 -63.5 -148.5t-119.5 -48.5q-35 0 -69.5 14.5t-75.5 41.5q-45 29 -76 39t-53 10q-35 0 -61.5 -21.5t-43.5 -81.5z" />
<glyph unicode="&#xd6;" horiz-adv-x="2027" d="M133 676v41q0 147 12.5 255.5t46 185.5t93 126t155 77t229.5 38t316 10h59q182 0 316.5 -10t228.5 -38t153.5 -77t93.5 -126t46 -185.5t12 -255.5v-41q0 -147 -12 -256t-46 -185.5t-93.5 -126t-153.5 -77t-228 -37.5t-317 -10h-59q-182 0 -316 10t-229.5 37.5t-155 77 t-93 126t-46 185t-12.5 256.5zM324 684q0 -182 19 -289.5t89 -164t201 -73t356 -16.5h49q225 0 357.5 16.5t202 73t89 164t19.5 289.5v25q0 182 -19.5 290.5t-89 165t-201.5 72.5t-358 16h-49q-225 0 -356 -16t-201 -72.5t-89 -165t-19 -290.5v-25zM735 1546v195h160v-195 h-160zM1141 1546v195h160v-195h-160z" />
<glyph unicode="&#xd7;" horiz-adv-x="1355" d="M221 258l367 365l-367 362l90 90l367 -362l364 360l88 -84l-364 -364l369 -365l-93 -90l-364 362l-365 -362z" />
<glyph unicode="&#xd8;" horiz-adv-x="2027" d="M70 68l151 110q-53 78 -70.5 199t-17.5 299v41q0 147 12.5 255.5t46 185.5t93 126t155 77t229.5 38t316 10h59q276 0 444.5 -26.5t258.5 -102.5l166 121l59 -80l-160 -119q47 -78 64.5 -195.5t17.5 -289.5v-41q0 -147 -12 -256t-46 -185.5t-93.5 -126t-153.5 -77 t-228 -37.5t-317 -10h-59q-270 0 -436 24.5t-258 95.5l-162 -118zM322 684q0 -141 10 -235.5t45 -155.5l1220 872q-70 55 -201.5 71.5t-357.5 16.5h-49q-150 0 -257 -6t-182 -26.5t-119 -57.5t-68.5 -97t-32.5 -148.5t-8 -208.5v-25zM449 217q72 -47 200.5 -61.5 t339.5 -14.5h49q225 0 358.5 16.5t202 73t89 164t20.5 289.5v25q0 133 -10 225t-39 153z" />
<glyph unicode="&#xd9;" horiz-adv-x="1951" d="M162 494v899h188v-867q0 -123 18.5 -198.5t80 -117.5t178 -55.5t315.5 -13.5h57q199 0 318 13.5t182.5 54.5t83 116.5t19.5 200.5v867h188v-899q0 -156 -29.5 -255.5t-115.5 -155.5t-243 -77.5t-411 -21.5h-41q-252 0 -407.5 21.5t-239.5 77.5t-112.5 155.5t-28.5 255.5z M723 1663l67 117l389 -199l-39 -68z" />
<glyph unicode="&#xda;" horiz-adv-x="1951" d="M162 494v899h188v-867q0 -123 18.5 -198.5t80 -117.5t178 -55.5t315.5 -13.5h57q199 0 318 13.5t182.5 54.5t83 116.5t19.5 200.5v867h188v-899q0 -156 -29.5 -255.5t-115.5 -155.5t-243 -77.5t-411 -21.5h-41q-252 0 -407.5 21.5t-239.5 77.5t-112.5 155.5t-28.5 255.5z M761 1579l390 201l67 -117l-418 -150z" />
<glyph unicode="&#xdb;" horiz-adv-x="1951" d="M162 494v899h188v-867q0 -123 18.5 -198.5t80 -117.5t178 -55.5t315.5 -13.5h57q199 0 318 13.5t182.5 54.5t83 116.5t19.5 200.5v867h188v-899q0 -156 -29.5 -255.5t-115.5 -155.5t-243 -77.5t-411 -21.5h-41q-252 0 -407.5 21.5t-239.5 77.5t-112.5 155.5t-28.5 255.5z M660 1593l315 205l315 -205l-55 -67l-260 141l-260 -141z" />
<glyph unicode="&#xdc;" horiz-adv-x="1951" d="M162 494v899h188v-867q0 -123 18.5 -198.5t80 -117.5t178 -55.5t315.5 -13.5h57q199 0 318 13.5t182.5 54.5t83 116.5t19.5 200.5v867h188v-899q0 -156 -29.5 -255.5t-115.5 -155.5t-243 -77.5t-411 -21.5h-41q-252 0 -407.5 21.5t-239.5 77.5t-112.5 155.5t-28.5 255.5z M692 1546v195h160v-195h-160zM1098 1546v195h160v-195h-160z" />
<glyph unicode="&#xdd;" horiz-adv-x="1806" d="M8 1393h236l661 -721h6l654 721h233l-803 -867v-526h-188v526zM753 1579l390 201l67 -117l-418 -150z" />
<glyph unicode="&#xde;" horiz-adv-x="1802" d="M170 0v1393h188v-228h715q203 0 328 -15t194.5 -60.5t94 -128t24.5 -218.5v-30q0 -137 -25.5 -220t-96 -129.5t-195.5 -61.5t-324 -15h-715v-287h-188zM358 440h678q170 0 268.5 9.5t147.5 38t62.5 82t13.5 143.5v28q0 90 -13.5 143.5t-62.5 82t-147.5 38t-268.5 9.5 h-678v-574z" />
<glyph unicode="&#xdf;" horiz-adv-x="1533" d="M160 0v975q0 129 26.5 213t89 133t167 67.5t259.5 18.5h80q158 0 258.5 -14.5t156.5 -46t77.5 -80.5t21.5 -119v-21q0 -106 -48 -155t-150 -60v-2q90 -6 151.5 -27.5t98 -68.5t53 -126t16.5 -200v-32q0 -147 -26.5 -238.5t-83 -144t-144.5 -70.5t-211 -18h-59 q-133 0 -215 15t-127 53t-61.5 101.5t-16.5 159.5v45h148v-24q0 -68 10 -110t39.5 -65.5t83 -31.5t141.5 -8h35q100 0 161.5 12t95.5 49t45 105.5t11 183.5v39q0 104 -13 168.5t-55 99.5t-120 46.5t-207 11.5h-193v120h168q96 0 155.5 8.5t92.5 26t44 46t11 69.5v18 q0 43 -12 72t-50 47.5t-109.5 26.5t-188.5 8h-49q-121 0 -196 -12.5t-115.5 -45t-55 -91t-14.5 -148.5v-979h-176z" />
<glyph unicode="&#xe0;" horiz-adv-x="1429" d="M117 283v24q0 86 22.5 142.5t78.5 90t149.5 47t234.5 13.5h41q104 0 180 -4t130.5 -16.5t88 -33t56.5 -52.5h8v73q0 100 -11.5 159.5t-51 91.5t-117.5 41t-213 9h-37q-109 0 -177.5 -7t-107.5 -25.5t-53 -49t-14 -77.5v-17h-170v23q0 88 27.5 143t90 87t163 43t247.5 11 h41q182 0 291.5 -15t169 -64.5t79 -142.5t19.5 -249v-528h-174v117h-6q-27 -37 -60.5 -61.5t-85 -41t-124 -23.5t-177.5 -7h-39q-156 0 -253 14t-152 48t-74.5 92.5t-19.5 144.5zM291 291q0 -57 13 -92t54 -53.5t117 -24.5t201 -6h31q125 0 203.5 7t122.5 26.5t59.5 54.5 t15.5 88v12q0 55 -17.5 89t-63.5 51.5t-127 22.5t-208 5h-33q-117 0 -189.5 -6t-112.5 -24.5t-53 -51.5t-13 -88v-10zM523 1339l79 109l345 -274l-50 -64z" />
<glyph unicode="&#xe1;" horiz-adv-x="1429" d="M117 283v24q0 86 22.5 142.5t78.5 90t149.5 47t234.5 13.5h41q104 0 180 -4t130.5 -16.5t88 -33t56.5 -52.5h8v73q0 100 -11.5 159.5t-51 91.5t-117.5 41t-213 9h-37q-109 0 -177.5 -7t-107.5 -25.5t-53 -49t-14 -77.5v-17h-170v23q0 88 27.5 143t90 87t163 43t247.5 11 h41q182 0 291.5 -15t169 -64.5t79 -142.5t19.5 -249v-528h-174v117h-6q-27 -37 -60.5 -61.5t-85 -41t-124 -23.5t-177.5 -7h-39q-156 0 -253 14t-152 48t-74.5 92.5t-19.5 144.5zM291 291q0 -57 13 -92t54 -53.5t117 -24.5t201 -6h31q125 0 203.5 7t122.5 26.5t59.5 54.5 t15.5 88v12q0 55 -17.5 89t-63.5 51.5t-127 22.5t-208 5h-33q-117 0 -189.5 -6t-112.5 -24.5t-53 -51.5t-13 -88v-10zM516 1174l347 274l79 -109l-374 -229z" />
<glyph unicode="&#xe2;" horiz-adv-x="1429" d="M117 283v24q0 86 22.5 142.5t78.5 90t149.5 47t234.5 13.5h41q104 0 180 -4t130.5 -16.5t88 -33t56.5 -52.5h8v73q0 100 -11.5 159.5t-51 91.5t-117.5 41t-213 9h-37q-109 0 -177.5 -7t-107.5 -25.5t-53 -49t-14 -77.5v-17h-170v23q0 88 27.5 143t90 87t163 43t247.5 11 h41q182 0 291.5 -15t169 -64.5t79 -142.5t19.5 -249v-528h-174v117h-6q-27 -37 -60.5 -61.5t-85 -41t-124 -23.5t-177.5 -7h-39q-156 0 -253 14t-152 48t-74.5 92.5t-19.5 144.5zM291 291q0 -57 13 -92t54 -53.5t117 -24.5t201 -6h31q125 0 203.5 7t122.5 26.5t59.5 54.5 t15.5 88v12q0 55 -17.5 89t-63.5 51.5t-127 22.5t-208 5h-33q-117 0 -189.5 -6t-112.5 -24.5t-53 -51.5t-13 -88v-10zM400 1210l315 228l315 -228l-55 -67l-260 164l-260 -164z" />
<glyph unicode="&#xe3;" horiz-adv-x="1429" d="M117 283v24q0 86 22.5 142.5t78.5 90t149.5 47t234.5 13.5h41q104 0 180 -4t130.5 -16.5t88 -33t56.5 -52.5h8v73q0 100 -11.5 159.5t-51 91.5t-117.5 41t-213 9h-37q-109 0 -177.5 -7t-107.5 -25.5t-53 -49t-14 -77.5v-17h-170v23q0 88 27.5 143t90 87t163 43t247.5 11 h41q182 0 291.5 -15t169 -64.5t79 -142.5t19.5 -249v-528h-174v117h-6q-27 -37 -60.5 -61.5t-85 -41t-124 -23.5t-177.5 -7h-39q-156 0 -253 14t-152 48t-74.5 92.5t-19.5 144.5zM291 291q0 -57 13 -92t54 -53.5t117 -24.5t201 -6h31q125 0 203.5 7t122.5 26.5t59.5 54.5 t15.5 88v12q0 55 -17.5 89t-63.5 51.5t-127 22.5t-208 5h-33q-117 0 -189.5 -6t-112.5 -24.5t-53 -51.5t-13 -88v-10zM392 1194q14 98 63 146.5t117 48.5q63 0 145 -50q47 -31 78 -43t53 -12q43 0 66.5 26.5t34.5 80.5l78 -23q-16 -100 -63.5 -148.5t-119.5 -48.5 q-35 0 -69.5 14.5t-75.5 41.5q-45 29 -76 39t-53 10q-35 0 -61.5 -21.5t-43.5 -80.5z" />
<glyph unicode="&#xe4;" horiz-adv-x="1429" d="M117 283v24q0 86 22.5 142.5t78.5 90t149.5 47t234.5 13.5h41q104 0 180 -4t130.5 -16.5t88 -33t56.5 -52.5h8v73q0 100 -11.5 159.5t-51 91.5t-117.5 41t-213 9h-37q-109 0 -177.5 -7t-107.5 -25.5t-53 -49t-14 -77.5v-17h-170v23q0 88 27.5 143t90 87t163 43t247.5 11 h41q182 0 291.5 -15t169 -64.5t79 -142.5t19.5 -249v-528h-174v117h-6q-27 -37 -60.5 -61.5t-85 -41t-124 -23.5t-177.5 -7h-39q-156 0 -253 14t-152 48t-74.5 92.5t-19.5 144.5zM291 291q0 -57 13 -92t54 -53.5t117 -24.5t201 -6h31q125 0 203.5 7t122.5 26.5t59.5 54.5 t15.5 88v12q0 55 -17.5 89t-63.5 51.5t-127 22.5t-208 5h-33q-117 0 -189.5 -6t-112.5 -24.5t-53 -51.5t-13 -88v-10zM434 1198v195h160v-195h-160zM840 1198v195h160v-195h-160z" />
<glyph unicode="&#xe5;" horiz-adv-x="1429" d="M117 283v24q0 86 22.5 142.5t78.5 90t149.5 47t234.5 13.5h41q104 0 180 -4t130.5 -16.5t88 -33t56.5 -52.5h8v73q0 100 -11.5 159.5t-51 91.5t-117.5 41t-213 9h-37q-109 0 -177.5 -7t-107.5 -25.5t-53 -49t-14 -77.5v-17h-170v23q0 88 27.5 143t90 87t163 43t247.5 11 h41q182 0 291.5 -15t169 -64.5t79 -142.5t19.5 -249v-528h-174v117h-6q-27 -37 -60.5 -61.5t-85 -41t-124 -23.5t-177.5 -7h-39q-156 0 -253 14t-152 48t-74.5 92.5t-19.5 144.5zM291 291q0 -57 13 -92t54 -53.5t117 -24.5t201 -6h31q125 0 203.5 7t122.5 26.5t59.5 54.5 t15.5 88v12q0 55 -17.5 89t-63.5 51.5t-127 22.5t-208 5h-33q-117 0 -189.5 -6t-112.5 -24.5t-53 -51.5t-13 -88v-10zM461 1298q0 43 11.5 73t41 47.5t77.5 25.5t122 8q86 0 134 -8t78 -25.5t41 -47.5t11 -85q0 -43 -11 -71.5t-41 -47t-78 -26.5t-134 -8q-74 0 -122 8 t-77.5 26.5t-41 47t-11.5 83.5zM541 1298q0 -63 34.5 -81.5t149.5 -18.5q102 0 137 18.5t35 69.5q0 63 -34.5 80.5t-149.5 17.5q-102 0 -137 -17t-35 -69z" />
<glyph unicode="&#xe6;" horiz-adv-x="2416" d="M117 285v24q0 86 23.5 141.5t79.5 89t149.5 47t232.5 13.5h41q109 0 185.5 -5t130 -17.5t87 -34t56.5 -54.5h4v76q0 94 -10.5 153.5t-50 93.5t-116.5 45t-210 11h-39q-111 0 -180.5 -7t-109.5 -25.5t-54 -49t-14 -77.5v-17h-168v23q0 90 28.5 145t94 86t171 42t261.5 11 h39q123 0 203.5 -11t129.5 -33.5t76 -56.5t43 -79h4q16 45 46 79t85.5 56.5t140.5 33.5t212 11h49q162 0 270.5 -16t172 -61t90 -125t26.5 -205v-125h-1018v-53q0 -96 21.5 -154.5t71.5 -89.5t132 -41t203 -10h39q121 0 197.5 9t119.5 31.5t58.5 61.5t15.5 98v17h166v-23 q0 -100 -29.5 -163.5t-94 -100.5t-169 -51t-252.5 -14h-51q-125 0 -216 8t-155.5 29.5t-106.5 60.5t-71 98h-4q-23 -63 -62.5 -101t-101 -59.5t-143.5 -28.5t-189 -7h-41q-158 0 -255 14t-151 49t-73.5 92.5t-19.5 145.5zM291 291q0 -57 13 -92t54 -53.5t117 -24.5t201 -6 h31q125 0 203.5 7t122.5 26.5t59.5 54.5t15.5 88v12q0 55 -17.5 89t-63.5 51.5t-127 22.5t-208 5h-33q-117 0 -189.5 -6t-112.5 -24.5t-53 -51.5t-13 -88v-10zM1278 586h850v26q0 78 -13.5 128.5t-55.5 79t-119.5 38.5t-206.5 10h-31q-135 0 -218 -8t-128 -37.5t-60.5 -86 t-17.5 -150.5z" />
<glyph unicode="&#xe7;" horiz-adv-x="1464" d="M117 477v31q0 154 24.5 250t92 149.5t186.5 72.5t307 19h59q166 0 274.5 -14t171 -53t87 -104.5t24.5 -168.5v-28h-169v12q0 68 -16.5 110t-59.5 65.5t-120 32.5t-196 9h-49q-145 0 -231 -12t-133 -50t-61.5 -107.5t-14.5 -182.5v-31q0 -113 15.5 -182.5t62.5 -107 t133 -51t229 -13.5h49q125 0 203 11t121 37t58.5 70t15.5 111v15h170v-33q0 -102 -26 -169t-90.5 -108t-173 -57t-274.5 -16h-59q-188 0 -307 19.5t-186.5 73.5t-92 150.5t-24.5 249.5zM463 -293l342 275l90 -103l-379 -231z" />
<glyph unicode="&#xe8;" horiz-adv-x="1454" d="M117 481v25q0 152 25.5 248t91 150t180 74.5t293.5 20.5h49q178 0 290.5 -20.5t176 -68.5t87 -126.5t23.5 -197.5v-119h-1042v-23q0 -102 16.5 -166.5t63.5 -99.5t133 -47t227 -12h39q127 0 206 9t122 31.5t58 61.5t15 98v17h168v-23q0 -96 -27.5 -159.5t-93 -101.5 t-172 -53t-264.5 -15h-53q-188 0 -308 20.5t-187.5 74.5t-92 151.5t-24.5 250.5zM293 588h868v30q0 72 -13 120t-56 77t-124 41t-218 12h-29q-139 0 -222 -11t-128 -42t-60.5 -85t-17.5 -142zM537 1339l79 109l345 -274l-50 -64z" />
<glyph unicode="&#xe9;" horiz-adv-x="1454" d="M117 481v25q0 152 25.5 248t91 150t180 74.5t293.5 20.5h49q178 0 290.5 -20.5t176 -68.5t87 -126.5t23.5 -197.5v-119h-1042v-23q0 -102 16.5 -166.5t63.5 -99.5t133 -47t227 -12h39q127 0 206 9t122 31.5t58 61.5t15 98v17h168v-23q0 -96 -27.5 -159.5t-93 -101.5 t-172 -53t-264.5 -15h-53q-188 0 -308 20.5t-187.5 74.5t-92 151.5t-24.5 250.5zM293 588h868v30q0 72 -13 120t-56 77t-124 41t-218 12h-29q-139 0 -222 -11t-128 -42t-60.5 -85t-17.5 -142zM509 1174l347 274l79 -109l-374 -229z" />
<glyph unicode="&#xea;" horiz-adv-x="1454" d="M117 481v25q0 152 25.5 248t91 150t180 74.5t293.5 20.5h49q178 0 290.5 -20.5t176 -68.5t87 -126.5t23.5 -197.5v-119h-1042v-23q0 -102 16.5 -166.5t63.5 -99.5t133 -47t227 -12h39q127 0 206 9t122 31.5t58 61.5t15 98v17h168v-23q0 -96 -27.5 -159.5t-93 -101.5 t-172 -53t-264.5 -15h-53q-188 0 -308 20.5t-187.5 74.5t-92 151.5t-24.5 250.5zM293 588h868v30q0 72 -13 120t-56 77t-124 41t-218 12h-29q-139 0 -222 -11t-128 -42t-60.5 -85t-17.5 -142zM416 1210l315 228l315 -228l-55 -67l-260 164l-260 -164z" />
<glyph unicode="&#xeb;" horiz-adv-x="1454" d="M117 481v25q0 152 25.5 248t91 150t180 74.5t293.5 20.5h49q178 0 290.5 -20.5t176 -68.5t87 -126.5t23.5 -197.5v-119h-1042v-23q0 -102 16.5 -166.5t63.5 -99.5t133 -47t227 -12h39q127 0 206 9t122 31.5t58 61.5t15 98v17h168v-23q0 -96 -27.5 -159.5t-93 -101.5 t-172 -53t-264.5 -15h-53q-188 0 -308 20.5t-187.5 74.5t-92 151.5t-24.5 250.5zM293 588h868v30q0 72 -13 120t-56 77t-124 41t-218 12h-29q-139 0 -222 -11t-128 -42t-60.5 -85t-17.5 -142zM448 1198v195h160v-195h-160zM854 1198v195h160v-195h-160z" />
<glyph unicode="&#xec;" horiz-adv-x="495" d="M-77 1339l79 109l345 -274l-50 -64zM160 0v983h176v-983h-176z" />
<glyph unicode="&#xed;" horiz-adv-x="495" d="M160 0v983h176v-983h-176zM167 1174l347 274l79 -109l-374 -229z" />
<glyph unicode="&#xee;" horiz-adv-x="495" d="M-63 1210l315 228l315 -228l-55 -67l-260 164l-260 -164zM160 0v983h176v-983h-176z" />
<glyph unicode="&#xef;" horiz-adv-x="495" d="M-20 1198v195h149v-195h-149zM160 0v983h176v-983h-176zM367 1198v195h149v-195h-149z" />
<glyph unicode="&#xf0;" horiz-adv-x="1503" d="M117 463v26q0 143 24.5 234.5t83 144t156.5 71.5t246 19h57q227 0 355 -37.5t173 -152.5h5q-10 88 -35 158.5t-68 126t-108.5 96.5t-157.5 70l-254 -140l-37 66l182 100q-88 23 -197.5 30t-258.5 9l28 123q184 -2 325.5 -17.5t252.5 -48.5l233 129l39 -65l-174 -94 q123 -47 200 -119t122 -170t61 -225t16 -285v-45q0 -147 -23.5 -241.5t-90 -148.5t-184 -73.5t-306.5 -19.5h-59q-190 0 -309 19.5t-185.5 71.5t-89 145t-22.5 243zM289 461q0 -111 14 -176.5t61.5 -101.5t133.5 -48t231 -12h47q147 0 233.5 12t132.5 49t59 102.5t13 174.5 v26q0 102 -24.5 167t-78.5 102t-142 50t-217 13h-50q-133 0 -214.5 -12t-126 -49t-58.5 -101.5t-14 -169.5v-26z" />
<glyph unicode="&#xf1;" horiz-adv-x="1519" d="M160 0v983h176v-190h4q25 51 59.5 90t89 64.5t134 38.5t196.5 13h33q154 0 254 -18t158.5 -66.5t81 -131.5t22.5 -214v-569h-176v530q0 100 -13.5 165t-55.5 99.5t-117.5 48t-200.5 13.5h-31q-115 0 -196.5 -14.5t-136 -51t-80 -100t-25.5 -160.5v-530h-176zM473 1194 q14 98 63 146.5t117 48.5q63 0 145 -50q47 -31 78 -43t53 -12q43 0 66.5 26.5t34.5 80.5l78 -23q-16 -100 -63.5 -148.5t-119.5 -48.5q-35 0 -69.5 14.5t-75.5 41.5q-45 29 -76 39t-53 10q-35 0 -61.5 -21.5t-43.5 -80.5z" />
<glyph unicode="&#xf2;" d="M117 477v31q0 156 23.5 252t91 149.5t186.5 71.5t309 18h57q190 0 309 -18t186 -71.5t90.5 -149.5t23.5 -252v-31q0 -156 -23.5 -252t-89.5 -150.5t-185.5 -72.5t-310.5 -18h-57q-190 0 -310 18t-186.5 72.5t-90 151t-23.5 251.5zM291 477q0 -117 14 -186.5t60.5 -106.5 t133.5 -49t232 -12h49q145 0 231.5 12t132.5 49t60.5 106.5t14.5 186.5v31q0 117 -14.5 186.5t-60.5 106.5t-132 49t-232 12h-49q-145 0 -232 -12t-133.5 -49t-60.5 -106.5t-14 -186.5v-31zM568 1339l79 109l345 -274l-50 -64z" />
<glyph unicode="&#xf3;" d="M117 477v31q0 156 23.5 252t91 149.5t186.5 71.5t309 18h57q190 0 309 -18t186 -71.5t90.5 -149.5t23.5 -252v-31q0 -156 -23.5 -252t-89.5 -150.5t-185.5 -72.5t-310.5 -18h-57q-190 0 -310 18t-186.5 72.5t-90 151t-23.5 251.5zM291 477q0 -117 14 -186.5t60.5 -106.5 t133.5 -49t232 -12h49q145 0 231.5 12t132.5 49t60.5 106.5t14.5 186.5v31q0 117 -14.5 186.5t-60.5 106.5t-132 49t-232 12h-49q-145 0 -232 -12t-133.5 -49t-60.5 -106.5t-14 -186.5v-31zM542 1174l347 274l79 -109l-374 -229z" />
<glyph unicode="&#xf4;" d="M117 477v31q0 156 23.5 252t91 149.5t186.5 71.5t309 18h57q190 0 309 -18t186 -71.5t90.5 -149.5t23.5 -252v-31q0 -156 -23.5 -252t-89.5 -150.5t-185.5 -72.5t-310.5 -18h-57q-190 0 -310 18t-186.5 72.5t-90 151t-23.5 251.5zM291 477q0 -117 14 -186.5t60.5 -106.5 t133.5 -49t232 -12h49q145 0 231.5 12t132.5 49t60.5 106.5t14.5 186.5v31q0 117 -14.5 186.5t-60.5 106.5t-132 49t-232 12h-49q-145 0 -232 -12t-133.5 -49t-60.5 -106.5t-14 -186.5v-31zM443 1210l315 228l315 -228l-55 -67l-260 164l-260 -164z" />
<glyph unicode="&#xf5;" d="M117 477v31q0 156 23.5 252t91 149.5t186.5 71.5t309 18h57q190 0 309 -18t186 -71.5t90.5 -149.5t23.5 -252v-31q0 -156 -23.5 -252t-89.5 -150.5t-185.5 -72.5t-310.5 -18h-57q-190 0 -310 18t-186.5 72.5t-90 151t-23.5 251.5zM291 477q0 -117 14 -186.5t60.5 -106.5 t133.5 -49t232 -12h49q145 0 231.5 12t132.5 49t60.5 106.5t14.5 186.5v31q0 117 -14.5 186.5t-60.5 106.5t-132 49t-232 12h-49q-145 0 -232 -12t-133.5 -49t-60.5 -106.5t-14 -186.5v-31zM441 1194q14 98 63 146.5t117 48.5q63 0 145 -50q47 -31 78 -43t53 -12 q43 0 66.5 26.5t34.5 80.5l78 -23q-16 -100 -63.5 -148.5t-119.5 -48.5q-35 0 -69.5 14.5t-75.5 41.5q-45 29 -76 39t-53 10q-35 0 -61.5 -21.5t-43.5 -80.5z" />
<glyph unicode="&#xf6;" d="M117 477v31q0 156 23.5 252t91 149.5t186.5 71.5t309 18h57q190 0 309 -18t186 -71.5t90.5 -149.5t23.5 -252v-31q0 -156 -23.5 -252t-89.5 -150.5t-185.5 -72.5t-310.5 -18h-57q-190 0 -310 18t-186.5 72.5t-90 151t-23.5 251.5zM291 477q0 -117 14 -186.5t60.5 -106.5 t133.5 -49t232 -12h49q145 0 231.5 12t132.5 49t60.5 106.5t14.5 186.5v31q0 117 -14.5 186.5t-60.5 106.5t-132 49t-232 12h-49q-145 0 -232 -12t-133.5 -49t-60.5 -106.5t-14 -186.5v-31zM475 1198v195h160v-195h-160zM881 1198v195h160v-195h-160z" />
<glyph unicode="&#xf7;" horiz-adv-x="1355" d="M156 553v129h1044v-129h-1044zM563 248q0 49 34 81.5t81 32.5t80 -33.5t33 -80.5t-33 -81t-80 -34t-81 34t-34 81zM563 989q0 47 34 81t81 34t80 -34t33 -81t-33 -81t-80 -34t-81 34t-34 81z" />
<glyph unicode="&#xf8;" d="M70 37l114 86q-39 57 -53 143t-14 211v31q0 156 23.5 252t91 149.5t186.5 71.5t309 18h57q174 0 288 -15t183 -58l125 94l60 -78l-113 -86q37 -55 51.5 -140t14.5 -208v-31q0 -156 -23.5 -252t-89.5 -150.5t-185.5 -72.5t-310.5 -18h-57q-174 0 -286.5 15t-182.5 56 l-129 -96zM289 477q0 -88 6 -148.5t29 -101.5l792 594q-49 27 -130 35t-206 8h-49q-147 0 -234 -12t-133.5 -49t-60.5 -107.5t-14 -187.5v-31zM397 160q49 -23 130 -31t204 -8h49q145 0 232.5 12t133.5 49t60.5 107.5t14.5 187.5v31q0 86 -6.5 144.5t-28.5 99.5z" />
<glyph unicode="&#xf9;" d="M141 420v563h176v-518q0 -104 13.5 -170t55.5 -103.5t118 -52t203 -14.5h30q113 0 196 14.5t136 51t79 100t26 164.5v528h176v-983h-176v195h-3q-25 -53 -58.5 -93.5t-88.5 -66t-136 -38.5t-198 -13h-31q-156 0 -256 19.5t-158.5 68.5t-81 134t-22.5 214zM553 1339 l79 109l345 -274l-50 -64z" />
<glyph unicode="&#xfa;" d="M141 420v563h176v-518q0 -104 13.5 -170t55.5 -103.5t118 -52t203 -14.5h30q113 0 196 14.5t136 51t79 100t26 164.5v528h176v-983h-176v195h-3q-25 -53 -58.5 -93.5t-88.5 -66t-136 -38.5t-198 -13h-31q-156 0 -256 19.5t-158.5 68.5t-81 134t-22.5 214zM565 1174 l347 274l79 -109l-374 -229z" />
<glyph unicode="&#xfb;" d="M141 420v563h176v-518q0 -104 13.5 -170t55.5 -103.5t118 -52t203 -14.5h30q113 0 196 14.5t136 51t79 100t26 164.5v528h176v-983h-176v195h-3q-25 -53 -58.5 -93.5t-88.5 -66t-136 -38.5t-198 -13h-31q-156 0 -256 19.5t-158.5 68.5t-81 134t-22.5 214zM439 1210 l315 228l315 -228l-55 -67l-260 164l-260 -164z" />
<glyph unicode="&#xfc;" d="M141 420v563h176v-518q0 -104 13.5 -170t55.5 -103.5t118 -52t203 -14.5h30q113 0 196 14.5t136 51t79 100t26 164.5v528h176v-983h-176v195h-3q-25 -53 -58.5 -93.5t-88.5 -66t-136 -38.5t-198 -13h-31q-156 0 -256 19.5t-158.5 68.5t-81 134t-22.5 214zM477 1198v195 h160v-195h-160zM883 1198v195h160v-195h-160z" />
<glyph unicode="&#xfd;" horiz-adv-x="1290" d="M4 983h191l469 -838h6l430 838h186l-448 -854q-86 -166 -150.5 -262t-124 -145.5t-123 -63.5t-147.5 -14q-31 0 -67 1t-68 3v135q23 -2 51.5 -2h50.5q57 0 101.5 6t82 30.5t76.5 73t88 129.5h-63zM505 1174l347 274l79 -109l-374 -229z" />
<glyph unicode="&#xfe;" horiz-adv-x="1529" d="M160 -348v1741h176v-566h4q25 51 60.5 84t91 52.5t135.5 27.5t194 8h31q172 0 281.5 -19t172 -72.5t85 -151t22.5 -250.5v-27q0 -154 -23.5 -251t-86 -151t-172 -73.5t-279.5 -19.5h-39q-106 0 -184 9t-134.5 28.5t-93 53.5t-61.5 83h-4v-506h-176zM334 481 q0 -117 15.5 -186.5t62.5 -108.5t133 -51t225 -12h49q137 0 219 13.5t126 51t58.5 108.5t14.5 185v27q0 115 -14.5 184.5t-58.5 106.5t-127 49t-218 12h-49q-141 0 -226 -11t-132 -48t-62.5 -106.5t-15.5 -186.5v-27z" />
<glyph unicode="&#xff;" horiz-adv-x="1290" d="M4 983h191l469 -838h6l430 838h186l-448 -854q-86 -166 -150.5 -262t-124 -145.5t-123 -63.5t-147.5 -14q-31 0 -67 1t-68 3v135q23 -2 51.5 -2h50.5q57 0 101.5 6t82 30.5t76.5 73t88 129.5h-63zM380 1198v195h160v-195h-160zM786 1198v195h160v-195h-160z" />
<glyph unicode="&#x152;" horiz-adv-x="3155" d="M133 676v41q0 223 30 359t120 210t258 98.5t444 24.5h59q170 0 285 -9t189.5 -31.5t117.5 -59.5t72 -95h4v179h1358v-154h-1178v-446h1127v-150h-1127v-485h1188v-158h-1368v170h-4q-31 -55 -79 -91t-125 -57.5t-188.5 -29.5t-271.5 -8h-59q-276 0 -444 24.5t-258 98 t-120 210t-30 359.5zM324 684q0 -121 8 -209t31.5 -148.5t68.5 -97t119 -57t181.5 -27t256.5 -6.5h49q150 0 258.5 6.5t182 27t118.5 57t69 97t32 148.5t8 209v25q0 121 -8 209t-32 149t-69 98t-118.5 57.5t-182 26.5t-258.5 6h-49q-150 0 -257 -6t-181 -26.5t-119 -57.5 t-68.5 -98t-31.5 -149.5t-8 -208.5v-25z" />
<glyph unicode="&#x153;" horiz-adv-x="2537" d="M117 481v27q0 160 24.5 256t92 148.5t185.5 69.5t306 17h59q125 0 216.5 -8t155 -29.5t100 -58.5t53.5 -92h2q14 55 50 91t96.5 57.5t147.5 30.5t201 9h49q162 0 270.5 -16t173 -61t91.5 -126t27 -210v-119h-1024v-18q0 -104 16 -169t64.5 -101t132.5 -48t219 -12h39 q123 0 199.5 9t119.5 32.5t58.5 61.5t15.5 97v17h166v-23q0 -98 -29 -161.5t-94.5 -100.5t-170 -52t-253.5 -15h-51q-127 0 -217 9t-150.5 30.5t-95.5 57.5t-51 89h-2q-31 -109 -157 -147.5t-368 -38.5h-59q-188 0 -307 18t-185.5 71.5t-91 151t-24.5 256.5zM289 481 q0 -119 14 -190.5t60.5 -110.5t133.5 -51t234 -12h47q145 0 233.5 12t134.5 51t60.5 110.5t14.5 190.5v27q0 119 -15.5 190.5t-62.5 109.5t-134 49t-231 11h-47q-147 0 -234 -11t-133.5 -49t-60.5 -109.5t-14 -190.5v-27zM1393 588h852v24q0 80 -13.5 130.5t-55.5 78 t-120 37.5t-207 10h-28q-141 0 -224.5 -8t-128.5 -36.5t-59 -85t-16 -150.5z" />
<glyph unicode="&#x178;" horiz-adv-x="1806" d="M8 1393h236l661 -721h6l654 721h233l-803 -867v-526h-188v526zM628 1546v195h160v-195h-160zM1034 1546v195h160v-195h-160z" />
<glyph unicode="&#x2c6;" horiz-adv-x="1024" d="M201 1210l315 228l315 -228l-55 -67l-260 164l-260 -164z" />
<glyph unicode="&#x2dc;" horiz-adv-x="1024" d="M199 1194q14 98 63 146.5t117 48.5q63 0 145 -50q47 -31 78 -43t53 -12q43 0 66.5 26.5t34.5 80.5l78 -23q-16 -100 -63.5 -148.5t-119.5 -48.5q-35 0 -69.5 14.5t-75.5 41.5q-45 29 -76 39t-53 10q-35 0 -61.5 -21.5t-43.5 -80.5z" />
<glyph unicode="&#x2000;" horiz-adv-x="903" />
<glyph unicode="&#x2001;" horiz-adv-x="1806" />
<glyph unicode="&#x2002;" horiz-adv-x="903" />
<glyph unicode="&#x2003;" horiz-adv-x="1806" />
<glyph unicode="&#x2004;" horiz-adv-x="602" />
<glyph unicode="&#x2005;" horiz-adv-x="451" />
<glyph unicode="&#x2006;" horiz-adv-x="301" />
<glyph unicode="&#x2007;" horiz-adv-x="301" />
<glyph unicode="&#x2008;" horiz-adv-x="225" />
<glyph unicode="&#x2009;" horiz-adv-x="361" />
<glyph unicode="&#x200a;" horiz-adv-x="100" />
<glyph unicode="&#x2010;" horiz-adv-x="966" d="M143 442v144h680v-144h-680z" />
<glyph unicode="&#x2011;" horiz-adv-x="966" d="M143 442v144h680v-144h-680z" />
<glyph unicode="&#x2012;" horiz-adv-x="966" d="M143 442v144h680v-144h-680z" />
<glyph unicode="&#x2013;" horiz-adv-x="1708" d="M0 465v106h1708v-106h-1708z" />
<glyph unicode="&#x2014;" horiz-adv-x="2461" d="M70 465v106h2322v-106h-2322z" />
<glyph unicode="&#x2018;" horiz-adv-x="499" d="M160 893v227q0 63 7 111.5t28.5 82.5t61.5 53t105 26v-101q-57 -8 -69 -46t-12 -109v-15h55v-229h-176z" />
<glyph unicode="&#x2019;" horiz-adv-x="499" d="M137 893v100q57 8 69.5 46t12.5 110v14h-55v230h176v-228q0 -63 -7 -111t-28.5 -82t-61.5 -53.5t-106 -25.5z" />
<glyph unicode="&#x201a;" horiz-adv-x="499" d="M137 -170q57 8 69.5 46t12.5 110v14h-55v229h176v-227q0 -63 -7 -111.5t-28.5 -82t-61.5 -53t-106 -25.5v100z" />
<glyph unicode="&#x201c;" horiz-adv-x="833" d="M160 893v227q0 63 7 111.5t28.5 82.5t61.5 53t105 26v-101q-57 -8 -69 -46t-12 -109v-15h55v-229h-176zM494 893v227q0 63 7 111.5t28.5 82.5t61.5 53t105 26v-101q-57 -8 -69.5 -46t-12.5 -109v-15h56v-229h-176z" />
<glyph unicode="&#x201d;" horiz-adv-x="833" d="M137 893v100q57 8 69.5 46t12.5 110v14h-55v230h176v-228q0 -63 -7 -111t-28.5 -82t-61.5 -53.5t-106 -25.5zM471 893v100q57 8 69.5 46t12.5 110v14h-55v230h176v-228q0 -63 -7.5 -111t-29 -82t-61 -53.5t-105.5 -25.5z" />
<glyph unicode="&#x201e;" horiz-adv-x="833" d="M137 -170q57 8 69.5 46t12.5 110v14h-55v229h176v-227q0 -63 -7 -111.5t-28.5 -82t-61.5 -53t-106 -25.5v100zM471 -170q57 8 69.5 46t12.5 110v14h-55v229h176v-227q0 -63 -7.5 -111.5t-29 -82t-61 -53t-105.5 -25.5v100z" />
<glyph unicode="&#x2022;" horiz-adv-x="1054" d="M262 692q0 55 20.5 103.5t56.5 84t84 56t103 20.5t103.5 -20.5t84.5 -56t57.5 -84t21.5 -103.5t-21.5 -103t-57.5 -84t-84 -56.5t-104 -20.5q-55 0 -103 20.5t-84 56.5t-56.5 84t-20.5 103z" />
<glyph unicode="&#x2026;" horiz-adv-x="1517" d="M158 0v236h190v-236h-190zM664 0v236h190v-236h-190zM1169 0v236h191v-236h-191z" />
<glyph unicode="&#x202f;" horiz-adv-x="361" />
<glyph unicode="&#x2039;" horiz-adv-x="593" d="M113 555l231 412l123 -45l-205 -367l205 -365l-123 -45z" />
<glyph unicode="&#x203a;" horiz-adv-x="593" d="M127 190l207 367l-207 367l123 43l231 -410l-231 -412z" />
<glyph unicode="&#x205f;" horiz-adv-x="451" />
<glyph unicode="&#x20ac;" horiz-adv-x="1894" d="M94 545v90h162v149h-162v88h164q6 172 41 277.5t118 163t224 77t360 19.5h48q219 0 355 -15.5t211 -57.5t100.5 -113.5t25.5 -182.5v-30h-187v18q0 68 -15 113t-68.5 71.5t-155 38t-273.5 11.5h-34q-174 0 -284 -13.5t-172.5 -54.5t-86 -118t-25.5 -204h992v-88h-992 v-149h992v-90h-992q6 -141 29 -223t85 -125t176 -54.5t302 -11.5h35q164 0 264.5 10.5t154.5 37t72.5 71.5t18.5 115v18h184v-29q0 -115 -29.5 -186.5t-106.5 -112.5t-210 -56t-340 -15h-49q-238 0 -386 18t-231 77.5t-115 170t-38 295.5h-162z" />
<glyph unicode="&#x2122;" horiz-adv-x="2052" d="M76 1294v99h731v-99h-309v-577h-121v577h-301zM928 717v676h174l325 -543h5l321 543h168v-676h-117v547h-8l-330 -547h-80l-331 547h-8v-547h-119z" />
<glyph unicode="&#x25fc;" horiz-adv-x="983" d="M0 0v983h983v-983h-983z" />
</font>
</defs>
</svg>
